<?xml version="1.0" encoding="utf-8"?>
<!-- Generator: Adobe Illustrator 17.0.0, SVG Export Plug-In . SVG Version: 6.00 Build 0)  -->
<!DOCTYPE svg PUBLIC "-//W3C//DTD SVG 1.1//EN" "http://www.w3.org/Graphics/SVG/1.1/DTD/svg11.dtd">
<svg version="1.1"
	 id="svg7979" xmlns:dc="http://purl.org/dc/elements/1.1/" xmlns:cc="http://creativecommons.org/ns#" xmlns:rdf="http://www.w3.org/1999/02/22-rdf-syntax-ns#" xmlns:svg="http://www.w3.org/2000/svg"
	 xmlns="http://www.w3.org/2000/svg" xmlns:xlink="http://www.w3.org/1999/xlink" x="0px" y="0px" width="612px" height="792px"
	 viewBox="0 0 612 792" enable-background="new 0 0 612 792" xml:space="preserve">
<filter  id="filter6971" color-interpolation-filters="sRGB">
	<feGaussianBlur  id="feGaussianBlur6973" stdDeviation="1.6661361"></feGaussianBlur>
</filter>
<g id="rect6957" filter="url(#filter6971)">
	<path d="M271.641,148.849c0.288,41.646,0.041,83.335,0.123,125.002c0.024,152.728-0.056,305.467,0.062,458.205
		c0.693,5.019,6.274,7.114,10.738,6.148c17.808-0.161,35.673,0.406,53.445-0.309c4.755-1.484,5.661-7.265,4.994-11.725
		c-0.009-193.193,0.023-386.377-0.031-579.57c-0.421-5.23-6.199-7.628-10.8-6.588c-17.696,0.149-35.442-0.32-53.107,0.246
		c-3.709,0.954-5.679,4.89-5.426,8.602L271.641,148.849z"/>
</g>
<path id="rect6562" fill="#800080" d="M271.358,730.805V147.404c0-3.531,2.862-6.393,6.393-6.393h55.713
	c3.531,0,6.393,2.862,6.393,6.393v583.401c0,3.531-2.862,6.393-6.393,6.393h-55.713
	C274.221,737.198,271.358,734.336,271.358,730.805z"/>
<linearGradient id="rect6564_1_" gradientUnits="userSpaceOnUse" x1="277.7769" y1="1028.3702" x2="277.7769" y2="981.9003" gradientTransform="matrix(4.510285e-011 -1.0046 -1.0046 -4.510285e-011 1314.0972 717.9185)">
	<stop  offset="0" style="stop-color:#CB00CB"/>
	<stop  offset="1" style="stop-color:#CB00CB;stop-opacity:0"/>
</linearGradient>
<path id="rect6564" fill="url(#rect6564_1_)" d="M273.669,149.131c0.71,194.68-0.468,389.421,0.596,584.081
	c4.585,4.014,11.192,0.236,16.638,1.367c14.652-0.384,29.632,1.462,44.078-0.928c2.924-6.997-0.717-14.861,0.876-22.195
	c-0.307-189.014,0.694-378.169-0.562-567.093c-4.812-3.694-11.235-0.194-16.733-1.256c-14.674,0.711-30.256-2.177-44.391,1.444
	c-0.671,1.409-0.55,3.06-0.502,4.583L273.669,149.131z"/>
<g>
	<defs>
		<path id="SVGID_1_" d="M185.409,715.822V138.128c0-3.556,2.907-6.439,6.492-6.439h58.503c3.586,0,6.492,2.883,6.492,6.439v577.694
			c0,3.556-2.907,6.439-6.492,6.439h-58.503C188.316,722.261,185.409,719.378,185.409,715.822z"/>
	</defs>
	<clipPath id="SVGID_2_">
		<use xlink:href="#SVGID_1_"  overflow="visible"/>
	</clipPath>
	<g id="g6594" transform="matrix(.98532 0 0 .99349 -151.5 -625.55)" clip-path="url(#SVGID_2_)">
		<path id="path6596" fill="#B3B3B3" stroke="#B3B3B3" stroke-width="3" d="M411.071,1383.903l-64.29-39.753"/>
		<path id="path6598" fill="#B3B3B3" stroke="#B3B3B3" stroke-width="3" d="M411.071,1376.072l-64.29-39.753"/>
		<path id="path6600" fill="#B3B3B3" stroke="#B3B3B3" stroke-width="3" d="M411.071,1368.24l-64.29-39.753"/>
		<path id="path6602" fill="#B3B3B3" stroke="#B3B3B3" stroke-width="3" d="M411.071,1360.409l-64.29-39.753"/>
		<path id="path6604" fill="#B3B3B3" stroke="#B3B3B3" stroke-width="3" d="M411.071,1352.588l-64.29-39.753"/>
		<path id="path6606" fill="#B3B3B3" stroke="#B3B3B3" stroke-width="3" d="M411.071,1344.757l-64.29-39.753"/>
		<path id="path6608" fill="#B3B3B3" stroke="#B3B3B3" stroke-width="3" d="M411.071,1336.926l-64.29-39.753"/>
		<path id="path6610" fill="#B3B3B3" stroke="#B3B3B3" stroke-width="3" d="M411.071,1329.104l-64.29-39.754"/>
		<path id="path6612" fill="#B3B3B3" stroke="#B3B3B3" stroke-width="3" d="M411.071,1320.994l-64.29-39.753"/>
		<path id="path6614" fill="#B3B3B3" stroke="#B3B3B3" stroke-width="3" d="M411.071,1313.163l-64.29-39.753"/>
		<path id="path6616" fill="#B3B3B3" stroke="#B3B3B3" stroke-width="3" d="M411.071,1305.342l-64.29-39.753"/>
		<path id="path6618" fill="#B3B3B3" stroke="#B3B3B3" stroke-width="3" d="M411.071,1297.511l-64.29-39.753"/>
		<path id="path6620" fill="#B3B3B3" stroke="#B3B3B3" stroke-width="3" d="M411.071,1289.679l-64.29-39.753"/>
		<path id="path6622" fill="#B3B3B3" stroke="#B3B3B3" stroke-width="3" d="M411.071,1281.848l-64.29-39.753"/>
		<path id="path6624" fill="#B3B3B3" stroke="#B3B3B3" stroke-width="3" d="M411.071,1274.027l-64.29-39.753"/>
		<path id="path6626" fill="#B3B3B3" stroke="#B3B3B3" stroke-width="3" d="M411.071,1266.196l-64.29-39.753"/>
		<path id="path6628" fill="#B3B3B3" stroke="#B3B3B3" stroke-width="3" d="M411.071,1259.102l-64.29-39.753"/>
		<path id="path6630" fill="#B3B3B3" stroke="#B3B3B3" stroke-width="3" d="M411.071,1251.271l-64.29-39.753"/>
		<path id="path6632" fill="#B3B3B3" stroke="#B3B3B3" stroke-width="3" d="M411.071,1243.44l-64.29-39.753"/>
		<path id="path6634" fill="#B3B3B3" stroke="#B3B3B3" stroke-width="3" d="M411.071,1235.609l-64.29-39.753"/>
		<path id="path6636" fill="#B3B3B3" stroke="#B3B3B3" stroke-width="3" d="M411.071,1227.787l-64.29-39.754"/>
		<path id="path6638" fill="#B3B3B3" stroke="#B3B3B3" stroke-width="3" d="M411.071,1219.956l-64.29-39.753"/>
		<path id="path6640" fill="#B3B3B3" stroke="#B3B3B3" stroke-width="3" d="M411.071,1212.125l-64.29-39.753"/>
		<path id="path6642" fill="#B3B3B3" stroke="#B3B3B3" stroke-width="3" d="M411.071,1204.304l-64.29-39.753"/>
		<path id="path6644" fill="#B3B3B3" stroke="#B3B3B3" stroke-width="3" d="M411.071,1196.194l-64.29-39.753"/>
		<path id="path6646" fill="#B3B3B3" stroke="#B3B3B3" stroke-width="3" d="M411.071,1188.362l-64.29-39.744"/>
		<path id="path6648" fill="#B3B3B3" stroke="#B3B3B3" stroke-width="3" d="M411.071,1180.541l-64.29-39.753"/>
		<path id="path6650" fill="#B3B3B3" stroke="#B3B3B3" stroke-width="3" d="M411.071,1172.71l-64.29-39.753"/>
		<path id="path6652" fill="#B3B3B3" stroke="#B3B3B3" stroke-width="3" d="M411.071,1164.879l-64.29-39.753"/>
		<path id="path6654" fill="#B3B3B3" stroke="#B3B3B3" stroke-width="3" d="M411.071,1157.058l-64.29-39.753"/>
		<path id="path6656" fill="#B3B3B3" stroke="#B3B3B3" stroke-width="3" d="M411.071,1149.226l-64.29-39.753"/>
		<path id="path6658" fill="#B3B3B3" stroke="#B3B3B3" stroke-width="3" d="M411.071,1141.395l-64.29-39.753"/>
		<path id="path6660" fill="#B3B3B3" stroke="#B3B3B3" stroke-width="3" d="M411.071,1134.301l-64.29-39.753"/>
		<path id="path6662" fill="#B3B3B3" stroke="#B3B3B3" stroke-width="3" d="M411.071,1126.47l-64.29-39.753"/>
		<path id="path6664" fill="#B3B3B3" stroke="#B3B3B3" stroke-width="3" d="M411.071,1118.639l-64.29-39.753"/>
		<path id="path6666" fill="#B3B3B3" stroke="#B3B3B3" stroke-width="3" d="M411.071,1110.818l-64.29-39.753"/>
		<path id="path6668" fill="#B3B3B3" stroke="#B3B3B3" stroke-width="3" d="M411.071,1102.987l-64.29-39.753"/>
		<path id="path6670" fill="#B3B3B3" stroke="#B3B3B3" stroke-width="3" d="M411.071,1095.156l-64.29-39.753"/>
		<path id="path6672" fill="#B3B3B3" stroke="#B3B3B3" stroke-width="3" d="M411.071,1087.324l-64.29-39.744"/>
		<path id="path6674" fill="#B3B3B3" stroke="#B3B3B3" stroke-width="3" d="M411.071,1079.503l-64.29-39.753"/>
		<path id="path6676" fill="#B3B3B3" stroke="#B3B3B3" stroke-width="3" d="M411.071,1071.393l-64.29-39.753"/>
		<path id="path6678" fill="#B3B3B3" stroke="#B3B3B3" stroke-width="3" d="M411.071,1063.572l-64.29-39.753"/>
		<path id="path6680" fill="#B3B3B3" stroke="#B3B3B3" stroke-width="3" d="M411.071,1055.741l-64.29-39.753"/>
		<path id="path6682" fill="#B3B3B3" stroke="#B3B3B3" stroke-width="3" d="M411.071,1047.909l-64.29-39.754"/>
		<path id="path6684" fill="#B3B3B3" stroke="#B3B3B3" stroke-width="3" d="M411.071,1040.078l-64.29-39.753"/>
		<path id="path6686" fill="#B3B3B3" stroke="#B3B3B3" stroke-width="3" d="M411.071,1032.257l-64.29-39.753"/>
		<path id="path6688" fill="#B3B3B3" stroke="#B3B3B3" stroke-width="3" d="M411.071,1024.426l-64.29-39.753"/>
		<path id="path6690" fill="#B3B3B3" stroke="#B3B3B3" stroke-width="3" d="M411.071,1016.595l-64.29-39.753"/>
		<path id="path6692" fill="#B3B3B3" stroke="#B3B3B3" stroke-width="3" d="M411.071,1009.042l-64.29-39.753"/>
		<path id="path6694" fill="#B3B3B3" stroke="#B3B3B3" stroke-width="3" d="M411.071,1001.221l-64.29-39.753"/>
		<path id="path6696" fill="#B3B3B3" stroke="#B3B3B3" stroke-width="3" d="M411.071,993.39l-64.29-39.753"/>
		<path id="path6698" fill="#B3B3B3" stroke="#B3B3B3" stroke-width="3" d="M411.071,985.559l-64.29-39.753"/>
		<path id="path6700" fill="#B3B3B3" stroke="#B3B3B3" stroke-width="3" d="M411.071,977.728l-64.29-39.753"/>
		<path id="path6702" fill="#B3B3B3" stroke="#B3B3B3" stroke-width="3" d="M411.071,969.906l-64.29-39.753"/>
		<path id="path6704" fill="#B3B3B3" stroke="#B3B3B3" stroke-width="3" d="M411.071,962.075l-64.29-39.753"/>
		<path id="path6706" fill="#B3B3B3" stroke="#B3B3B3" stroke-width="3" d="M411.071,954.244l-64.29-39.753"/>
		<path id="path6708" fill="#B3B3B3" stroke="#B3B3B3" stroke-width="3" d="M411.071,946.144l-64.29-39.753"/>
		<path id="path6710" fill="#B3B3B3" stroke="#B3B3B3" stroke-width="3" d="M411.071,938.313l-64.29-39.753"/>
		<path id="path6712" fill="#B3B3B3" stroke="#B3B3B3" stroke-width="3" d="M411.071,930.482l-64.29-39.753"/>
		<path id="path6714" fill="#B3B3B3" stroke="#B3B3B3" stroke-width="3" d="M411.071,922.66l-64.29-39.753"/>
		<path id="path6716" fill="#B3B3B3" stroke="#B3B3B3" stroke-width="3" d="M411.071,914.829l-64.29-39.753"/>
		<path id="path6718" fill="#B3B3B3" stroke="#B3B3B3" stroke-width="3" d="M411.071,906.998l-64.29-39.753"/>
		<path id="path6720" fill="#B3B3B3" stroke="#B3B3B3" stroke-width="3" d="M411.071,899.177l-64.29-39.753"/>
		<path id="path6722" fill="#B3B3B3" stroke="#B3B3B3" stroke-width="3" d="M411.071,891.346l-64.29-39.753"/>
		<path id="path6724" fill="#B3B3B3" stroke="#B3B3B3" stroke-width="3" d="M411.071,884.501l-64.29-39.753"/>
		<path id="path6726" fill="#B3B3B3" stroke="#B3B3B3" stroke-width="3" d="M411.071,876.68l-64.29-39.753"/>
		<path id="path6728" fill="#B3B3B3" stroke="#B3B3B3" stroke-width="3" d="M411.071,868.848l-64.29-39.753"/>
		<path id="path6730" fill="#B3B3B3" stroke="#B3B3B3" stroke-width="3" d="M411.071,861.017l-64.29-39.753"/>
		<path id="path6732" fill="#B3B3B3" stroke="#B3B3B3" stroke-width="3" d="M411.071,853.186l-64.29-39.753"/>
		<path id="path6734" fill="#B3B3B3" stroke="#B3B3B3" stroke-width="3" d="M411.071,845.365l-64.29-39.753"/>
		<path id="path6736" fill="#B3B3B3" stroke="#B3B3B3" stroke-width="3" d="M411.071,837.534l-64.29-39.753"/>
		<path id="path6738" fill="#B3B3B3" stroke="#B3B3B3" stroke-width="3" d="M411.071,829.703l-64.29-39.753"/>
		<path id="path6740" fill="#B3B3B3" stroke="#B3B3B3" stroke-width="3" d="M411.071,821.602l-64.29-39.753"/>
		<path id="path6742" fill="#B3B3B3" stroke="#B3B3B3" stroke-width="3" d="M411.071,813.771l-64.29-39.753"/>
		<path id="path6744" fill="#B3B3B3" stroke="#B3B3B3" stroke-width="3" d="M411.071,805.94l-64.29-39.753"/>
		<path id="path6746" fill="#B3B3B3" stroke="#B3B3B3" stroke-width="3" d="M411.071,798.119l-64.29-39.753"/>
		<path id="path6748" fill="#B3B3B3" stroke="#B3B3B3" stroke-width="3" d="M411.071,790.288l-64.29-39.753"/>
		<path id="path6750" fill="#B3B3B3" stroke="#B3B3B3" stroke-width="3" d="M411.071,782.456l-64.29-39.753"/>
		<path id="path6752" fill="#B3B3B3" stroke="#B3B3B3" stroke-width="3" d="M411.071,774.635l-64.29-39.753"/>
		<path id="path6754" fill="#B3B3B3" stroke="#B3B3B3" stroke-width="3" d="M411.071,766.804l-64.29-39.753"/>
	</g>
</g>
<path id="path6590" opacity="0.2168" fill="#800080" enable-background="new    " d="M359.84,148.658
	c0.71,194.68-0.468,389.421,0.596,584.081c4.585,4.014,11.192,0.236,16.638,1.367c14.652-0.383,29.632,1.462,44.078-0.928
	c2.924-6.997-0.717-14.861,0.876-22.195c-0.307-189.014,0.694-378.169-0.562-567.093c-4.812-3.694-11.235-0.194-16.733-1.256
	c-14.674,0.711-30.256-2.177-44.391,1.444c-0.671,1.409-0.55,3.06-0.502,4.583L359.84,148.658z"/>
<linearGradient id="path6924_1_" gradientUnits="userSpaceOnUse" x1="277.169" y1="1057.2108" x2="279.309" y2="985.0608" gradientTransform="matrix(4.510285e-011 -1.0046 -1.0046 -4.510285e-011 1314.0972 717.9185)">
	<stop  offset="0" style="stop-color:#FFFFFF"/>
	<stop  offset="1" style="stop-color:#FFFFFF;stop-opacity:0"/>
</linearGradient>
<path id="path6924" fill="url(#path6924_1_)" d="M277.436,148.478c0.748,194.148-0.531,388.296,0.659,582.444
	c2.65,1.096,1.18-3.298,2.417-4.364c18.288-64.339,22.853-131.451,27.263-197.925c5.852-108.175,3.6-216.952-9.368-324.554
	c-2.677-19.419-5.446-39.208-9.638-58.078c-3.663,0.483-8.578-0.657-11.364,1.727c0.01,0.251-0.021,0.504,0.031,0.753
	L277.436,148.478z"/>
</svg>
