<?xml version="1.0" encoding="utf-8"?>
<!-- Generator: Adobe Illustrator 17.0.0, SVG Export Plug-In . SVG Version: 6.00 Build 0)  -->
<!DOCTYPE svg PUBLIC "-//W3C//DTD SVG 1.1//EN" "http://www.w3.org/Graphics/SVG/1.1/DTD/svg11.dtd">
<svg version="1.1"
	 id="svg2" xmlns:sodipodi="http://inkscape.sourceforge.net/DTD/sodipodi-0.dtd" xmlns:rdf="http://www.w3.org/1999/02/22-rdf-syntax-ns#" xmlns:dc="http://purl.org/dc/elements/1.1/" xmlns:inkscape="http://www.inkscape.org/namespaces/inkscape" xmlns:cc="http://web.resource.org/cc/" xmlns:svg="http://www.w3.org/2000/svg" inkscape:export-ydpi="90.000000" inkscape:export-xdpi="90.000000" inkscape:export-filename="/project/rosalyn/Biology/Summer1/LabsLectures/Images/pedigreechartA.png" sodipodi:docname="pedigreechart1.svg" inkscape:version="0.41.1" sodipodi:docbase="/project/rosalyn/Biology/Summer1/LabsLectures/Images" sodipodi:version="0.32"
	 xmlns="http://www.w3.org/2000/svg" xmlns:xlink="http://www.w3.org/1999/xlink" x="0px" y="0px" width="735px" height="472px"
	 viewBox="0 0 735 472" enable-background="new 0 0 735 472" xml:space="preserve">
<sodipodi:namedview  bordercolor="#666666" id="base" inkscape:cy="526.18109" pagecolor="#ffffff" showgrid="true" inkscape:zoom="0.72503556" borderopacity="1.0" inkscape:cx="372.04723" inkscape:current-layer="layer1" inkscape:window-y="0" inkscape:document-units="px" inkscape:window-x="0" inkscape:window-width="1273" inkscape:pageshadow="2" inkscape:window-height="943" inkscape:pageopacity="0.0">
	</sodipodi:namedview>
<sodipodi:namedview  bordercolor="#666666" id="base" inkscape:cy="526.18109" pagecolor="#ffffff" showgrid="true" inkscape:zoom="0.72503556" borderopacity="1.0" inkscape:cx="372.04723" inkscape:current-layer="layer1" inkscape:window-y="0" inkscape:document-units="px" inkscape:window-x="0" inkscape:window-width="1273" inkscape:pageshadow="2" inkscape:window-height="943" inkscape:pageopacity="0.0">
	</sodipodi:namedview>
<sodipodi:namedview  bordercolor="#666666" id="base" inkscape:cy="526.18109" pagecolor="#ffffff" showgrid="true" inkscape:zoom="0.72503556" borderopacity="1.0" inkscape:cx="372.04723" inkscape:current-layer="layer1" inkscape:window-y="0" inkscape:document-units="px" inkscape:window-x="0" inkscape:window-width="1273" inkscape:pageshadow="2" inkscape:window-height="943" inkscape:pageopacity="0.0">
	</sodipodi:namedview>
<g>
	<rect x="60.816" y="20.127" fill="none" stroke="#000000" width="41.988" height="39.244"/>
	<path fill="none" stroke="#000000" stroke-width="1.3998" d="M173.18,39.749"/>
	<path fill="none" stroke="#000000" stroke-width="1.3998" d="M173.965,215.643"/>
	<path fill="none" stroke="#000000" stroke-width="1.3998" d="M264.583,215.639"/>
	<line fill="none" stroke="#000000" stroke-width="1.3998" x1="264.583" y1="255.534" x2="264.583" y2="214.785"/>
	<line fill="none" stroke="#000000" stroke-width="1.3998" x1="85.625" y1="254.367" x2="85.625" y2="215.639"/>
	<ellipse cx="85.625" cy="274.947" rx="23.401" ry="21.872"/>
	<ellipse fill="none" stroke="#000000" cx="85.625" cy="274.947" rx="23.401" ry="21.872"/>
	<rect x="153.132" y="255.325" width="41.988" height="39.244"/>
	<rect x="153.132" y="255.325" fill="none" stroke="#000000" width="41.988" height="39.244"/>
	<rect x="243.588" y="255.325" fill="none" stroke="#000000" width="41.988" height="39.244"/>
	<ellipse fill="none" stroke="#000000" cx="261.176" cy="39.749" rx="23.401" ry="21.872"/>
	<line fill="none" stroke="#000000" stroke-width="1.3998" x1="103.095" y1="39.749" x2="237.774" y2="39.749"/>
	<path fill="none" d="M54.48,59.621"/>
	<path fill="none" d="M105.14,17.877"/>
	<path fill="none" stroke="#000000" stroke-width="0.971" d="M54.48,59.621"/>
	<path fill="none" stroke="#000000" stroke-width="0.971" d="M105.14,17.877"/>
	<g>
		<path fill="#F7D708" d="M245.934,184.951V74.18c0-0.67,0.545-1.214,1.218-1.214h10.612c0.672,0,1.218,0.543,1.218,1.214v110.772
			c0,0.67-0.545,1.214-1.218,1.214h-10.612C246.48,186.166,245.934,185.622,245.934,184.951z"/>
		<path fill="#9CCF31" d="M262.768,184.951V74.18c0-0.67,0.545-1.214,1.218-1.214h10.612c0.672,0,1.218,0.543,1.218,1.214v110.772
			c0,0.67-0.545,1.214-1.218,1.214h-10.612C263.313,186.166,262.768,185.622,262.768,184.951z"/>
	</g>
	<g>
		<path fill="#F7D708" d="M64.87,185.897V74.19c0-0.676,0.545-1.224,1.218-1.224H76.7c0.673,0,1.218,0.548,1.218,1.224v111.707
			c0,0.676-0.545,1.224-1.218,1.224H66.088C65.415,187.121,64.87,186.573,64.87,185.897z"/>
		<path fill="#9CCF31" d="M81.703,185.897V74.19c0-0.676,0.545-1.224,1.218-1.224h10.612c0.672,0,1.218,0.548,1.218,1.224v111.707
			c0,0.676-0.545,1.224-1.218,1.224H82.921C82.248,187.121,81.703,186.573,81.703,185.897z"/>
	</g>
	<g>
		<path fill="#9CCF31" d="M266.077,334.109v-23.588c0-0.143,0.534-0.258,1.192-0.258h10.387c0.658,0,1.192,0.116,1.192,0.258v23.588
			c0,0.143-0.534,0.258-1.192,0.258h-10.387C266.61,334.367,266.077,334.252,266.077,334.109z"/>
	</g>
	<g>
		<path fill="#F7D708" d="M71.763,334.109v-23.588c0-0.143,0.534-0.258,1.192-0.258h10.387c0.658,0,1.192,0.116,1.192,0.258v23.588
			c0,0.143-0.534,0.258-1.192,0.258H72.955C72.297,334.367,71.763,334.252,71.763,334.109z"/>
		<path fill="#F7D708" d="M86.715,334.109v-23.588c0-0.143,0.534-0.258,1.192-0.258h10.387c0.658,0,1.192,0.116,1.192,0.258v23.588
			c0,0.143-0.534,0.258-1.192,0.258H87.907C87.249,334.367,86.715,334.252,86.715,334.109z"/>
	</g>
	<g>
		<path fill="#F7D708" d="M160.194,334.109v-23.588c0-0.143,0.534-0.258,1.192-0.258h10.387c0.658,0,1.192,0.116,1.192,0.258v23.588
			c0,0.143-0.534,0.258-1.192,0.258h-10.387C160.728,334.367,160.194,334.252,160.194,334.109z"/>
		<path fill="#F7D708" d="M175.147,334.109v-23.588c0-0.143,0.534-0.258,1.192-0.258h10.387c0.658,0,1.192,0.116,1.192,0.258v23.588
			c0,0.143-0.534,0.258-1.192,0.258h-10.387C175.68,334.367,175.147,334.252,175.147,334.109z"/>
	</g>
	<line fill="none" stroke="#000000" stroke-width="1.3998" x1="173.965" y1="254.371" x2="173.965" y2="215.643"/>
</g>
<text transform="matrix(1 0 0 1 67.573 89.4526)" font-family="'LucidaSansUnicode'" font-size="14">0</text>
<text transform="matrix(1 0 0 1 67.573 128.5411)" font-family="'LucidaSansUnicode'" font-size="14">0</text>
<text transform="matrix(1 0 0 1 67.5729 109.7857)" fill="#FF0000" font-family="'LucidaSansUnicode'" font-size="14">1</text>
<text transform="matrix(1 0 0 1 67.5727 146.7734)" font-family="'LucidaSansUnicode'" font-size="14">0</text>
<text transform="matrix(1 0 0 1 67.5725 165.0031)" font-family="'LucidaSansUnicode'" font-size="14">0</text>
<text transform="matrix(1 0 0 1 67.5724 182.627)" font-family="'LucidaSansUnicode'" font-size="14">0</text>
<text transform="matrix(1 0 0 1 84.4065 89.5315)" font-family="'LucidaSansUnicode'" font-size="14">0</text>
<text transform="matrix(1 0 0 1 84.4065 128.6202)" font-family="'LucidaSansUnicode'" font-size="14">0</text>
<text transform="matrix(1 0 0 1 84.4064 109.8648)" font-family="'LucidaSansUnicode'" font-size="14">0</text>
<text transform="matrix(1 0 0 1 84.4062 146.8523)" font-family="'LucidaSansUnicode'" font-size="14">0</text>
<text transform="matrix(1 0 0 1 84.406 165.0822)" font-family="'LucidaSansUnicode'" font-size="14">0</text>
<text transform="matrix(1 0 0 1 84.4059 182.7061)" font-family="'LucidaSansUnicode'" font-size="14">0</text>
<text transform="matrix(1 0 0 1 248.6381 89.3614)" font-family="'LucidaSansUnicode'" font-size="14">0</text>
<text transform="matrix(1 0 0 1 248.6381 128.4499)" font-family="'LucidaSansUnicode'" font-size="14">0</text>
<text transform="matrix(1 0 0 1 248.638 109.6947)" fill="#FF0000" font-family="'LucidaSansUnicode'" font-size="14">1</text>
<text transform="matrix(1 0 0 1 248.6379 146.6822)" font-family="'LucidaSansUnicode'" font-size="14">0</text>
<text transform="matrix(1 0 0 1 248.6376 164.9122)" font-family="'LucidaSansUnicode'" font-size="14">0</text>
<text transform="matrix(1 0 0 1 248.6375 182.5361)" font-family="'LucidaSansUnicode'" font-size="14">0</text>
<text transform="matrix(1 0 0 1 265.1762 88.7841)" font-family="'LucidaSansUnicode'" font-size="14">0</text>
<text transform="matrix(1 0 0 1 265.1762 127.8726)" font-family="'LucidaSansUnicode'" font-size="14">0</text>
<text transform="matrix(1 0 0 1 265.1761 109.1175)" font-family="'LucidaSansUnicode'" font-size="14">0</text>
<text transform="matrix(1 0 0 1 265.1759 146.1049)" font-family="'LucidaSansUnicode'" font-size="14">0</text>
<text transform="matrix(1 0 0 1 265.1757 164.3349)" font-family="'LucidaSansUnicode'" font-size="14">0</text>
<text transform="matrix(1 0 0 1 265.1756 181.9588)" font-family="'LucidaSansUnicode'" font-size="14">0</text>
<text transform="matrix(1 0 0 1 73.3872 327.3411)" font-family="'LucidaSansUnicode'" font-size="14">2</text>
<text transform="matrix(1 0 0 1 88.2204 327.3411)" font-family="'LucidaSansUnicode'" font-size="14">2</text>
<text transform="matrix(1 0 0 1 162.3872 327.3411)" font-family="'LucidaSansUnicode'" font-size="14">2</text>
<text transform="matrix(1 0 0 1 177.3872 327.341)" font-family="'LucidaSansUnicode'" font-size="14">2</text>
<text transform="matrix(1 0 0 1 267.9906 327.3411)" font-family="'LucidaSansUnicode'" font-size="14">1</text>
<g id="g36470-2-4-2_9_" transform="translate(165.3925,438.40886)">
	<g id="g36466-2-7-1_9_">
		<path id="path2178-0-1-5_9_" sodipodi:nodetypes="cc" fill="none" stroke="#664444" stroke-width="0.5" d="M-120.249-307.976
			l11.4,0.23"/>
		<path id="path2176-4-2-3_9_" sodipodi:nodetypes="cccc" fill="none" stroke="#664444" stroke-width="0.5" d="M-103.169-251.807
			l-5.562-0.059l-0.032-111.673l5.547-0.249"/>
	</g>
</g>
<g id="g36470-2-4-2_8_" transform="translate(165.3925,438.40886)">
	<g id="g36466-2-7-1_8_">
		<path id="path2178-0-1-5_8_" sodipodi:nodetypes="cc" fill="none" stroke="#664444" stroke-width="0.5" d="M-51.712-307.682
			l-11.4-0.23"/>
		<path id="path2176-4-2-3_8_" sodipodi:nodetypes="cccc" fill="none" stroke="#664444" stroke-width="0.5" d="M-68.792-363.853
			l5.562,0.059l0.032,111.673l-5.547,0.249"/>
	</g>
</g>
<g id="g36470-2-4-2_7_" transform="translate(165.3925,438.40886)">
	<g id="g36466-2-7-1_7_">
		<path id="path2178-0-1-5_7_" sodipodi:nodetypes="cc" fill="none" stroke="#664444" stroke-width="0.5" d="M129.449-308.504
			l-11.4-0.23"/>
		<path id="path2176-4-2-3_7_" sodipodi:nodetypes="cccc" fill="none" stroke="#664444" stroke-width="0.5" d="M112.369-364.673
			l5.562,0.059l0.032,111.672l-5.547,0.249"/>
	</g>
</g>
<g id="g36470-2-4-2_6_" transform="translate(165.3925,438.40886)">
	<g id="g36466-2-7-1_6_">
		<path id="path2178-0-1-5_6_" sodipodi:nodetypes="cc" fill="none" stroke="#664444" stroke-width="0.5" d="M60.349-308.763
			l11.4,0.23"/>
		<path id="path2176-4-2-3_6_" sodipodi:nodetypes="cccc" fill="none" stroke="#664444" stroke-width="0.5" d="M77.429-252.594
			l-5.562-0.059l-0.032-111.673l5.547-0.249"/>
	</g>
</g>
<path fill="#F7D708" d="M31.014,142.042v-23.588c0-0.143,0.534-0.258,1.192-0.258h10.387c0.658,0,1.192,0.116,1.192,0.258v23.588
	c0,0.143-0.534,0.258-1.192,0.258H32.206C31.548,142.3,31.014,142.184,31.014,142.042z"/>
<text transform="matrix(1 0 0 1 32.8575 135.274)" font-family="'LucidaSansUnicode'" font-size="14">2</text>
<path fill="#F7D708" d="M211.535,142.042v-23.588c0-0.143,0.534-0.258,1.192-0.258h10.387c0.658,0,1.192,0.116,1.192,0.258v23.588
	c0,0.143-0.534,0.258-1.192,0.258h-10.387C212.069,142.3,211.535,142.184,211.535,142.042z"/>
<text transform="matrix(1 0 0 1 213.4264 135.2739)" font-family="'LucidaSansUnicode'" font-size="14">2</text>
<path fill="#9CCF31" d="M116.448,142.52v-23.588c0-0.143,0.534-0.258,1.192-0.258h10.387c0.658,0,1.192,0.116,1.192,0.258v23.588
	c0,0.143-0.534,0.258-1.192,0.258H117.64C116.982,142.779,116.448,142.662,116.448,142.52z"/>
<text transform="matrix(1 0 0 1 118.0727 135.7525)" font-family="'LucidaSansUnicode'" font-size="14">1</text>
<path fill="#9CCF31" d="M296.4,142.52v-23.588c0-0.143,0.534-0.258,1.192-0.258h10.387c0.658,0,1.192,0.116,1.192,0.258v23.588
	c0,0.143-0.534,0.258-1.192,0.258h-10.387C296.934,142.779,296.4,142.662,296.4,142.52z"/>
<text transform="matrix(1 0 0 1 297.9059 135.7525)" font-family="'LucidaSansUnicode'" font-size="14">1</text>
<g>
	<g>
		<path fill="#F7D708" d="M175.732,460.948V350.177c0-0.67,0.545-1.214,1.218-1.214h10.612c0.672,0,1.218,0.543,1.218,1.214v110.772
			c0,0.67-0.545,1.214-1.218,1.214H176.95C176.277,462.163,175.732,461.619,175.732,460.948z"/>
	</g>
	<g>
		<path fill="#F7D708" d="M264.358,462.196"/>
		<path fill="#F7D708" d="M264.358,350.49"/>
	</g>
</g>
<text transform="matrix(1 0 0 1 178.4355 365.3596)" font-family="'LucidaSansUnicode'" font-size="14">0</text>
<text transform="matrix(1 0 0 1 178.4355 404.4482)" font-family="'LucidaSansUnicode'" font-size="14">0</text>
<text transform="matrix(1 0 0 1 178.4355 385.6929)" fill="#FF0000" font-family="'LucidaSansUnicode'" font-size="14">1</text>
<text transform="matrix(1 0 0 1 178.4352 422.6804)" font-family="'LucidaSansUnicode'" font-size="14">0</text>
<text transform="matrix(1 0 0 1 178.435 440.9104)" font-family="'LucidaSansUnicode'" font-size="14">0</text>
<text transform="matrix(1 0 0 1 178.4349 458.5343)" font-family="'LucidaSansUnicode'" font-size="14">0</text>
<path fill="none" stroke="#000000" stroke-width="0.971" d="M168.647,462.7"/>
<path fill="#F7D708" d="M160.055,461.478V349.77c0-0.676,0.545-1.224,1.218-1.224h10.612c0.672,0,1.218,0.548,1.218,1.224v111.706
	c0,0.676-0.545,1.224-1.218,1.224h-10.612C160.6,462.702,160.055,462.153,160.055,461.478z"/>
<text transform="matrix(1 0 0 1 162.7585 365.0336)" font-family="'LucidaSansUnicode'" font-size="14">0</text>
<text transform="matrix(1 0 0 1 162.7585 404.1221)" font-family="'LucidaSansUnicode'" font-size="14">0</text>
<text transform="matrix(1 0 0 1 162.7585 385.367)" fill="#FF0000" font-family="'LucidaSansUnicode'" font-size="14">1</text>
<text transform="matrix(1 0 0 1 162.7583 422.3544)" font-family="'LucidaSansUnicode'" font-size="14">0</text>
<text transform="matrix(1 0 0 1 162.758 440.5845)" font-family="'LucidaSansUnicode'" font-size="14">0</text>
<text transform="matrix(1 0 0 1 162.758 458.2082)" font-family="'LucidaSansUnicode'" font-size="14">0</text>
<path fill="none" stroke="#000000" stroke-width="0.971" d="M80.216,462.209"/>
<path fill="#F7D708" d="M71.624,460.987V349.279c0-0.676,0.545-1.224,1.218-1.224h10.612c0.672,0,1.218,0.548,1.218,1.224v111.706
	c0,0.676-0.545,1.224-1.218,1.224H72.842C72.17,462.211,71.624,461.662,71.624,460.987z"/>
<text transform="matrix(1 0 0 1 74.3275 364.5427)" font-family="'LucidaSansUnicode'" font-size="14">0</text>
<text transform="matrix(1 0 0 1 74.3275 403.6312)" font-family="'LucidaSansUnicode'" font-size="14">0</text>
<text transform="matrix(1 0 0 1 74.3274 384.876)" fill="#FF0000" font-family="'LucidaSansUnicode'" font-size="14">1</text>
<text transform="matrix(1 0 0 1 74.3272 421.8635)" font-family="'LucidaSansUnicode'" font-size="14">0</text>
<text transform="matrix(1 0 0 1 74.327 440.0936)" font-family="'LucidaSansUnicode'" font-size="14">0</text>
<text transform="matrix(1 0 0 1 74.3269 457.7172)" font-family="'LucidaSansUnicode'" font-size="14">0</text>
<path fill="none" d="M297.993,423.115"/>
<path fill="#9CCF31" d="M266.161,462.555V350.847c0-0.676,0.545-1.224,1.218-1.224h10.612c0.673,0,1.218,0.548,1.218,1.224v111.706
	c0,0.676-0.545,1.224-1.218,1.224h-10.612C266.707,463.779,266.161,463.23,266.161,462.555z"/>
<text transform="matrix(1 0 0 1 268.8645 366.1898)" font-family="'LucidaSansUnicode'" font-size="14">0</text>
<text transform="matrix(1 0 0 1 268.8645 405.2783)" font-family="'LucidaSansUnicode'" font-size="14">0</text>
<text transform="matrix(1 0 0 1 268.8642 386.523)" font-family="'LucidaSansUnicode'" font-size="14">0</text>
<text transform="matrix(1 0 0 1 268.8642 423.5106)" font-family="'LucidaSansUnicode'" font-size="14">0</text>
<text transform="matrix(1 0 0 1 268.864 441.7404)" font-family="'LucidaSansUnicode'" font-size="14">0</text>
<text transform="matrix(1 0 0 1 268.8639 459.3643)" font-family="'LucidaSansUnicode'" font-size="14">0</text>
<g>
	<path fill="#F7D708" d="M86.576,460.51V349.739c0-0.67,0.545-1.214,1.218-1.214h10.612c0.672,0,1.218,0.543,1.218,1.214v110.772
		c0,0.67-0.545,1.214-1.218,1.214H87.795C87.122,461.725,86.576,461.181,86.576,460.51z"/>
</g>
<text transform="matrix(1 0 0 1 89.2796 364.9211)" font-family="'LucidaSansUnicode'" font-size="14">0</text>
<text transform="matrix(1 0 0 1 89.2796 404.0097)" font-family="'LucidaSansUnicode'" font-size="14">0</text>
<text transform="matrix(1 0 0 1 89.2795 385.2544)" fill="#FF0000" font-family="'LucidaSansUnicode'" font-size="14">1</text>
<text transform="matrix(1 0 0 1 89.2793 422.2419)" font-family="'LucidaSansUnicode'" font-size="14">0</text>
<text transform="matrix(1 0 0 1 89.2791 440.472)" font-family="'LucidaSansUnicode'" font-size="14">0</text>
<text transform="matrix(1 0 0 1 89.279 458.0959)" font-family="'LucidaSansUnicode'" font-size="14">0</text>
<g>
	<rect x="447.643" y="20.532" fill="none" stroke="#000000" width="41.988" height="39.244"/>
	<path fill="none" stroke="#000000" stroke-width="1.3998" d="M560.006,40.154"/>
	<line fill="none" stroke="#000000" stroke-width="1.3998" x1="469.637" y1="214.476" x2="648.595" y2="214.476"/>
	<path fill="none" stroke="#000000" stroke-width="1.3998" d="M648.595,213.622"/>
	<line fill="none" stroke="#000000" stroke-width="1.3998" x1="469.637" y1="253.204" x2="469.637" y2="214.476"/>
	<ellipse cx="469.637" cy="273.784" rx="23.401" ry="21.872"/>
	<ellipse fill="none" stroke="#000000" cx="469.637" cy="273.784" rx="23.401" ry="21.872"/>
	<rect x="537.145" y="254.162" width="41.988" height="39.244"/>
	<rect x="537.145" y="254.162" fill="none" stroke="#000000" width="41.988" height="39.244"/>
	<ellipse fill="none" stroke="#000000" cx="648.003" cy="40.154" rx="23.401" ry="21.872"/>
	<line fill="none" stroke="#000000" stroke-width="1.3998" x1="489.922" y1="40.154" x2="624.601" y2="40.154"/>
	<path fill="none" d="M441.307,60.026"/>
	<path fill="none" d="M491.967,18.282"/>
	<path fill="none" stroke="#000000" stroke-width="0.971" d="M441.307,60.026"/>
	<path fill="none" stroke="#000000" stroke-width="0.971" d="M491.967,18.282"/>
	<g>
		<path fill="#007FFF" d="M632.761,185.356V74.585c0-0.67,0.545-1.214,1.218-1.214h10.612c0.672,0,1.218,0.543,1.218,1.214v110.772
			c0,0.67-0.545,1.214-1.218,1.214h-10.612C633.307,186.571,632.761,186.027,632.761,185.356z"/>
		<path fill="#9CCF31" d="M649.595,185.356V74.585c0-0.67,0.545-1.214,1.218-1.214h10.612c0.672,0,1.218,0.543,1.218,1.214v110.772
			c0,0.67-0.545,1.214-1.218,1.214h-10.612C650.14,186.571,649.595,186.027,649.595,185.356z"/>
	</g>
	<g>
		<path fill="#007FFF" d="M451.697,186.302V74.595c0-0.676,0.545-1.224,1.218-1.224h10.612c0.673,0,1.218,0.548,1.218,1.224v111.707
			c0,0.676-0.545,1.224-1.218,1.224h-10.612C452.242,187.526,451.697,186.978,451.697,186.302z"/>
		<path fill="#9CCF31" d="M468.53,186.302V74.595c0-0.676,0.545-1.224,1.218-1.224h10.612c0.672,0,1.218,0.548,1.218,1.224v111.707
			c0,0.676-0.545,1.224-1.218,1.224h-10.612C469.075,187.526,468.53,186.978,468.53,186.302z"/>
	</g>
	<g>
		<path fill="#F7D708" d="M455.775,332.946v-23.588c0-0.143,0.534-0.258,1.192-0.258h10.387c0.658,0,1.192,0.116,1.192,0.258v23.588
			c0,0.143-0.534,0.258-1.192,0.258h-10.387C456.309,333.204,455.775,333.089,455.775,332.946z"/>
		<path fill="#F7D708" d="M470.727,332.946v-23.588c0-0.143,0.534-0.258,1.192-0.258h10.387c0.658,0,1.192,0.116,1.192,0.258v23.588
			c0,0.143-0.534,0.258-1.192,0.258h-10.387C471.261,333.204,470.727,333.089,470.727,332.946z"/>
	</g>
	<g>
		<path fill="#F7D708" d="M544.206,332.946v-23.588c0-0.143,0.534-0.258,1.192-0.258h10.387c0.658,0,1.192,0.116,1.192,0.258v23.588
			c0,0.143-0.534,0.258-1.192,0.258h-10.387C544.74,333.204,544.206,333.089,544.206,332.946z"/>
		<path fill="#F7D708" d="M559.159,332.946v-23.588c0-0.143,0.534-0.258,1.192-0.258h10.387c0.658,0,1.192,0.116,1.192,0.258v23.588
			c0,0.143-0.534,0.258-1.192,0.258h-10.387C559.692,333.204,559.159,333.089,559.159,332.946z"/>
	</g>
	<line fill="none" stroke="#000000" stroke-width="1.3998" x1="557.977" y1="253.208" x2="557.977" y2="214.48"/>
</g>
<text transform="matrix(1 0 0 1 454.3995 89.8578)" font-family="'LucidaSansUnicode'" font-size="14">0</text>
<text transform="matrix(1 0 0 1 454.3995 128.9463)" font-family="'LucidaSansUnicode'" font-size="14">0</text>
<text transform="matrix(1 0 0 1 454.3995 110.1909)" font-family="'LucidaSansUnicode'" font-size="14">0</text>
<text transform="matrix(1 0 0 1 454.3993 147.1786)" font-family="'LucidaSansUnicode'" font-size="14">0</text>
<text transform="matrix(1 0 0 1 454.3991 165.4083)" font-family="'LucidaSansUnicode'" font-size="14">0</text>
<text transform="matrix(1 0 0 1 454.399 183.0322)" fill="#FF0000" font-family="'LucidaSansUnicode'" font-size="14">1</text>
<text transform="matrix(1 0 0 1 471.233 89.9368)" font-family="'LucidaSansUnicode'" font-size="14">0</text>
<text transform="matrix(1 0 0 1 471.233 129.0254)" font-family="'LucidaSansUnicode'" font-size="14">0</text>
<text transform="matrix(1 0 0 1 471.233 110.27)" font-family="'LucidaSansUnicode'" font-size="14">0</text>
<text transform="matrix(1 0 0 1 471.2327 147.2576)" font-family="'LucidaSansUnicode'" font-size="14">0</text>
<text transform="matrix(1 0 0 1 471.2326 165.4874)" font-family="'LucidaSansUnicode'" font-size="14">0</text>
<text transform="matrix(1 0 0 1 471.2324 183.1113)" font-family="'LucidaSansUnicode'" font-size="14">0</text>
<text transform="matrix(1 0 0 1 635.4647 89.7666)" font-family="'LucidaSansUnicode'" font-size="14">0</text>
<text transform="matrix(1 0 0 1 635.4647 128.8551)" font-family="'LucidaSansUnicode'" font-size="14">0</text>
<text transform="matrix(1 0 0 1 635.4646 110.1)" font-family="'LucidaSansUnicode'" font-size="14">0</text>
<text transform="matrix(1 0 0 1 635.4644 147.0874)" font-family="'LucidaSansUnicode'" font-size="14">0</text>
<text transform="matrix(1 0 0 1 635.4642 165.3174)" font-family="'LucidaSansUnicode'" font-size="14">0</text>
<text transform="matrix(1 0 0 1 635.4641 182.9413)" fill="#FF0000" font-family="'LucidaSansUnicode'" font-size="14">1</text>
<text transform="matrix(1 0 0 1 652.0028 89.1893)" font-family="'LucidaSansUnicode'" font-size="14">0</text>
<text transform="matrix(1 0 0 1 652.0028 128.2778)" font-family="'LucidaSansUnicode'" font-size="14">0</text>
<text transform="matrix(1 0 0 1 652.0026 109.5227)" font-family="'LucidaSansUnicode'" font-size="14">0</text>
<text transform="matrix(1 0 0 1 652.0025 146.5101)" font-family="'LucidaSansUnicode'" font-size="14">0</text>
<text transform="matrix(1 0 0 1 652.0023 164.7401)" font-family="'LucidaSansUnicode'" font-size="14">0</text>
<text transform="matrix(1 0 0 1 652.0021 182.364)" font-family="'LucidaSansUnicode'" font-size="14">0</text>
<text transform="matrix(1 0 0 1 457.3992 326.1783)" font-family="'LucidaSansUnicode'" font-size="14">2</text>
<text transform="matrix(1 0 0 1 472.2324 326.1783)" font-family="'LucidaSansUnicode'" font-size="14">2</text>
<text transform="matrix(1 0 0 1 546.3992 326.1783)" font-family="'LucidaSansUnicode'" font-size="14">2</text>
<text transform="matrix(1 0 0 1 561.3992 326.1782)" font-family="'LucidaSansUnicode'" font-size="14">2</text>
<g id="g36470-2-4-2_4_" transform="translate(165.3925,438.40886)">
	<g id="g36466-2-7-1_4_">
		<path id="path2178-0-1-5_4_" sodipodi:nodetypes="cc" fill="none" stroke="#664444" stroke-width="0.5" d="M266.578-307.571
			l11.4,0.23"/>
		<path id="path2176-4-2-3_4_" sodipodi:nodetypes="cccc" fill="none" stroke="#664444" stroke-width="0.5" d="M283.658-251.402
			l-5.562-0.059l-0.032-111.673l5.547-0.249"/>
	</g>
</g>
<g id="g36470-2-4-2_3_" transform="translate(165.3925,438.40886)">
	<g id="g36466-2-7-1_3_">
		<path id="path2178-0-1-5_3_" sodipodi:nodetypes="cc" fill="none" stroke="#664444" stroke-width="0.5" d="M335.115-307.277
			l-11.4-0.23"/>
		<path id="path2176-4-2-3_3_" sodipodi:nodetypes="cccc" fill="none" stroke="#664444" stroke-width="0.5" d="M318.035-363.448
			l5.562,0.059l0.032,111.673l-5.547,0.249"/>
	</g>
</g>
<g id="g36470-2-4-2_2_" transform="translate(165.3925,438.40886)">
	<g id="g36466-2-7-1_2_">
		<path id="path2178-0-1-5_2_" sodipodi:nodetypes="cc" fill="none" stroke="#664444" stroke-width="0.5" d="M516.276-308.099
			l-11.4-0.23"/>
		<path id="path2176-4-2-3_2_" sodipodi:nodetypes="cccc" fill="none" stroke="#664444" stroke-width="0.5" d="M499.196-364.268
			l5.562,0.059l0.032,111.672l-5.547,0.249"/>
	</g>
</g>
<g id="g36470-2-4-2_1_" transform="translate(165.3925,438.40886)">
	<g id="g36466-2-7-1_1_">
		<path id="path2178-0-1-5_1_" sodipodi:nodetypes="cc" fill="none" stroke="#664444" stroke-width="0.5" d="M447.176-308.358
			l11.4,0.23"/>
		<path id="path2176-4-2-3_1_" sodipodi:nodetypes="cccc" fill="none" stroke="#664444" stroke-width="0.5" d="M464.256-252.189
			l-5.562-0.059l-0.032-111.673l5.547-0.249"/>
	</g>
</g>
<path fill="#F7D708" d="M417.841,142.447v-23.588c0-0.143,0.534-0.258,1.192-0.258h10.387c0.658,0,1.192,0.116,1.192,0.258v23.588
	c0,0.143-0.534,0.258-1.192,0.258h-10.387C418.375,142.705,417.841,142.589,417.841,142.447z"/>
<text transform="matrix(1 0 0 1 419.6841 135.6792)" font-family="'LucidaSansUnicode'" font-size="14">2</text>
<path fill="#F7D708" d="M598.362,142.447v-23.588c0-0.143,0.534-0.258,1.192-0.258h10.387c0.658,0,1.192,0.116,1.192,0.258v23.588
	c0,0.143-0.534,0.258-1.192,0.258h-10.387C598.896,142.705,598.362,142.589,598.362,142.447z"/>
<text transform="matrix(1 0 0 1 600.2529 135.6791)" font-family="'LucidaSansUnicode'" font-size="14">2</text>
<path fill="#9CCF31" d="M503.275,142.925v-23.588c0-0.143,0.534-0.258,1.192-0.258h10.387c0.658,0,1.192,0.116,1.192,0.258v23.588
	c0,0.143-0.534,0.258-1.192,0.258h-10.387C503.809,143.184,503.275,143.067,503.275,142.925z"/>
<text transform="matrix(1 0 0 1 504.8992 136.1577)" font-family="'LucidaSansUnicode'" font-size="14">1</text>
<path fill="#9CCF31" d="M683.227,142.925v-23.588c0-0.143,0.534-0.258,1.192-0.258h10.387c0.658,0,1.192,0.116,1.192,0.258v23.588
	c0,0.143-0.534,0.258-1.192,0.258h-10.387C683.761,143.184,683.227,143.067,683.227,142.925z"/>
<text transform="matrix(1 0 0 1 684.7324 136.1577)" font-family="'LucidaSansUnicode'" font-size="14">1</text>
<g>
	<g>
		<path fill="#007FFF" d="M559.744,459.845V349.074c0-0.67,0.545-1.214,1.218-1.214h10.612c0.672,0,1.218,0.543,1.218,1.214v110.772
			c0,0.67-0.545,1.214-1.218,1.214h-10.612C560.289,461.06,559.744,460.516,559.744,459.845z"/>
	</g>
</g>
<text transform="matrix(1 0 0 1 562.4476 364.2567)" font-family="'LucidaSansUnicode'" font-size="14">0</text>
<text transform="matrix(1 0 0 1 562.4476 403.3454)" font-family="'LucidaSansUnicode'" font-size="14">0</text>
<text transform="matrix(1 0 0 1 562.4475 384.59)" font-family="'LucidaSansUnicode'" font-size="14">0</text>
<text transform="matrix(1 0 0 1 562.4473 421.5775)" font-family="'LucidaSansUnicode'" font-size="14">0</text>
<text transform="matrix(1 0 0 1 562.4471 439.8076)" font-family="'LucidaSansUnicode'" font-size="14">0</text>
<text transform="matrix(1 0 0 1 562.447 457.4315)" fill="#FF0000" font-family="'LucidaSansUnicode'" font-size="14">1</text>
<path fill="none" stroke="#000000" stroke-width="0.971" d="M552.659,461.537"/>
<path fill="#007FFF" d="M544.067,460.315V348.607c0-0.676,0.545-1.224,1.218-1.224h10.612c0.672,0,1.218,0.548,1.218,1.224v111.706
	c0,0.676-0.545,1.224-1.218,1.224h-10.612C544.612,461.539,544.067,460.99,544.067,460.315z"/>
<text transform="matrix(1 0 0 1 546.7706 363.8708)" font-family="'LucidaSansUnicode'" font-size="14">0</text>
<text transform="matrix(1 0 0 1 546.7706 402.9593)" font-family="'LucidaSansUnicode'" font-size="14">0</text>
<text transform="matrix(1 0 0 1 546.7705 384.2042)" font-family="'LucidaSansUnicode'" font-size="14">0</text>
<text transform="matrix(1 0 0 1 546.7703 421.1916)" font-family="'LucidaSansUnicode'" font-size="14">0</text>
<text transform="matrix(1 0 0 1 546.7701 439.4217)" font-family="'LucidaSansUnicode'" font-size="14">0</text>
<text transform="matrix(1 0 0 1 546.77 457.0454)" fill="#FF0000" font-family="'LucidaSansUnicode'" font-size="14">1</text>
<path fill="none" stroke="#000000" stroke-width="0.971" d="M464.228,461.046"/>
<path fill="#007FFF" d="M455.636,459.824V348.116c0-0.676,0.545-1.224,1.218-1.224h10.612c0.672,0,1.218,0.548,1.218,1.224v111.706
	c0,0.676-0.545,1.224-1.218,1.224h-10.612C456.181,461.048,455.636,460.499,455.636,459.824z"/>
<text transform="matrix(1 0 0 1 458.3396 363.3798)" font-family="'LucidaSansUnicode'" font-size="14">0</text>
<text transform="matrix(1 0 0 1 458.3396 402.4683)" font-family="'LucidaSansUnicode'" font-size="14">0</text>
<text transform="matrix(1 0 0 1 458.3394 383.7132)" font-family="'LucidaSansUnicode'" font-size="14">0</text>
<text transform="matrix(1 0 0 1 458.3393 420.7006)" font-family="'LucidaSansUnicode'" font-size="14">0</text>
<text transform="matrix(1 0 0 1 458.3391 438.9307)" font-family="'LucidaSansUnicode'" font-size="14">0</text>
<text transform="matrix(1 0 0 1 458.3389 456.5543)" fill="#FF0000" font-family="'LucidaSansUnicode'" font-size="14">1</text>
<path fill="none" d="M682.005,421.952"/>
<g>
	<path fill="#007FFF" d="M470.588,459.347V348.576c0-0.67,0.545-1.214,1.218-1.214h10.612c0.672,0,1.218,0.543,1.218,1.214v110.772
		c0,0.67-0.545,1.214-1.218,1.214h-10.612C471.133,460.562,470.588,460.018,470.588,459.347z"/>
</g>
<text transform="matrix(1 0 0 1 473.2916 363.7583)" font-family="'LucidaSansUnicode'" font-size="14">0</text>
<text transform="matrix(1 0 0 1 473.2916 402.8469)" font-family="'LucidaSansUnicode'" font-size="14">0</text>
<text transform="matrix(1 0 0 1 473.2916 384.0916)" font-family="'LucidaSansUnicode'" font-size="14">0</text>
<text transform="matrix(1 0 0 1 473.2913 421.0791)" font-family="'LucidaSansUnicode'" font-size="14">0</text>
<text transform="matrix(1 0 0 1 473.2911 439.3092)" font-family="'LucidaSansUnicode'" font-size="14">0</text>
<text transform="matrix(1 0 0 1 473.291 456.9331)" fill="#FF0000" font-family="'LucidaSansUnicode'" font-size="14">1</text>
<rect x="627.601" y="254.069" width="41.988" height="39.244"/>
<rect x="627.601" y="254.069" fill="none" stroke="#000000" width="41.988" height="39.244"/>
<g>
	<path fill="#F7D708" d="M634.662,332.853v-23.588c0-0.143,0.534-0.258,1.192-0.258h10.387c0.658,0,1.192,0.116,1.192,0.258v23.588
		c0,0.143-0.534,0.258-1.192,0.258h-10.387C635.196,333.111,634.662,332.996,634.662,332.853z"/>
	<path fill="#F7D708" d="M649.615,332.853v-23.588c0-0.143,0.534-0.258,1.192-0.258h10.387c0.658,0,1.192,0.116,1.192,0.258v23.588
		c0,0.143-0.534,0.258-1.192,0.258h-10.387C650.148,333.111,649.615,332.996,649.615,332.853z"/>
</g>
<line fill="none" stroke="#000000" stroke-width="1.3998" x1="648.433" y1="253.115" x2="648.433" y2="214.387"/>
<text transform="matrix(1 0 0 1 636.8551 326.0853)" font-family="'LucidaSansUnicode'" font-size="14">2</text>
<text transform="matrix(1 0 0 1 651.8551 326.0852)" font-family="'LucidaSansUnicode'" font-size="14">2</text>
<g>
	<g>
		<path fill="#007FFF" d="M650.2,459.752V348.981c0-0.67,0.545-1.214,1.218-1.214h10.612c0.672,0,1.218,0.543,1.218,1.214v110.772
			c0,0.67-0.545,1.214-1.218,1.214h-10.612C650.745,460.967,650.2,460.423,650.2,459.752z"/>
	</g>
</g>
<text transform="matrix(1 0 0 1 652.9036 364.1637)" font-family="'LucidaSansUnicode'" font-size="14">0</text>
<text transform="matrix(1 0 0 1 652.9036 403.2524)" font-family="'LucidaSansUnicode'" font-size="14">0</text>
<text transform="matrix(1 0 0 1 652.9034 384.497)" font-family="'LucidaSansUnicode'" font-size="14">0</text>
<text transform="matrix(1 0 0 1 652.9033 421.4845)" font-family="'LucidaSansUnicode'" font-size="14">0</text>
<text transform="matrix(1 0 0 1 652.9031 439.7146)" font-family="'LucidaSansUnicode'" font-size="14">0</text>
<text transform="matrix(1 0 0 1 652.903 457.3385)" fill="#FF0000" font-family="'LucidaSansUnicode'" font-size="14">1</text>
<path fill="none" stroke="#000000" stroke-width="0.971" d="M643.115,461.444"/>
<path fill="#007FFF" d="M634.523,460.222V348.514c0-0.676,0.545-1.224,1.218-1.224h10.612c0.672,0,1.218,0.548,1.218,1.224V460.22
	c0,0.676-0.545,1.224-1.218,1.224h-10.612C635.068,461.446,634.523,460.897,634.523,460.222z"/>
<text transform="matrix(1 0 0 1 637.2266 363.7778)" font-family="'LucidaSansUnicode'" font-size="14">0</text>
<text transform="matrix(1 0 0 1 637.2266 402.8663)" font-family="'LucidaSansUnicode'" font-size="14">0</text>
<text transform="matrix(1 0 0 1 637.2264 384.1112)" font-family="'LucidaSansUnicode'" font-size="14">0</text>
<text transform="matrix(1 0 0 1 637.2263 421.0986)" font-family="'LucidaSansUnicode'" font-size="14">0</text>
<text transform="matrix(1 0 0 1 637.2261 439.3287)" font-family="'LucidaSansUnicode'" font-size="14">0</text>
<text transform="matrix(1 0 0 1 637.226 456.9524)" fill="#FF0000" font-family="'LucidaSansUnicode'" font-size="14">1</text>
<line fill="none" stroke="#000000" stroke-width="1.3998" x1="558.008" y1="213.866" x2="557.947" y2="40.703"/>
<line fill="none" stroke="#000000" stroke-width="1.3998" x1="85.828" y1="214.643" x2="264.786" y2="214.643"/>
<line fill="none" stroke="#000000" stroke-width="1.3998" x1="173.995" y1="213.607" x2="173.934" y2="40.444"/>
<g>
	<path fill="#9CCF31" d="M251.119,334.109v-23.588c0-0.143,0.534-0.258,1.192-0.258h10.387c0.658,0,1.192,0.116,1.192,0.258v23.588
		c0,0.143-0.534,0.258-1.192,0.258h-10.387C251.652,334.367,251.119,334.252,251.119,334.109z"/>
</g>
<text transform="matrix(1 0 0 1 253.0334 327.3411)" font-family="'LucidaSansUnicode'" font-size="14">1</text>
<g>
	<path fill="#F7D708" d="M249.167,462.196"/>
	<path fill="#F7D708" d="M249.167,350.49"/>
</g>
<path fill="#9CCF31" d="M251.203,462.555V350.847c0-0.676,0.545-1.224,1.218-1.224h10.612c0.673,0,1.218,0.548,1.218,1.224v111.706
	c0,0.676-0.545,1.224-1.218,1.224h-10.612C251.749,463.779,251.203,463.23,251.203,462.555z"/>
<text transform="matrix(1 0 0 1 253.9073 366.1898)" font-family="'LucidaSansUnicode'" font-size="14">0</text>
<text transform="matrix(1 0 0 1 253.9073 405.2783)" font-family="'LucidaSansUnicode'" font-size="14">0</text>
<text transform="matrix(1 0 0 1 253.907 386.523)" font-family="'LucidaSansUnicode'" font-size="14">0</text>
<text transform="matrix(1 0 0 1 253.907 423.5106)" font-family="'LucidaSansUnicode'" font-size="14">0</text>
<text transform="matrix(1 0 0 1 253.9068 441.7404)" font-family="'LucidaSansUnicode'" font-size="14">0</text>
<text transform="matrix(1 0 0 1 253.9067 459.3643)" font-family="'LucidaSansUnicode'" font-size="14">0</text>
</svg>
