<?xml version="1.0" encoding="utf-8"?>
<!-- Generator: Adobe Illustrator 17.0.0, SVG Export Plug-In . SVG Version: 6.00 Build 0)  -->
<!DOCTYPE svg PUBLIC "-//W3C//DTD SVG 1.1//EN" "http://www.w3.org/Graphics/SVG/1.1/DTD/svg11.dtd">
<svg version="1.1"
	 id="svg2" xmlns:sodipodi="http://inkscape.sourceforge.net/DTD/sodipodi-0.dtd" xmlns:rdf="http://www.w3.org/1999/02/22-rdf-syntax-ns#" xmlns:inkscape="http://www.inkscape.org/namespaces/inkscape" xmlns:svg="http://www.w3.org/2000/svg" xmlns:cc="http://web.resource.org/cc/" xmlns:dc="http://purl.org/dc/elements/1.1/" inkscape:export-ydpi="90.000000" inkscape:export-xdpi="90.000000" inkscape:export-filename="/project/rosalyn/Biology/Summer1/LabsLectures/Images/pedigreechartA.png" sodipodi:docname="pedigreechart1.svg" inkscape:version="0.41.1" sodipodi:docbase="/project/rosalyn/Biology/Summer1/LabsLectures/Images" sodipodi:version="0.32"
	 xmlns="http://www.w3.org/2000/svg" xmlns:xlink="http://www.w3.org/1999/xlink" x="0px" y="0px" width="864px" height="472px"
	 viewBox="-29 0 864 472" enable-background="new -29 0 864 472" xml:space="preserve">
<sodipodi:namedview  pagecolor="#ffffff" inkscape:cy="526.18109" id="base" inkscape:zoom="0.72503556" showgrid="true" borderopacity="1.0" bordercolor="#666666" inkscape:cx="372.04723" inkscape:current-layer="layer1" inkscape:window-y="0" inkscape:document-units="px" inkscape:window-x="0" inkscape:window-height="943" inkscape:window-width="1273" inkscape:pageshadow="2" inkscape:pageopacity="0.0">
	</sodipodi:namedview>
<sodipodi:namedview  pagecolor="#ffffff" inkscape:cy="526.18109" id="base" inkscape:zoom="0.72503556" showgrid="true" borderopacity="1.0" bordercolor="#666666" inkscape:cx="372.04723" inkscape:current-layer="layer1" inkscape:window-y="0" inkscape:document-units="px" inkscape:window-x="0" inkscape:window-height="943" inkscape:window-width="1273" inkscape:pageshadow="2" inkscape:pageopacity="0.0">
	</sodipodi:namedview>
<sodipodi:namedview  pagecolor="#ffffff" inkscape:cy="526.18109" id="base" inkscape:zoom="0.72503556" showgrid="true" borderopacity="1.0" bordercolor="#666666" inkscape:cx="372.04723" inkscape:current-layer="layer1" inkscape:window-y="0" inkscape:document-units="px" inkscape:window-x="0" inkscape:window-height="943" inkscape:window-width="1273" inkscape:pageshadow="2" inkscape:pageopacity="0.0">
	</sodipodi:namedview>
<g>
	<g>
		<rect x="63.382" y="20.884" fill="none" stroke="#000000" width="41.988" height="39.244"/>
		<line fill="none" stroke="#000000" stroke-width="1.3998" x1="175.96" y1="214.832" x2="175.746" y2="40.506"/>
		<path fill="none" stroke="#000000" stroke-width="1.3998" d="M363.012,215.404"/>
		<path fill="none" stroke="#000000" stroke-width="1.3998" d="M-0.599,214.828"/>
		<line fill="none" stroke="#000000" stroke-width="1.3998" x1="266.578" y1="255.723" x2="266.578" y2="213.974"/>
		<line fill="none" stroke="#000000" stroke-width="1.3998" x1="87.62" y1="253.556" x2="87.62" y2="214.828"/>
		<line fill="none" stroke="#000000" stroke-width="1.3998" x1="-0.599" y1="252.251" x2="-0.599" y2="213.669"/>
		<ellipse fill="none" stroke="#000000" cx="-0.599" cy="273.906" rx="23.401" ry="21.872"/>
		<ellipse cx="87.62" cy="274.136" rx="23.401" ry="21.872"/>
		<ellipse fill="none" stroke="#000000" cx="87.62" cy="274.136" rx="23.401" ry="21.872"/>
		<rect x="155.128" y="254.514" width="41.988" height="39.244"/>
		<rect x="155.128" y="254.514" fill="none" stroke="#000000" width="41.988" height="39.244"/>
		<rect x="245.584" y="255.514" fill="none" stroke="#000000" width="41.988" height="39.244"/>
		<ellipse fill="none" stroke="#000000" cx="263.742" cy="40.506" rx="23.401" ry="21.872"/>
		<line fill="none" stroke="#000000" stroke-width="1.3998" x1="105.661" y1="40.506" x2="240.34" y2="40.506"/>
		<path fill="none" d="M57.046,60.378"/>
		<path fill="none" d="M107.706,18.634"/>
		<path fill="none" stroke="#000000" stroke-width="0.971" d="M57.046,60.378"/>
		<path fill="none" stroke="#000000" stroke-width="0.971" d="M107.706,18.634"/>
		<g>
			<path fill="#AF88FF" d="M248.5,185.708V74.937c0-0.67,0.545-1.214,1.218-1.214h10.612c0.672,0,1.218,0.543,1.218,1.214v110.772
				c0,0.67-0.545,1.214-1.218,1.214h-10.612C249.046,186.923,248.5,186.379,248.5,185.708z"/>
			<path fill="#9CCF31" d="M265.334,185.708V74.937c0-0.67,0.545-1.214,1.218-1.214h10.612c0.672,0,1.218,0.543,1.218,1.214v110.772
				c0,0.67-0.545,1.214-1.218,1.214h-10.612C265.879,186.923,265.334,186.379,265.334,185.708z"/>
		</g>
		<g>
			<path fill="#FF9300" d="M67.436,186.654V74.947c0-0.676,0.545-1.224,1.218-1.224h10.612c0.673,0,1.218,0.548,1.218,1.224v111.707
				c0,0.676-0.545,1.224-1.218,1.224H68.654C67.981,187.878,67.436,187.33,67.436,186.654z"/>
			<path fill="#9CCF31" d="M84.269,186.654V74.947c0-0.676,0.545-1.224,1.218-1.224h10.612c0.672,0,1.218,0.548,1.218,1.224v111.707
				c0,0.676-0.545,1.224-1.218,1.224H85.487C84.814,187.878,84.269,187.33,84.269,186.654z"/>
		</g>
		<g>
			<path fill="#AF88FF" d="M253.12,333.298V309.71c0-0.143,0.534-0.258,1.192-0.258h10.387c0.658,0,1.192,0.116,1.192,0.258v23.588
				c0,0.143-0.534,0.258-1.192,0.258h-10.387C253.653,333.556,253.12,333.441,253.12,333.298z"/>
			<path fill="#9CCF31" d="M268.072,333.298V309.71c0-0.143,0.534-0.258,1.192-0.258h10.387c0.658,0,1.192,0.116,1.192,0.258v23.588
				c0,0.143-0.534,0.258-1.192,0.258h-10.387C268.605,333.556,268.072,333.441,268.072,333.298z"/>
		</g>
		<g>
			<path fill="#9CCF31" d="M-14.461,333.298V309.71c0-0.143,0.534-0.258,1.192-0.258h10.387c0.658,0,1.192,0.116,1.192,0.258v23.588
				c0,0.143-0.534,0.258-1.192,0.258h-10.387C-13.927,333.556-14.461,333.441-14.461,333.298z"/>
			<path fill="#AF88FF" d="M0.491,333.298V309.71c0-0.143,0.534-0.258,1.192-0.258H12.07c0.658,0,1.192,0.116,1.192,0.258v23.588
				c0,0.143-0.534,0.258-1.192,0.258H1.683C1.025,333.556,0.491,333.441,0.491,333.298z"/>
		</g>
		<g>
			<path fill="#AF88FF" d="M73.758,333.298V309.71c0-0.143,0.534-0.258,1.192-0.258h10.387c0.658,0,1.192,0.116,1.192,0.258v23.588
				c0,0.143-0.534,0.258-1.192,0.258H74.95C74.292,333.556,73.758,333.441,73.758,333.298z"/>
			<path fill="#AF88FF" d="M88.71,333.298V309.71c0-0.143,0.534-0.258,1.192-0.258h10.387c0.658,0,1.192,0.116,1.192,0.258v23.588
				c0,0.143-0.534,0.258-1.192,0.258H89.902C89.244,333.556,88.71,333.441,88.71,333.298z"/>
		</g>
		<g>
			<path fill="#AF88FF" d="M162.189,333.298V309.71c0-0.143,0.534-0.258,1.192-0.258h10.387c0.658,0,1.192,0.116,1.192,0.258v23.588
				c0,0.143-0.534,0.258-1.192,0.258h-10.387C162.723,333.556,162.189,333.441,162.189,333.298z"/>
			<path fill="#AF88FF" d="M177.142,333.298V309.71c0-0.143,0.534-0.258,1.192-0.258h10.387c0.658,0,1.192,0.116,1.192,0.258v23.588
				c0,0.143-0.534,0.258-1.192,0.258h-10.387C177.675,333.556,177.142,333.441,177.142,333.298z"/>
		</g>
		<line fill="none" stroke="#000000" stroke-width="1.3998" x1="175.96" y1="253.56" x2="175.96" y2="214.832"/>
	</g>
	<text transform="matrix(1 0 0 1 70.139 90.2096)" fill="#FF0000" font-family="'LucidaSansUnicode'" font-size="14">1</text>
	<text transform="matrix(1 0 0 1 70.139 129.2981)" fill="#FF0000" font-family="'LucidaSansUnicode'" font-size="14">1</text>
	<text transform="matrix(1 0 0 1 70.1389 110.5427)" font-family="'LucidaSansUnicode'" font-size="14">0</text>
	<text transform="matrix(1 0 0 1 70.1387 147.5304)" font-family="'LucidaSansUnicode'" font-size="14">0</text>
	<text transform="matrix(1 0 0 1 70.1385 165.7601)" font-family="'LucidaSansUnicode'" font-size="14">0</text>
	<text transform="matrix(1 0 0 1 70.1384 183.384)" font-family="'LucidaSansUnicode'" font-size="14">0</text>
	<text transform="matrix(1 0 0 1 86.9725 90.2885)" font-family="'LucidaSansUnicode'" font-size="14">0</text>
	<text transform="matrix(1 0 0 1 86.9725 129.3772)" font-family="'LucidaSansUnicode'" font-size="14">0</text>
	<text transform="matrix(1 0 0 1 86.9724 110.6218)" font-family="'LucidaSansUnicode'" font-size="14">0</text>
	<text transform="matrix(1 0 0 1 86.9722 147.6093)" font-family="'LucidaSansUnicode'" font-size="14">0</text>
	<text transform="matrix(1 0 0 1 86.972 165.8392)" font-family="'LucidaSansUnicode'" font-size="14">0</text>
	<text transform="matrix(1 0 0 1 86.9719 183.4631)" font-family="'LucidaSansUnicode'" font-size="14">0</text>
	<text transform="matrix(1 0 0 1 251.2041 90.1184)" font-family="'LucidaSansUnicode'" font-size="14">0</text>
	<text transform="matrix(1 0 0 1 251.2041 129.2069)" font-family="'LucidaSansUnicode'" font-size="14">0</text>
	<text transform="matrix(1 0 0 1 251.204 110.4517)" fill="#FF0000" font-family="'LucidaSansUnicode'" font-size="14">1</text>
	<text transform="matrix(1 0 0 1 251.2039 147.4392)" fill="#FF0000" font-family="'LucidaSansUnicode'" font-size="14">1</text>
	<text transform="matrix(1 0 0 1 251.2036 165.6692)" fill="#FF0000" font-family="'LucidaSansUnicode'" font-size="14">1</text>
	<text transform="matrix(1 0 0 1 251.2035 183.2931)" fill="#FF0000" font-family="'LucidaSansUnicode'" font-size="14">1</text>
	<text transform="matrix(1 0 0 1 267.7422 89.5411)" font-family="'LucidaSansUnicode'" font-size="14">0</text>
	<text transform="matrix(1 0 0 1 267.7422 128.6296)" font-family="'LucidaSansUnicode'" font-size="14">0</text>
	<text transform="matrix(1 0 0 1 267.7421 109.8745)" font-family="'LucidaSansUnicode'" font-size="14">0</text>
	<text transform="matrix(1 0 0 1 267.7419 146.8619)" font-family="'LucidaSansUnicode'" font-size="14">0</text>
	<text transform="matrix(1 0 0 1 267.7417 165.0919)" font-family="'LucidaSansUnicode'" font-size="14">0</text>
	<text transform="matrix(1 0 0 1 267.7416 182.7158)" font-family="'LucidaSansUnicode'" font-size="14">0</text>
	<text transform="matrix(1 0 0 1 -12.6173 326.5302)" font-family="'LucidaSansUnicode'" font-size="14">1</text>
	<text transform="matrix(1 0 0 1 2.3827 326.5301)" font-family="'LucidaSansUnicode'" font-size="14">2</text>
	<text transform="matrix(1 0 0 1 75.3827 326.5301)" font-family="'LucidaSansUnicode'" font-size="14">2</text>
	<text transform="matrix(1 0 0 1 90.2159 326.5301)" font-family="'LucidaSansUnicode'" font-size="14">2</text>
	<text transform="matrix(1 0 0 1 164.3827 326.5301)" font-family="'LucidaSansUnicode'" font-size="14">2</text>
	<text transform="matrix(1 0 0 1 179.3827 326.53)" font-family="'LucidaSansUnicode'" font-size="14">2</text>
	<text transform="matrix(1 0 0 1 254.9159 326.5301)" font-family="'LucidaSansUnicode'" font-size="14">2</text>
	<text transform="matrix(1 0 0 1 269.9861 326.5301)" font-family="'LucidaSansUnicode'" font-size="14">1</text>
	<g id="g36470-2-4-2_9_" transform="translate(165.3925,438.40886)">
		<g id="g36466-2-7-1_9_">
			<path id="path2178-0-1-5_9_" sodipodi:nodetypes="cc" fill="none" stroke="#664444" stroke-width="0.5" d="M-117.683-307.219
				l11.4,0.23"/>
			<path id="path2176-4-2-3_9_" sodipodi:nodetypes="cccc" fill="none" stroke="#664444" stroke-width="0.5" d="M-100.603-251.05
				l-5.562-0.059l-0.032-111.673l5.547-0.249"/>
		</g>
	</g>
	<g id="g36470-2-4-2_8_" transform="translate(165.3925,438.40886)">
		<g id="g36466-2-7-1_8_">
			<path id="path2178-0-1-5_8_" sodipodi:nodetypes="cc" fill="none" stroke="#664444" stroke-width="0.5" d="M-49.146-306.925
				l-11.4-0.23"/>
			<path id="path2176-4-2-3_8_" sodipodi:nodetypes="cccc" fill="none" stroke="#664444" stroke-width="0.5" d="M-66.226-363.096
				l5.562,0.059l0.032,111.673l-5.547,0.249"/>
		</g>
	</g>
	<g id="g36470-2-4-2_7_" transform="translate(165.3925,438.40886)">
		<g id="g36466-2-7-1_7_">
			<path id="path2178-0-1-5_7_" sodipodi:nodetypes="cc" fill="none" stroke="#664444" stroke-width="0.5" d="M132.015-307.747
				l-11.4-0.23"/>
			<path id="path2176-4-2-3_7_" sodipodi:nodetypes="cccc" fill="none" stroke="#664444" stroke-width="0.5" d="M114.935-363.916
				l5.562,0.059l0.032,111.672l-5.547,0.249"/>
		</g>
	</g>
	<g id="g36470-2-4-2_6_" transform="translate(165.3925,438.40886)">
		<g id="g36466-2-7-1_6_">
			<path id="path2178-0-1-5_6_" sodipodi:nodetypes="cc" fill="none" stroke="#664444" stroke-width="0.5" d="M62.915-308.006
				l11.4,0.23"/>
			<path id="path2176-4-2-3_6_" sodipodi:nodetypes="cccc" fill="none" stroke="#664444" stroke-width="0.5" d="M79.995-251.837
				l-5.562-0.059l-0.032-111.673l5.547-0.249"/>
		</g>
	</g>
	<path fill="#AF88FF" d="M33.58,142.799v-23.588c0-0.143,0.534-0.258,1.192-0.258h10.387c0.658,0,1.192,0.116,1.192,0.258v23.588
		c0,0.143-0.534,0.258-1.192,0.258H34.772C34.114,143.057,33.58,142.941,33.58,142.799z"/>
	<text transform="matrix(1 0 0 1 35.4235 136.031)" font-family="'LucidaSansUnicode'" font-size="14">2</text>
	<path fill="#AF88FF" d="M214.101,142.799v-23.588c0-0.143,0.534-0.258,1.192-0.258h10.387c0.658,0,1.192,0.116,1.192,0.258v23.588
		c0,0.143-0.534,0.258-1.192,0.258h-10.387C214.635,143.057,214.101,142.941,214.101,142.799z"/>
	<text transform="matrix(1 0 0 1 215.9924 136.0309)" font-family="'LucidaSansUnicode'" font-size="14">2</text>
	<path fill="#9CCF31" d="M119.014,143.277v-23.588c0-0.143,0.534-0.258,1.192-0.258h10.387c0.658,0,1.192,0.116,1.192,0.258v23.588
		c0,0.143-0.534,0.258-1.192,0.258h-10.387C119.548,143.536,119.014,143.419,119.014,143.277z"/>
	<text transform="matrix(1 0 0 1 120.6387 136.5095)" font-family="'LucidaSansUnicode'" font-size="14">1</text>
	<path fill="#9CCF31" d="M298.966,143.277v-23.588c0-0.143,0.534-0.258,1.192-0.258h10.387c0.658,0,1.192,0.116,1.192,0.258v23.588
		c0,0.143-0.534,0.258-1.192,0.258h-10.387C299.5,143.536,298.966,143.419,298.966,143.277z"/>
	<text transform="matrix(1 0 0 1 300.4719 136.5095)" font-family="'LucidaSansUnicode'" font-size="14">1</text>
	<g>
		<path fill="none" d="M15.132,423.378"/>
		<path fill="none" stroke="#000000" stroke-width="0.971" d="M261.664,462.609"/>
		<g>
			<path fill="#AF88FF" d="M177.727,460.667V349.896c0-0.67,0.545-1.214,1.218-1.214h10.612c0.672,0,1.218,0.543,1.218,1.214
				v110.772c0,0.67-0.545,1.214-1.218,1.214h-10.612C178.272,461.882,177.727,461.338,177.727,460.667z"/>
		</g>
		<g>
			<path fill="#FF9300" d="M253.072,461.387V349.679c0-0.676,0.545-1.224,1.218-1.224h10.612c0.672,0,1.218,0.548,1.218,1.224
				v111.706c0,0.676-0.545,1.224-1.218,1.224H254.29C253.617,462.611,253.072,462.062,253.072,461.387z"/>
			<path fill="#9CCF31" d="M-15.7,459.818V348.11c0-0.676,0.545-1.224,1.218-1.224H-3.87c0.673,0,1.218,0.548,1.218,1.224v111.706
				c0,0.676-0.545,1.224-1.218,1.224h-10.612C-15.154,461.042-15.7,460.493-15.7,459.818z"/>
		</g>
	</g>
	<text transform="matrix(1 0 0 1 255.775 364.9422)" fill="#FF0000" font-family="'LucidaSansUnicode'" font-size="14">1</text>
	<text transform="matrix(1 0 0 1 255.775 404.0307)" fill="#FF0000" font-family="'LucidaSansUnicode'" font-size="14">1</text>
	<text transform="matrix(1 0 0 1 255.7749 385.2755)" font-family="'LucidaSansUnicode'" font-size="14">0</text>
	<text transform="matrix(1 0 0 1 255.7748 422.263)" font-family="'LucidaSansUnicode'" font-size="14">0</text>
	<text transform="matrix(1 0 0 1 255.7745 440.4931)" font-family="'LucidaSansUnicode'" font-size="14">0</text>
	<text transform="matrix(1 0 0 1 255.7745 458.1167)" font-family="'LucidaSansUnicode'" font-size="14">0</text>
	<text transform="matrix(1 0 0 1 -12.996 363.4522)" font-family="'LucidaSansUnicode'" font-size="14">0</text>
	<text transform="matrix(1 0 0 1 -12.996 402.5407)" font-family="'LucidaSansUnicode'" font-size="14">0</text>
	<text transform="matrix(1 0 0 1 -12.9962 383.7856)" font-family="'LucidaSansUnicode'" font-size="14">0</text>
	<text transform="matrix(1 0 0 1 -12.9963 420.773)" font-family="'LucidaSansUnicode'" font-size="14">0</text>
	<text transform="matrix(1 0 0 1 -12.9965 439.0029)" font-family="'LucidaSansUnicode'" font-size="14">0</text>
	<text transform="matrix(1 0 0 1 -12.9966 456.6268)" font-family="'LucidaSansUnicode'" font-size="14">0</text>
	<text transform="matrix(1 0 0 1 180.431 365.0781)" font-family="'LucidaSansUnicode'" font-size="14">0</text>
	<text transform="matrix(1 0 0 1 180.431 404.1667)" font-family="'LucidaSansUnicode'" font-size="14">0</text>
	<text transform="matrix(1 0 0 1 180.431 385.4114)" fill="#FF0000" font-family="'LucidaSansUnicode'" font-size="14">1</text>
	<text transform="matrix(1 0 0 1 180.4307 422.3989)" fill="#FF0000" font-family="'LucidaSansUnicode'" font-size="14">1</text>
	<text transform="matrix(1 0 0 1 180.4305 440.6289)" fill="#FF0000" font-family="'LucidaSansUnicode'" font-size="14">1</text>
	<text transform="matrix(1 0 0 1 180.4304 458.2528)" fill="#FF0000" font-family="'LucidaSansUnicode'" font-size="14">1</text>
	<path fill="none" stroke="#000000" stroke-width="0.971" d="M170.643,461.889"/>
	<path fill="#FF9300" d="M162.051,460.667V348.959c0-0.676,0.545-1.224,1.218-1.224h10.612c0.672,0,1.218,0.548,1.218,1.224v111.706
		c0,0.676-0.545,1.224-1.218,1.224h-10.612C162.596,461.891,162.051,461.342,162.051,460.667z"/>
	<text transform="matrix(1 0 0 1 164.754 364.2226)" fill="#FF0000" font-family="'LucidaSansUnicode'" font-size="14">1</text>
	<text transform="matrix(1 0 0 1 164.754 403.3111)" fill="#FF0000" font-family="'LucidaSansUnicode'" font-size="14">1</text>
	<text transform="matrix(1 0 0 1 164.754 384.556)" font-family="'LucidaSansUnicode'" font-size="14">0</text>
	<text transform="matrix(1 0 0 1 164.7538 421.5434)" font-family="'LucidaSansUnicode'" font-size="14">0</text>
	<text transform="matrix(1 0 0 1 164.7535 439.7735)" font-family="'LucidaSansUnicode'" font-size="14">0</text>
	<text transform="matrix(1 0 0 1 164.7535 457.3972)" font-family="'LucidaSansUnicode'" font-size="14">0</text>
	<path fill="none" stroke="#000000" stroke-width="0.971" d="M82.211,461.398"/>
	<path fill="#FF9300" d="M73.619,460.176V348.468c0-0.676,0.545-1.224,1.218-1.224h10.612c0.672,0,1.218,0.548,1.218,1.224v111.706
		c0,0.676-0.545,1.224-1.218,1.224H74.837C74.165,461.4,73.619,460.851,73.619,460.176z"/>
	<text transform="matrix(1 0 0 1 76.323 363.7317)" fill="#FF0000" font-family="'LucidaSansUnicode'" font-size="14">1</text>
	<text transform="matrix(1 0 0 1 76.323 402.8202)" fill="#FF0000" font-family="'LucidaSansUnicode'" font-size="14">1</text>
	<text transform="matrix(1 0 0 1 76.3229 384.065)" font-family="'LucidaSansUnicode'" font-size="14">0</text>
	<text transform="matrix(1 0 0 1 76.3227 421.0525)" font-family="'LucidaSansUnicode'" font-size="14">0</text>
	<text transform="matrix(1 0 0 1 76.3225 439.2826)" font-family="'LucidaSansUnicode'" font-size="14">0</text>
	<text transform="matrix(1 0 0 1 76.3224 456.9062)" font-family="'LucidaSansUnicode'" font-size="14">0</text>
	<path fill="#9CCF31" d="M268.156,461.744V350.036c0-0.676,0.545-1.224,1.218-1.224h10.612c0.673,0,1.218,0.548,1.218,1.224v111.706
		c0,0.676-0.545,1.224-1.218,1.224h-10.612C268.702,462.968,268.156,462.419,268.156,461.744z"/>
	<text transform="matrix(1 0 0 1 270.86 365.3788)" font-family="'LucidaSansUnicode'" font-size="14">0</text>
	<text transform="matrix(1 0 0 1 270.86 404.4673)" font-family="'LucidaSansUnicode'" font-size="14">0</text>
	<text transform="matrix(1 0 0 1 270.8597 385.712)" font-family="'LucidaSansUnicode'" font-size="14">0</text>
	<text transform="matrix(1 0 0 1 270.8597 422.6996)" font-family="'LucidaSansUnicode'" font-size="14">0</text>
	<text transform="matrix(1 0 0 1 270.8595 440.9294)" font-family="'LucidaSansUnicode'" font-size="14">0</text>
	<text transform="matrix(1 0 0 1 270.8594 458.5533)" font-family="'LucidaSansUnicode'" font-size="14">0</text>
	<g>
		<path fill="#AF88FF" d="M88.572,459.699V348.928c0-0.67,0.545-1.214,1.218-1.214h10.612c0.672,0,1.218,0.543,1.218,1.214V459.7
			c0,0.67-0.545,1.214-1.218,1.214H89.79C89.117,460.914,88.572,460.37,88.572,459.699z"/>
	</g>
	<text transform="matrix(1 0 0 1 91.2751 364.1101)" font-family="'LucidaSansUnicode'" font-size="14">0</text>
	<text transform="matrix(1 0 0 1 91.2751 403.1987)" font-family="'LucidaSansUnicode'" font-size="14">0</text>
	<text transform="matrix(1 0 0 1 91.275 384.4434)" fill="#FF0000" font-family="'LucidaSansUnicode'" font-size="14">1</text>
	<text transform="matrix(1 0 0 1 91.2748 421.4309)" fill="#FF0000" font-family="'LucidaSansUnicode'" font-size="14">1</text>
	<text transform="matrix(1 0 0 1 91.2746 439.661)" fill="#FF0000" font-family="'LucidaSansUnicode'" font-size="14">1</text>
	<text transform="matrix(1 0 0 1 91.2745 457.2849)" fill="#FF0000" font-family="'LucidaSansUnicode'" font-size="14">1</text>
	<g>
		<path fill="#AF88FF" d="M0.352,459.59V348.819c0-0.67,0.545-1.214,1.218-1.214h10.612c0.672,0,1.218,0.543,1.218,1.214v110.772
			c0,0.67-0.545,1.214-1.218,1.214H1.57C0.897,460.805,0.352,460.261,0.352,459.59z"/>
	</g>
	<text transform="matrix(1 0 0 1 3.056 364.0016)" font-family="'LucidaSansUnicode'" font-size="14">0</text>
	<text transform="matrix(1 0 0 1 3.056 403.0902)" font-family="'LucidaSansUnicode'" font-size="14">0</text>
	<text transform="matrix(1 0 0 1 3.056 384.3349)" fill="#FF0000" font-family="'LucidaSansUnicode'" font-size="14">1</text>
	<text transform="matrix(1 0 0 1 3.0557 421.3224)" fill="#FF0000" font-family="'LucidaSansUnicode'" font-size="14">1</text>
	<text transform="matrix(1 0 0 1 3.0555 439.5525)" fill="#FF0000" font-family="'LucidaSansUnicode'" font-size="14">1</text>
	<text transform="matrix(1 0 0 1 3.0554 457.1764)" fill="#FF0000" font-family="'LucidaSansUnicode'" font-size="14">1</text>
	<path fill="none" stroke="#000000" stroke-width="1.3998" d="M355.607,213.1"/>
	<path fill="none" stroke="#000000" stroke-width="1.3998" d="M355.607,249.828"/>
	<rect x="334.613" y="255.186" width="41.988" height="39.244"/>
	<rect x="334.613" y="255.186" fill="none" stroke="#000000" width="41.988" height="39.244"/>
	<g>
		<path fill="#AF88FF" d="M341.382,333.618l0.593-23.581c0.004-0.143,0.54-0.244,1.198-0.228l10.384,0.261
			c0.658,0.017,1.189,0.146,1.185,0.288l-0.593,23.581c-0.004,0.143-0.54,0.244-1.198,0.228l-10.384-0.261
			C341.909,333.889,341.378,333.761,341.382,333.618z"/>
		<path fill="#AF88FF" d="M356.33,333.994l0.593-23.581c0.004-0.143,0.54-0.244,1.198-0.228l10.384,0.261
			c0.658,0.017,1.189,0.146,1.185,0.288l-0.593,23.581c-0.004,0.143-0.54,0.244-1.198,0.228l-10.384-0.261
			C356.856,334.265,356.326,334.137,356.33,333.994z"/>
	</g>
	<line fill="none" stroke="#000000" stroke-width="1.3998" x1="355.445" y1="254.232" x2="355.607" y2="213.1"/>
	<text transform="matrix(1 0 0 1 343.8677 327.2021)" font-family="'LucidaSansUnicode'" font-size="14">2</text>
	<text transform="matrix(1 0 0 1 358.8677 327.202)" font-family="'LucidaSansUnicode'" font-size="14">2</text>
	<g>
		<path fill="#AF88FF" d="M357.212,461.339V350.568c0-0.67,0.545-1.214,1.218-1.214h10.612c0.672,0,1.218,0.543,1.218,1.214V461.34
			c0,0.67-0.545,1.214-1.218,1.214H358.43C357.757,462.554,357.212,462.01,357.212,461.339z"/>
	</g>
	<text transform="matrix(1 0 0 1 359.916 365.7501)" font-family="'LucidaSansUnicode'" font-size="14">0</text>
	<text transform="matrix(1 0 0 1 359.916 404.8387)" font-family="'LucidaSansUnicode'" font-size="14">0</text>
	<text transform="matrix(1 0 0 1 359.916 386.0834)" fill="#FF0000" font-family="'LucidaSansUnicode'" font-size="14">1</text>
	<text transform="matrix(1 0 0 1 359.9157 423.0709)" fill="#FF0000" font-family="'LucidaSansUnicode'" font-size="14">1</text>
	<text transform="matrix(1 0 0 1 359.9155 441.3009)" fill="#FF0000" font-family="'LucidaSansUnicode'" font-size="14">1</text>
	<text transform="matrix(1 0 0 1 359.9154 458.9248)" fill="#FF0000" font-family="'LucidaSansUnicode'" font-size="14">1</text>
	<path fill="none" stroke="#000000" stroke-width="0.971" d="M350.128,462.561"/>
	<path fill="#FF9300" d="M341.536,461.339V349.631c0-0.676,0.545-1.224,1.218-1.224h10.612c0.672,0,1.218,0.548,1.218,1.224v111.706
		c0,0.676-0.545,1.224-1.218,1.224h-10.612C342.081,462.563,341.536,462.014,341.536,461.339z"/>
	<text transform="matrix(1 0 0 1 344.239 364.8946)" fill="#FF0000" font-family="'LucidaSansUnicode'" font-size="14">1</text>
	<text transform="matrix(1 0 0 1 344.239 403.9831)" fill="#FF0000" font-family="'LucidaSansUnicode'" font-size="14">1</text>
	<text transform="matrix(1 0 0 1 344.239 385.228)" font-family="'LucidaSansUnicode'" font-size="14">0</text>
	<text transform="matrix(1 0 0 1 344.2388 422.2154)" font-family="'LucidaSansUnicode'" font-size="14">0</text>
	<text transform="matrix(1 0 0 1 344.2385 440.4455)" font-family="'LucidaSansUnicode'" font-size="14">0</text>
	<text transform="matrix(1 0 0 1 344.2385 458.0692)" font-family="'LucidaSansUnicode'" font-size="14">0</text>
	<line fill="none" stroke="#000000" stroke-width="1.3998" x1="-0.599" y1="213.669" x2="355.607" y2="213.1"/>
</g>
<g>
	<g>
		<rect x="507.831" y="20.884" fill="none" stroke="#000000" width="41.988" height="39.244"/>
		<line fill="none" stroke="#000000" stroke-width="1.3998" x1="620.409" y1="214.832" x2="620.195" y2="40.506"/>
		<path fill="none" stroke="#000000" stroke-width="1.3998" d="M807.461,215.404"/>
		<path fill="none" stroke="#000000" stroke-width="1.3998" d="M443.85,214.828"/>
		<line fill="none" stroke="#000000" stroke-width="1.3998" x1="711.027" y1="255.723" x2="711.027" y2="213.974"/>
		<line fill="none" stroke="#000000" stroke-width="1.3998" x1="532.069" y1="253.556" x2="532.069" y2="214.828"/>
		<line fill="none" stroke="#000000" stroke-width="1.3998" x1="443.85" y1="252.251" x2="443.85" y2="213.669"/>
		<ellipse fill="none" stroke="#000000" cx="443.85" cy="273.906" rx="23.401" ry="21.872"/>
		<ellipse cx="532.069" cy="274.136" rx="23.401" ry="21.872"/>
		<ellipse fill="none" stroke="#000000" cx="532.069" cy="274.136" rx="23.401" ry="21.872"/>
		<rect x="599.577" y="254.514" width="41.988" height="39.244"/>
		<rect x="599.577" y="254.514" fill="none" stroke="#000000" width="41.988" height="39.244"/>
		<rect x="690.033" y="255.514" fill="none" stroke="#000000" width="41.988" height="39.244"/>
		<ellipse fill="none" stroke="#000000" cx="708.191" cy="40.506" rx="23.401" ry="21.872"/>
		<line fill="none" stroke="#000000" stroke-width="1.3998" x1="550.11" y1="40.506" x2="684.789" y2="40.506"/>
		<path fill="none" d="M501.495,60.378"/>
		<path fill="none" d="M552.155,18.634"/>
		<path fill="none" stroke="#000000" stroke-width="0.971" d="M501.495,60.378"/>
		<path fill="none" stroke="#000000" stroke-width="0.971" d="M552.155,18.634"/>
		<g>
			<path fill="#AF88FF" d="M692.949,185.708V74.937c0-0.67,0.545-1.214,1.218-1.214h10.612c0.672,0,1.218,0.543,1.218,1.214v110.772
				c0,0.67-0.545,1.214-1.218,1.214h-10.612C693.495,186.923,692.949,186.379,692.949,185.708z"/>
			<path fill="#9CCF31" d="M709.783,185.708V74.937c0-0.67,0.545-1.214,1.218-1.214h10.612c0.672,0,1.218,0.543,1.218,1.214v110.772
				c0,0.67-0.545,1.214-1.218,1.214h-10.612C710.328,186.923,709.783,186.379,709.783,185.708z"/>
		</g>
		<g>
			<path fill="#FF9300" d="M511.885,186.654V74.947c0-0.676,0.545-1.224,1.218-1.224h10.612c0.673,0,1.218,0.548,1.218,1.224
				v111.707c0,0.676-0.545,1.224-1.218,1.224h-10.612C512.43,187.878,511.885,187.33,511.885,186.654z"/>
			<path fill="#9CCF31" d="M528.718,186.654V74.947c0-0.676,0.545-1.224,1.218-1.224h10.612c0.672,0,1.218,0.548,1.218,1.224
				v111.707c0,0.676-0.545,1.224-1.218,1.224h-10.612C529.263,187.878,528.718,187.33,528.718,186.654z"/>
		</g>
		<g>
			<path fill="#FF9300" d="M697.569,333.298V309.71c0-0.143,0.534-0.258,1.192-0.258h10.387c0.658,0,1.192,0.116,1.192,0.258v23.588
				c0,0.143-0.534,0.258-1.192,0.258h-10.387C698.102,333.556,697.569,333.441,697.569,333.298z"/>
			<path fill="#9CCF31" d="M712.521,333.298V309.71c0-0.143,0.534-0.258,1.192-0.258H724.1c0.658,0,1.192,0.116,1.192,0.258v23.588
				c0,0.143-0.534,0.258-1.192,0.258h-10.387C713.054,333.556,712.521,333.441,712.521,333.298z"/>
		</g>
		<g>
			<path fill="#9CCF31" d="M429.988,333.298V309.71c0-0.143,0.534-0.258,1.192-0.258h10.387c0.658,0,1.192,0.116,1.192,0.258v23.588
				c0,0.143-0.534,0.258-1.192,0.258H431.18C430.522,333.556,429.988,333.441,429.988,333.298z"/>
			<path fill="#AF88FF" d="M444.94,333.298V309.71c0-0.143,0.534-0.258,1.192-0.258h10.387c0.658,0,1.192,0.116,1.192,0.258v23.588
				c0,0.143-0.534,0.258-1.192,0.258h-10.387C445.474,333.556,444.94,333.441,444.94,333.298z"/>
		</g>
		<g>
			<path fill="#FF9300" d="M518.207,333.298V309.71c0-0.143,0.534-0.258,1.192-0.258h10.387c0.658,0,1.192,0.116,1.192,0.258v23.588
				c0,0.143-0.534,0.258-1.192,0.258h-10.387C518.741,333.556,518.207,333.441,518.207,333.298z"/>
			<path fill="#AF88FF" d="M533.159,333.298V309.71c0-0.143,0.534-0.258,1.192-0.258h10.387c0.658,0,1.192,0.116,1.192,0.258v23.588
				c0,0.143-0.534,0.258-1.192,0.258h-10.387C533.693,333.556,533.159,333.441,533.159,333.298z"/>
		</g>
		<g>
			<path fill="#FF9300" d="M606.638,333.298V309.71c0-0.143,0.534-0.258,1.192-0.258h10.387c0.658,0,1.192,0.116,1.192,0.258v23.588
				c0,0.143-0.534,0.258-1.192,0.258H607.83C607.172,333.556,606.638,333.441,606.638,333.298z"/>
			<path fill="#AF88FF" d="M621.591,333.298V309.71c0-0.143,0.534-0.258,1.192-0.258h10.387c0.658,0,1.192,0.116,1.192,0.258v23.588
				c0,0.143-0.534,0.258-1.192,0.258h-10.387C622.124,333.556,621.591,333.441,621.591,333.298z"/>
		</g>
		<line fill="none" stroke="#000000" stroke-width="1.3998" x1="620.409" y1="253.56" x2="620.409" y2="214.832"/>
	</g>
	<text transform="matrix(1 0 0 1 514.588 90.2096)" fill="#FF0000" font-family="'LucidaSansUnicode'" font-size="14">1</text>
	<text transform="matrix(1 0 0 1 514.588 129.2981)" fill="#FF0000" font-family="'LucidaSansUnicode'" font-size="14">1</text>
	<text transform="matrix(1 0 0 1 514.5879 110.5427)" font-family="'LucidaSansUnicode'" font-size="14">0</text>
	<text transform="matrix(1 0 0 1 514.5876 147.5304)" font-family="'LucidaSansUnicode'" font-size="14">0</text>
	<text transform="matrix(1 0 0 1 514.5875 165.7601)" font-family="'LucidaSansUnicode'" font-size="14">0</text>
	<text transform="matrix(1 0 0 1 514.5874 183.384)" font-family="'LucidaSansUnicode'" font-size="14">0</text>
	<text transform="matrix(1 0 0 1 531.4215 90.2885)" font-family="'LucidaSansUnicode'" font-size="14">0</text>
	<text transform="matrix(1 0 0 1 531.4215 129.3772)" font-family="'LucidaSansUnicode'" font-size="14">0</text>
	<text transform="matrix(1 0 0 1 531.4214 110.6218)" font-family="'LucidaSansUnicode'" font-size="14">0</text>
	<text transform="matrix(1 0 0 1 531.4211 147.6093)" font-family="'LucidaSansUnicode'" font-size="14">0</text>
	<text transform="matrix(1 0 0 1 531.421 165.8392)" font-family="'LucidaSansUnicode'" font-size="14">0</text>
	<text transform="matrix(1 0 0 1 531.4209 183.4631)" font-family="'LucidaSansUnicode'" font-size="14">0</text>
	<text transform="matrix(1 0 0 1 695.653 90.1184)" font-family="'LucidaSansUnicode'" font-size="14">0</text>
	<text transform="matrix(1 0 0 1 695.653 129.2069)" font-family="'LucidaSansUnicode'" font-size="14">0</text>
	<text transform="matrix(1 0 0 1 695.6529 110.4517)" fill="#FF0000" font-family="'LucidaSansUnicode'" font-size="14">1</text>
	<text transform="matrix(1 0 0 1 695.6528 147.4392)" fill="#FF0000" font-family="'LucidaSansUnicode'" font-size="14">1</text>
	<text transform="matrix(1 0 0 1 695.6525 165.6692)" fill="#FF0000" font-family="'LucidaSansUnicode'" font-size="14">1</text>
	<text transform="matrix(1 0 0 1 695.6524 183.2931)" fill="#FF0000" font-family="'LucidaSansUnicode'" font-size="14">1</text>
	<text transform="matrix(1 0 0 1 712.1911 89.5411)" font-family="'LucidaSansUnicode'" font-size="14">0</text>
	<text transform="matrix(1 0 0 1 712.1911 128.6296)" font-family="'LucidaSansUnicode'" font-size="14">0</text>
	<text transform="matrix(1 0 0 1 712.191 109.8745)" font-family="'LucidaSansUnicode'" font-size="14">0</text>
	<text transform="matrix(1 0 0 1 712.1909 146.8619)" font-family="'LucidaSansUnicode'" font-size="14">0</text>
	<text transform="matrix(1 0 0 1 712.1906 165.0919)" font-family="'LucidaSansUnicode'" font-size="14">0</text>
	<text transform="matrix(1 0 0 1 712.1906 182.7158)" font-family="'LucidaSansUnicode'" font-size="14">0</text>
	<text transform="matrix(1 0 0 1 431.8317 326.5302)" font-family="'LucidaSansUnicode'" font-size="14">1</text>
	<text transform="matrix(1 0 0 1 446.8317 326.5301)" font-family="'LucidaSansUnicode'" font-size="14">2</text>
	<text transform="matrix(1 0 0 1 519.8317 326.5301)" font-family="'LucidaSansUnicode'" font-size="14">3</text>
	<text transform="matrix(1 0 0 1 534.6649 326.5301)" font-family="'LucidaSansUnicode'" font-size="14">2</text>
	<text transform="matrix(1 0 0 1 608.8317 326.5301)" font-family="'LucidaSansUnicode'" font-size="14">3</text>
	<text transform="matrix(1 0 0 1 623.8317 326.53)" font-family="'LucidaSansUnicode'" font-size="14">2</text>
	<text transform="matrix(1 0 0 1 699.3648 326.5301)" font-family="'LucidaSansUnicode'" font-size="14">3</text>
	<text transform="matrix(1 0 0 1 714.435 326.5301)" font-family="'LucidaSansUnicode'" font-size="14">1</text>
	<g id="g36470-2-4-2_4_" transform="translate(165.3925,438.40886)">
		<g id="g36466-2-7-1_4_">
			<path id="path2178-0-1-5_4_" sodipodi:nodetypes="cc" fill="none" stroke="#664444" stroke-width="0.5" d="M326.766-307.219
				l11.4,0.23"/>
			<path id="path2176-4-2-3_4_" sodipodi:nodetypes="cccc" fill="none" stroke="#664444" stroke-width="0.5" d="M343.846-251.05
				l-5.562-0.059l-0.032-111.673l5.547-0.249"/>
		</g>
	</g>
	<g id="g36470-2-4-2_3_" transform="translate(165.3925,438.40886)">
		<g id="g36466-2-7-1_3_">
			<path id="path2178-0-1-5_3_" sodipodi:nodetypes="cc" fill="none" stroke="#664444" stroke-width="0.5" d="M395.303-306.925
				l-11.4-0.23"/>
			<path id="path2176-4-2-3_3_" sodipodi:nodetypes="cccc" fill="none" stroke="#664444" stroke-width="0.5" d="M378.223-363.096
				l5.562,0.059l0.032,111.673l-5.547,0.249"/>
		</g>
	</g>
	<g id="g36470-2-4-2_2_" transform="translate(165.3925,438.40886)">
		<g id="g36466-2-7-1_2_">
			<path id="path2178-0-1-5_2_" sodipodi:nodetypes="cc" fill="none" stroke="#664444" stroke-width="0.5" d="M576.464-307.747
				l-11.4-0.23"/>
			<path id="path2176-4-2-3_2_" sodipodi:nodetypes="cccc" fill="none" stroke="#664444" stroke-width="0.5" d="M559.384-363.916
				l5.562,0.059l0.032,111.672l-5.547,0.249"/>
		</g>
	</g>
	<g id="g36470-2-4-2_1_" transform="translate(165.3925,438.40886)">
		<g id="g36466-2-7-1_1_">
			<path id="path2178-0-1-5_1_" sodipodi:nodetypes="cc" fill="none" stroke="#664444" stroke-width="0.5" d="M507.364-308.006
				l11.4,0.23"/>
			<path id="path2176-4-2-3_1_" sodipodi:nodetypes="cccc" fill="none" stroke="#664444" stroke-width="0.5" d="M524.444-251.837
				l-5.562-0.059l-0.032-111.673l5.547-0.249"/>
		</g>
	</g>
	<path fill="#FF9300" d="M478.029,142.799v-23.588c0-0.143,0.534-0.258,1.192-0.258h10.387c0.658,0,1.192,0.116,1.192,0.258v23.588
		c0,0.143-0.534,0.258-1.192,0.258h-10.387C478.563,143.057,478.029,142.941,478.029,142.799z"/>
	<text transform="matrix(1 0 0 1 479.8725 136.031)" font-family="'LucidaSansUnicode'" font-size="14">3</text>
	<path fill="#AF88FF" d="M658.55,142.799v-23.588c0-0.143,0.534-0.258,1.192-0.258h10.387c0.658,0,1.192,0.116,1.192,0.258v23.588
		c0,0.143-0.534,0.258-1.192,0.258h-10.387C659.084,143.057,658.55,142.941,658.55,142.799z"/>
	<text transform="matrix(1 0 0 1 660.4413 136.0309)" font-family="'LucidaSansUnicode'" font-size="14">2</text>
	<path fill="#9CCF31" d="M563.463,143.277v-23.588c0-0.143,0.534-0.258,1.192-0.258h10.387c0.658,0,1.192,0.116,1.192,0.258v23.588
		c0,0.143-0.534,0.258-1.192,0.258h-10.387C563.997,143.536,563.463,143.419,563.463,143.277z"/>
	<text transform="matrix(1 0 0 1 565.0876 136.5095)" font-family="'LucidaSansUnicode'" font-size="14">1</text>
	<path fill="#9CCF31" d="M743.415,143.277v-23.588c0-0.143,0.534-0.258,1.192-0.258h10.387c0.658,0,1.192,0.116,1.192,0.258v23.588
		c0,0.143-0.534,0.258-1.192,0.258h-10.387C743.949,143.536,743.415,143.419,743.415,143.277z"/>
	<text transform="matrix(1 0 0 1 744.9208 136.5095)" font-family="'LucidaSansUnicode'" font-size="14">1</text>
	<g>
		<path fill="none" d="M459.581,423.378"/>
		<path fill="none" stroke="#000000" stroke-width="0.971" d="M706.113,462.609"/>
		<g>
			<path fill="#AF88FF" d="M622.176,460.667V349.896c0-0.67,0.545-1.214,1.218-1.214h10.612c0.672,0,1.218,0.543,1.218,1.214
				v110.772c0,0.67-0.545,1.214-1.218,1.214h-10.612C622.721,461.882,622.176,461.338,622.176,460.667z"/>
		</g>
		<g>
			<path fill="#FF9300" d="M697.521,461.387V349.679c0-0.676,0.545-1.224,1.218-1.224h10.612c0.672,0,1.218,0.548,1.218,1.224
				v111.706c0,0.676-0.545,1.224-1.218,1.224h-10.612C698.066,462.611,697.521,462.062,697.521,461.387z"/>
			<path fill="#9CCF31" d="M428.749,459.818V348.11c0-0.676,0.545-1.224,1.218-1.224h10.612c0.673,0,1.218,0.548,1.218,1.224
				v111.706c0,0.676-0.545,1.224-1.218,1.224h-10.612C429.295,461.042,428.749,460.493,428.749,459.818z"/>
		</g>
	</g>
	<text transform="matrix(1 0 0 1 700.2239 364.9422)" fill="#FF0000" font-family="'LucidaSansUnicode'" font-size="14">1</text>
	<text transform="matrix(1 0 0 1 700.2239 404.0307)" fill="#FF0000" font-family="'LucidaSansUnicode'" font-size="14">1</text>
	<text transform="matrix(1 0 0 1 700.2238 385.2755)" font-family="'LucidaSansUnicode'" font-size="14">0</text>
	<text transform="matrix(1 0 0 1 700.2237 422.263)" font-family="'LucidaSansUnicode'" font-size="14">0</text>
	<text transform="matrix(1 0 0 1 700.2234 440.4931)" font-family="'LucidaSansUnicode'" font-size="14">0</text>
	<text transform="matrix(1 0 0 1 700.2234 458.1167)" font-family="'LucidaSansUnicode'" font-size="14">0</text>
	<text transform="matrix(1 0 0 1 431.453 363.4522)" font-family="'LucidaSansUnicode'" font-size="14">0</text>
	<text transform="matrix(1 0 0 1 431.453 402.5407)" font-family="'LucidaSansUnicode'" font-size="14">0</text>
	<text transform="matrix(1 0 0 1 431.4528 383.7856)" font-family="'LucidaSansUnicode'" font-size="14">0</text>
	<text transform="matrix(1 0 0 1 431.4527 420.773)" font-family="'LucidaSansUnicode'" font-size="14">0</text>
	<text transform="matrix(1 0 0 1 431.4525 439.0029)" font-family="'LucidaSansUnicode'" font-size="14">0</text>
	<text transform="matrix(1 0 0 1 431.4524 456.6268)" font-family="'LucidaSansUnicode'" font-size="14">0</text>
	<text transform="matrix(1 0 0 1 624.8799 365.0781)" font-family="'LucidaSansUnicode'" font-size="14">0</text>
	<text transform="matrix(1 0 0 1 624.8799 404.1667)" font-family="'LucidaSansUnicode'" font-size="14">0</text>
	<text transform="matrix(1 0 0 1 624.8799 385.4114)" fill="#FF0000" font-family="'LucidaSansUnicode'" font-size="14">1</text>
	<text transform="matrix(1 0 0 1 624.8797 422.3989)" fill="#FF0000" font-family="'LucidaSansUnicode'" font-size="14">1</text>
	<text transform="matrix(1 0 0 1 624.8795 440.6289)" fill="#FF0000" font-family="'LucidaSansUnicode'" font-size="14">1</text>
	<text transform="matrix(1 0 0 1 624.8794 458.2528)" fill="#FF0000" font-family="'LucidaSansUnicode'" font-size="14">1</text>
	<path fill="none" stroke="#000000" stroke-width="0.971" d="M615.092,461.889"/>
	<path fill="#FF9300" d="M606.5,460.667V348.959c0-0.676,0.545-1.224,1.218-1.224h10.612c0.672,0,1.218,0.548,1.218,1.224v111.706
		c0,0.676-0.545,1.224-1.218,1.224h-10.612C607.045,461.891,606.5,461.342,606.5,460.667z"/>
	<text transform="matrix(1 0 0 1 609.2029 364.2226)" fill="#FF0000" font-family="'LucidaSansUnicode'" font-size="14">1</text>
	<text transform="matrix(1 0 0 1 609.2029 403.3111)" fill="#FF0000" font-family="'LucidaSansUnicode'" font-size="14">1</text>
	<text transform="matrix(1 0 0 1 609.2029 384.556)" font-family="'LucidaSansUnicode'" font-size="14">0</text>
	<text transform="matrix(1 0 0 1 609.2028 421.5434)" font-family="'LucidaSansUnicode'" font-size="14">0</text>
	<text transform="matrix(1 0 0 1 609.2025 439.7735)" font-family="'LucidaSansUnicode'" font-size="14">0</text>
	<text transform="matrix(1 0 0 1 609.2025 457.3972)" font-family="'LucidaSansUnicode'" font-size="14">0</text>
	<path fill="none" stroke="#000000" stroke-width="0.971" d="M526.66,461.398"/>
	<path fill="#FF9300" d="M518.068,460.176V348.468c0-0.676,0.545-1.224,1.218-1.224h10.612c0.672,0,1.218,0.548,1.218,1.224v111.706
		c0,0.676-0.545,1.224-1.218,1.224h-10.612C518.614,461.4,518.068,460.851,518.068,460.176z"/>
	<text transform="matrix(1 0 0 1 520.772 363.7317)" fill="#FF0000" font-family="'LucidaSansUnicode'" font-size="14">1</text>
	<text transform="matrix(1 0 0 1 520.772 402.8202)" fill="#FF0000" font-family="'LucidaSansUnicode'" font-size="14">1</text>
	<text transform="matrix(1 0 0 1 520.7719 384.065)" font-family="'LucidaSansUnicode'" font-size="14">0</text>
	<text transform="matrix(1 0 0 1 520.7717 421.0525)" font-family="'LucidaSansUnicode'" font-size="14">0</text>
	<text transform="matrix(1 0 0 1 520.7715 439.2826)" font-family="'LucidaSansUnicode'" font-size="14">0</text>
	<text transform="matrix(1 0 0 1 520.7714 456.9062)" font-family="'LucidaSansUnicode'" font-size="14">0</text>
	<path fill="#9CCF31" d="M712.605,461.744V350.036c0-0.676,0.545-1.224,1.218-1.224h10.612c0.673,0,1.218,0.548,1.218,1.224v111.706
		c0,0.676-0.545,1.224-1.218,1.224h-10.612C713.151,462.968,712.605,462.419,712.605,461.744z"/>
	<text transform="matrix(1 0 0 1 715.3089 365.3788)" font-family="'LucidaSansUnicode'" font-size="14">0</text>
	<text transform="matrix(1 0 0 1 715.3089 404.4673)" font-family="'LucidaSansUnicode'" font-size="14">0</text>
	<text transform="matrix(1 0 0 1 715.3086 385.712)" font-family="'LucidaSansUnicode'" font-size="14">0</text>
	<text transform="matrix(1 0 0 1 715.3086 422.6996)" font-family="'LucidaSansUnicode'" font-size="14">0</text>
	<text transform="matrix(1 0 0 1 715.3084 440.9294)" font-family="'LucidaSansUnicode'" font-size="14">0</text>
	<text transform="matrix(1 0 0 1 715.3083 458.5533)" font-family="'LucidaSansUnicode'" font-size="14">0</text>
	<g>
		<path fill="#AF88FF" d="M533.021,459.699V348.928c0-0.67,0.545-1.214,1.218-1.214h10.612c0.672,0,1.218,0.543,1.218,1.214V459.7
			c0,0.67-0.545,1.214-1.218,1.214h-10.612C533.566,460.914,533.021,460.37,533.021,459.699z"/>
	</g>
	<text transform="matrix(1 0 0 1 535.7241 364.1101)" font-family="'LucidaSansUnicode'" font-size="14">0</text>
	<text transform="matrix(1 0 0 1 535.7241 403.1987)" font-family="'LucidaSansUnicode'" font-size="14">0</text>
	<text transform="matrix(1 0 0 1 535.724 384.4434)" fill="#FF0000" font-family="'LucidaSansUnicode'" font-size="14">1</text>
	<text transform="matrix(1 0 0 1 535.7238 421.4309)" fill="#FF0000" font-family="'LucidaSansUnicode'" font-size="14">1</text>
	<text transform="matrix(1 0 0 1 535.7236 439.661)" fill="#FF0000" font-family="'LucidaSansUnicode'" font-size="14">1</text>
	<text transform="matrix(1 0 0 1 535.7235 457.2849)" fill="#FF0000" font-family="'LucidaSansUnicode'" font-size="14">1</text>
	<g>
		<path fill="#AF88FF" d="M444.801,459.59V348.819c0-0.67,0.545-1.214,1.218-1.214h10.612c0.672,0,1.218,0.543,1.218,1.214v110.772
			c0,0.67-0.545,1.214-1.218,1.214h-10.612C445.346,460.805,444.801,460.261,444.801,459.59z"/>
	</g>
	<text transform="matrix(1 0 0 1 447.505 364.0016)" font-family="'LucidaSansUnicode'" font-size="14">0</text>
	<text transform="matrix(1 0 0 1 447.505 403.0902)" font-family="'LucidaSansUnicode'" font-size="14">0</text>
	<text transform="matrix(1 0 0 1 447.505 384.3349)" fill="#FF0000" font-family="'LucidaSansUnicode'" font-size="14">1</text>
	<text transform="matrix(1 0 0 1 447.5047 421.3224)" fill="#FF0000" font-family="'LucidaSansUnicode'" font-size="14">1</text>
	<text transform="matrix(1 0 0 1 447.5045 439.5525)" fill="#FF0000" font-family="'LucidaSansUnicode'" font-size="14">1</text>
	<text transform="matrix(1 0 0 1 447.5044 457.1764)" fill="#FF0000" font-family="'LucidaSansUnicode'" font-size="14">1</text>
	<path fill="none" stroke="#000000" stroke-width="1.3998" d="M800.056,213.1"/>
	<path fill="none" stroke="#000000" stroke-width="1.3998" d="M800.056,249.828"/>
	<rect x="779.062" y="255.186" width="41.988" height="39.244"/>
	<rect x="779.062" y="255.186" fill="none" stroke="#000000" width="41.988" height="39.244"/>
	<g>
		<path fill="#FF9300" d="M785.831,333.618l0.593-23.581c0.004-0.143,0.54-0.244,1.198-0.228l10.384,0.261
			c0.658,0.017,1.189,0.146,1.185,0.288l-0.593,23.581c-0.004,0.143-0.54,0.244-1.198,0.228l-10.384-0.261
			C786.358,333.889,785.827,333.761,785.831,333.618z"/>
		<path fill="#AF88FF" d="M800.779,333.994l0.593-23.581c0.004-0.143,0.54-0.244,1.198-0.228l10.384,0.261
			c0.658,0.017,1.189,0.146,1.185,0.288l-0.593,23.581c-0.004,0.143-0.54,0.244-1.198,0.228l-10.384-0.261
			C801.305,334.265,800.775,334.137,800.779,333.994z"/>
	</g>
	<line fill="none" stroke="#000000" stroke-width="1.3998" x1="799.894" y1="254.232" x2="800.056" y2="213.1"/>
	<text transform="matrix(1 0 0 1 788.3167 327.2021)" font-family="'LucidaSansUnicode'" font-size="14">3</text>
	<text transform="matrix(1 0 0 1 803.3167 327.202)" font-family="'LucidaSansUnicode'" font-size="14">2</text>
	<g>
		<path fill="#AF88FF" d="M801.661,461.339V350.568c0-0.67,0.545-1.214,1.218-1.214h10.612c0.672,0,1.218,0.543,1.218,1.214V461.34
			c0,0.67-0.545,1.214-1.218,1.214h-10.612C802.206,462.554,801.661,462.01,801.661,461.339z"/>
	</g>
	<text transform="matrix(1 0 0 1 804.3649 365.7501)" font-family="'LucidaSansUnicode'" font-size="14">0</text>
	<text transform="matrix(1 0 0 1 804.3649 404.8387)" font-family="'LucidaSansUnicode'" font-size="14">0</text>
	<text transform="matrix(1 0 0 1 804.3649 386.0834)" fill="#FF0000" font-family="'LucidaSansUnicode'" font-size="14">1</text>
	<text transform="matrix(1 0 0 1 804.3646 423.0709)" fill="#FF0000" font-family="'LucidaSansUnicode'" font-size="14">1</text>
	<text transform="matrix(1 0 0 1 804.3644 441.3009)" fill="#FF0000" font-family="'LucidaSansUnicode'" font-size="14">1</text>
	<text transform="matrix(1 0 0 1 804.3643 458.9248)" fill="#FF0000" font-family="'LucidaSansUnicode'" font-size="14">1</text>
	<path fill="none" stroke="#000000" stroke-width="0.971" d="M794.577,462.561"/>
	<path fill="#FF9300" d="M785.985,461.339V349.631c0-0.676,0.545-1.224,1.218-1.224h10.612c0.672,0,1.218,0.548,1.218,1.224v111.706
		c0,0.676-0.545,1.224-1.218,1.224h-10.612C786.53,462.563,785.985,462.014,785.985,461.339z"/>
	<text transform="matrix(1 0 0 1 788.6879 364.8946)" fill="#FF0000" font-family="'LucidaSansUnicode'" font-size="14">1</text>
	<text transform="matrix(1 0 0 1 788.6879 403.9831)" fill="#FF0000" font-family="'LucidaSansUnicode'" font-size="14">1</text>
	<text transform="matrix(1 0 0 1 788.6879 385.228)" font-family="'LucidaSansUnicode'" font-size="14">0</text>
	<text transform="matrix(1 0 0 1 788.6877 422.2154)" font-family="'LucidaSansUnicode'" font-size="14">0</text>
	<text transform="matrix(1 0 0 1 788.6874 440.4455)" font-family="'LucidaSansUnicode'" font-size="14">0</text>
	<text transform="matrix(1 0 0 1 788.6874 458.0692)" font-family="'LucidaSansUnicode'" font-size="14">0</text>
	<line fill="none" stroke="#000000" stroke-width="1.3998" x1="443.85" y1="213.669" x2="800.056" y2="213.1"/>
</g>
</svg>
