<?xml version="1.0" encoding="utf-8"?>
<!-- Generator: Adobe Illustrator 17.0.0, SVG Export Plug-In . SVG Version: 6.00 Build 0)  -->
<!DOCTYPE svg PUBLIC "-//W3C//DTD SVG 1.1//EN" "http://www.w3.org/Graphics/SVG/1.1/DTD/svg11.dtd">
<svg version="1.1"
	 id="svg2" xmlns:sodipodi="http://inkscape.sourceforge.net/DTD/sodipodi-0.dtd" xmlns:rdf="http://www.w3.org/1999/02/22-rdf-syntax-ns#" xmlns:inkscape="http://www.inkscape.org/namespaces/inkscape" xmlns:svg="http://www.w3.org/2000/svg" xmlns:cc="http://web.resource.org/cc/" xmlns:dc="http://purl.org/dc/elements/1.1/" sodipodi:version="0.32" sodipodi:docbase="/project/rosalyn/Biology/Summer1/LabsLectures/Images" inkscape:version="0.41.1" sodipodi:docname="pedigreechart1.svg" inkscape:export-filename="/project/rosalyn/Biology/Summer1/LabsLectures/Images/pedigreechartA.png" inkscape:export-xdpi="90.000000" inkscape:export-ydpi="90.000000"
	 xmlns="http://www.w3.org/2000/svg" xmlns:xlink="http://www.w3.org/1999/xlink" x="0px" y="0px" width="735px" height="472px"
	 viewBox="0 0 735 472" enable-background="new 0 0 735 472" xml:space="preserve">
<sodipodi:namedview  inkscape:zoom="0.72503556" borderopacity="1.0" inkscape:cx="372.04723" pagecolor="#ffffff" bordercolor="#666666" inkscape:cy="526.18109" showgrid="true" id="base" inkscape:pageopacity="0.0" inkscape:pageshadow="2" inkscape:window-width="1273" inkscape:window-height="943" inkscape:window-x="0" inkscape:document-units="px" inkscape:window-y="0" inkscape:current-layer="layer1">
	</sodipodi:namedview>
<sodipodi:namedview  inkscape:zoom="0.72503556" borderopacity="1.0" inkscape:cx="372.04723" pagecolor="#ffffff" bordercolor="#666666" inkscape:cy="526.18109" showgrid="true" id="base" inkscape:pageopacity="0.0" inkscape:pageshadow="2" inkscape:window-width="1273" inkscape:window-height="943" inkscape:window-x="0" inkscape:document-units="px" inkscape:window-y="0" inkscape:current-layer="layer1">
	</sodipodi:namedview>
<sodipodi:namedview  inkscape:zoom="0.72503556" borderopacity="1.0" inkscape:cx="372.04723" pagecolor="#ffffff" bordercolor="#666666" inkscape:cy="526.18109" showgrid="true" id="base" inkscape:pageopacity="0.0" inkscape:pageshadow="2" inkscape:window-width="1273" inkscape:window-height="943" inkscape:window-x="0" inkscape:document-units="px" inkscape:window-y="0" inkscape:current-layer="layer1">
	</sodipodi:namedview>
<g>
	<rect x="60.816" y="20.127" fill="none" stroke="#000000" width="41.988" height="39.244"/>
	<line fill="none" stroke="#000000" stroke-width="1.3998" x1="173.241" y1="212.912" x2="173.18" y2="39.749"/>
	<line fill="none" stroke="#000000" stroke-width="1.3998" x1="39.591" y1="214.071" x2="306.768" y2="214.071"/>
	<line fill="none" stroke="#000000" stroke-width="1.3998" x1="306.768" y1="253.966" x2="306.768" y2="213.217"/>
	<line fill="none" stroke="#000000" stroke-width="1.3998" x1="127.81" y1="252.799" x2="127.81" y2="214.071"/>
	<line fill="none" stroke="#000000" stroke-width="1.3998" x1="39.591" y1="251.494" x2="39.591" y2="212.912"/>
	<ellipse fill="none" stroke="#000000" cx="39.591" cy="273.149" rx="23.401" ry="21.872"/>
	<ellipse cx="127.81" cy="273.379" rx="23.401" ry="21.872"/>
	<ellipse fill="none" stroke="#000000" cx="127.81" cy="273.379" rx="23.401" ry="21.872"/>
	<rect x="195.318" y="253.757" width="41.988" height="39.244"/>
	<rect x="195.318" y="253.757" fill="none" stroke="#000000" width="41.988" height="39.244"/>
	<rect x="285.774" y="253.757" fill="none" stroke="#000000" width="41.988" height="39.244"/>
	<ellipse fill="none" stroke="#000000" cx="261.176" cy="39.749" rx="23.401" ry="21.872"/>
	<line fill="none" stroke="#000000" stroke-width="1.3998" x1="103.095" y1="39.749" x2="237.774" y2="39.749"/>
	<path fill="none" d="M54.48,59.621"/>
	<path fill="none" d="M105.14,17.877"/>
	<path fill="none" stroke="#000000" stroke-width="0.971" d="M54.48,59.621"/>
	<path fill="none" stroke="#000000" stroke-width="0.971" d="M105.14,17.877"/>
	<g>
		<path fill="#F7D708" d="M245.934,184.951V74.18c0-0.67,0.545-1.214,1.218-1.214h10.612c0.672,0,1.218,0.543,1.218,1.214v110.772
			c0,0.67-0.545,1.214-1.218,1.214h-10.612C246.48,186.166,245.934,185.622,245.934,184.951z"/>
		<path fill="#9CCF31" d="M262.768,184.951V74.18c0-0.67,0.545-1.214,1.218-1.214h10.612c0.672,0,1.218,0.543,1.218,1.214v110.772
			c0,0.67-0.545,1.214-1.218,1.214h-10.612C263.313,186.166,262.768,185.622,262.768,184.951z"/>
	</g>
	<g>
		<path fill="#F7D708" d="M64.87,185.897V74.19c0-0.676,0.545-1.224,1.218-1.224H76.7c0.673,0,1.218,0.548,1.218,1.224v111.707
			c0,0.676-0.545,1.224-1.218,1.224H66.088C65.415,187.121,64.87,186.573,64.87,185.897z"/>
		<path fill="#9CCF31" d="M81.703,185.897V74.19c0-0.676,0.545-1.224,1.218-1.224h10.612c0.672,0,1.218,0.548,1.218,1.224v111.707
			c0,0.676-0.545,1.224-1.218,1.224H82.921C82.248,187.121,81.703,186.573,81.703,185.897z"/>
	</g>
	<g>
		<path fill="#F7D708" d="M293.31,332.541v-23.588c0-0.143,0.534-0.258,1.192-0.258h10.387c0.658,0,1.192,0.116,1.192,0.258v23.588
			c0,0.143-0.534,0.258-1.192,0.258h-10.387C293.843,332.799,293.31,332.684,293.31,332.541z"/>
		<path fill="#9CCF31" d="M308.262,332.541v-23.588c0-0.143,0.534-0.258,1.192-0.258h10.387c0.658,0,1.192,0.116,1.192,0.258v23.588
			c0,0.143-0.534,0.258-1.192,0.258h-10.387C308.795,332.799,308.262,332.684,308.262,332.541z"/>
	</g>
	<g>
		<path fill="#9CCF31" d="M25.729,332.541v-23.588c0-0.143,0.534-0.258,1.192-0.258h10.387c0.658,0,1.192,0.116,1.192,0.258v23.588
			c0,0.143-0.534,0.258-1.192,0.258H26.921C26.263,332.799,25.729,332.684,25.729,332.541z"/>
		<path fill="#F7D708" d="M40.681,332.541v-23.588c0-0.143,0.534-0.258,1.192-0.258H52.26c0.658,0,1.192,0.116,1.192,0.258v23.588
			c0,0.143-0.534,0.258-1.192,0.258H41.873C41.215,332.799,40.681,332.684,40.681,332.541z"/>
	</g>
	<g>
		<path fill="#F7D708" d="M113.948,332.541v-23.588c0-0.143,0.534-0.258,1.192-0.258h10.387c0.658,0,1.192,0.116,1.192,0.258v23.588
			c0,0.143-0.534,0.258-1.192,0.258H115.14C114.482,332.799,113.948,332.684,113.948,332.541z"/>
		<path fill="#F7D708" d="M128.9,332.541v-23.588c0-0.143,0.534-0.258,1.192-0.258h10.387c0.658,0,1.192,0.116,1.192,0.258v23.588
			c0,0.143-0.534,0.258-1.192,0.258h-10.387C129.434,332.799,128.9,332.684,128.9,332.541z"/>
	</g>
	<g>
		<path fill="#F7D708" d="M202.379,332.541v-23.588c0-0.143,0.534-0.258,1.192-0.258h10.387c0.658,0,1.192,0.116,1.192,0.258v23.588
			c0,0.143-0.534,0.258-1.192,0.258h-10.387C202.913,332.799,202.379,332.684,202.379,332.541z"/>
		<path fill="#F7D708" d="M217.332,332.541v-23.588c0-0.143,0.534-0.258,1.192-0.258h10.387c0.658,0,1.192,0.116,1.192,0.258v23.588
			c0,0.143-0.534,0.258-1.192,0.258h-10.387C217.865,332.799,217.332,332.684,217.332,332.541z"/>
	</g>
	<line fill="none" stroke="#000000" stroke-width="1.3998" x1="216.15" y1="252.803" x2="216.15" y2="214.075"/>
</g>
<text transform="matrix(1 0 0 1 67.573 89.4526)" font-family="'LucidaSansUnicode'" font-size="14">0</text>
<text transform="matrix(1 0 0 1 67.573 128.5411)" font-family="'LucidaSansUnicode'" font-size="14">0</text>
<text transform="matrix(1 0 0 1 67.5729 109.7857)" fill="#FF0000" font-family="'LucidaSansUnicode'" font-size="14">1</text>
<text transform="matrix(1 0 0 1 67.5727 146.7734)" font-family="'LucidaSansUnicode'" font-size="14">0</text>
<text transform="matrix(1 0 0 1 67.5725 165.0031)" font-family="'LucidaSansUnicode'" font-size="14">0</text>
<text transform="matrix(1 0 0 1 67.5724 182.627)" font-family="'LucidaSansUnicode'" font-size="14">0</text>
<text transform="matrix(1 0 0 1 84.4065 89.5315)" font-family="'LucidaSansUnicode'" font-size="14">0</text>
<text transform="matrix(1 0 0 1 84.4065 128.6202)" font-family="'LucidaSansUnicode'" font-size="14">0</text>
<text transform="matrix(1 0 0 1 84.4064 109.8648)" font-family="'LucidaSansUnicode'" font-size="14">0</text>
<text transform="matrix(1 0 0 1 84.4062 146.8523)" font-family="'LucidaSansUnicode'" font-size="14">0</text>
<text transform="matrix(1 0 0 1 84.406 165.0822)" font-family="'LucidaSansUnicode'" font-size="14">0</text>
<text transform="matrix(1 0 0 1 84.4059 182.7061)" font-family="'LucidaSansUnicode'" font-size="14">0</text>
<text transform="matrix(1 0 0 1 248.6381 89.3614)" font-family="'LucidaSansUnicode'" font-size="14">0</text>
<text transform="matrix(1 0 0 1 248.6381 128.4499)" font-family="'LucidaSansUnicode'" font-size="14">0</text>
<text transform="matrix(1 0 0 1 248.638 109.6947)" fill="#FF0000" font-family="'LucidaSansUnicode'" font-size="14">1</text>
<text transform="matrix(1 0 0 1 248.6379 146.6822)" font-family="'LucidaSansUnicode'" font-size="14">0</text>
<text transform="matrix(1 0 0 1 248.6376 164.9122)" font-family="'LucidaSansUnicode'" font-size="14">0</text>
<text transform="matrix(1 0 0 1 248.6375 182.5361)" font-family="'LucidaSansUnicode'" font-size="14">0</text>
<text transform="matrix(1 0 0 1 265.1762 88.7841)" font-family="'LucidaSansUnicode'" font-size="14">0</text>
<text transform="matrix(1 0 0 1 265.1762 127.8726)" font-family="'LucidaSansUnicode'" font-size="14">0</text>
<text transform="matrix(1 0 0 1 265.1761 109.1175)" font-family="'LucidaSansUnicode'" font-size="14">0</text>
<text transform="matrix(1 0 0 1 265.1759 146.1049)" font-family="'LucidaSansUnicode'" font-size="14">0</text>
<text transform="matrix(1 0 0 1 265.1757 164.3349)" font-family="'LucidaSansUnicode'" font-size="14">0</text>
<text transform="matrix(1 0 0 1 265.1756 181.9588)" font-family="'LucidaSansUnicode'" font-size="14">0</text>
<text transform="matrix(1 0 0 1 27.5727 325.7732)" font-family="'LucidaSansUnicode'" font-size="14">1</text>
<text transform="matrix(1 0 0 1 42.5727 325.7731)" font-family="'LucidaSansUnicode'" font-size="14">2</text>
<text transform="matrix(1 0 0 1 115.5727 325.7731)" font-family="'LucidaSansUnicode'" font-size="14">2</text>
<text transform="matrix(1 0 0 1 130.4059 325.7731)" font-family="'LucidaSansUnicode'" font-size="14">2</text>
<text transform="matrix(1 0 0 1 204.5727 325.7731)" font-family="'LucidaSansUnicode'" font-size="14">2</text>
<text transform="matrix(1 0 0 1 219.5727 325.773)" font-family="'LucidaSansUnicode'" font-size="14">2</text>
<text transform="matrix(1 0 0 1 295.1059 325.7731)" font-family="'LucidaSansUnicode'" font-size="14">2</text>
<text transform="matrix(1 0 0 1 310.1761 325.7731)" font-family="'LucidaSansUnicode'" font-size="14">1</text>
<g id="g36470-2-4-2_9_" transform="translate(165.3925,438.40886)">
	<g id="g36466-2-7-1_9_">
		<path id="path2178-0-1-5_9_" sodipodi:nodetypes="cc" fill="none" stroke="#664444" stroke-width="0.5" d="M-120.249-307.976
			l11.4,0.23"/>
		<path id="path2176-4-2-3_9_" sodipodi:nodetypes="cccc" fill="none" stroke="#664444" stroke-width="0.5" d="M-103.169-251.807
			l-5.562-0.059l-0.032-111.673l5.547-0.249"/>
	</g>
</g>
<g id="g36470-2-4-2_8_" transform="translate(165.3925,438.40886)">
	<g id="g36466-2-7-1_8_">
		<path id="path2178-0-1-5_8_" sodipodi:nodetypes="cc" fill="none" stroke="#664444" stroke-width="0.5" d="M-51.712-307.682
			l-11.4-0.23"/>
		<path id="path2176-4-2-3_8_" sodipodi:nodetypes="cccc" fill="none" stroke="#664444" stroke-width="0.5" d="M-68.792-363.853
			l5.562,0.059l0.032,111.673l-5.547,0.249"/>
	</g>
</g>
<g id="g36470-2-4-2_7_" transform="translate(165.3925,438.40886)">
	<g id="g36466-2-7-1_7_">
		<path id="path2178-0-1-5_7_" sodipodi:nodetypes="cc" fill="none" stroke="#664444" stroke-width="0.5" d="M129.449-308.504
			l-11.4-0.23"/>
		<path id="path2176-4-2-3_7_" sodipodi:nodetypes="cccc" fill="none" stroke="#664444" stroke-width="0.5" d="M112.369-364.673
			l5.562,0.059l0.032,111.672l-5.547,0.249"/>
	</g>
</g>
<g id="g36470-2-4-2_6_" transform="translate(165.3925,438.40886)">
	<g id="g36466-2-7-1_6_">
		<path id="path2178-0-1-5_6_" sodipodi:nodetypes="cc" fill="none" stroke="#664444" stroke-width="0.5" d="M60.349-308.763
			l11.4,0.23"/>
		<path id="path2176-4-2-3_6_" sodipodi:nodetypes="cccc" fill="none" stroke="#664444" stroke-width="0.5" d="M77.429-252.594
			l-5.562-0.059l-0.032-111.673l5.547-0.249"/>
	</g>
</g>
<path fill="#F7D708" d="M31.014,142.042v-23.588c0-0.143,0.534-0.258,1.192-0.258h10.387c0.658,0,1.192,0.116,1.192,0.258v23.588
	c0,0.143-0.534,0.258-1.192,0.258H32.206C31.548,142.3,31.014,142.184,31.014,142.042z"/>
<text transform="matrix(1 0 0 1 32.8575 135.274)" font-family="'LucidaSansUnicode'" font-size="14">2</text>
<path fill="#F7D708" d="M211.535,142.042v-23.588c0-0.143,0.534-0.258,1.192-0.258h10.387c0.658,0,1.192,0.116,1.192,0.258v23.588
	c0,0.143-0.534,0.258-1.192,0.258h-10.387C212.069,142.3,211.535,142.184,211.535,142.042z"/>
<text transform="matrix(1 0 0 1 213.4264 135.2739)" font-family="'LucidaSansUnicode'" font-size="14">2</text>
<path fill="#9CCF31" d="M116.448,142.52v-23.588c0-0.143,0.534-0.258,1.192-0.258h10.387c0.658,0,1.192,0.116,1.192,0.258v23.588
	c0,0.143-0.534,0.258-1.192,0.258H117.64C116.982,142.779,116.448,142.662,116.448,142.52z"/>
<text transform="matrix(1 0 0 1 118.0727 135.7525)" font-family="'LucidaSansUnicode'" font-size="14">1</text>
<path fill="#9CCF31" d="M296.4,142.52v-23.588c0-0.143,0.534-0.258,1.192-0.258h10.387c0.658,0,1.192,0.116,1.192,0.258v23.588
	c0,0.143-0.534,0.258-1.192,0.258h-10.387C296.934,142.779,296.4,142.662,296.4,142.52z"/>
<text transform="matrix(1 0 0 1 297.9059 135.7525)" font-family="'LucidaSansUnicode'" font-size="14">1</text>
<g>
	<path fill="none" d="M55.322,422.621"/>
	<path fill="none" stroke="#000000" stroke-width="0.971" d="M301.854,461.852"/>
	<g>
		<path fill="#F7D708" d="M217.917,459.38V348.609c0-0.67,0.545-1.214,1.218-1.214h10.612c0.672,0,1.218,0.543,1.218,1.214v110.772
			c0,0.67-0.545,1.214-1.218,1.214h-10.612C218.462,460.595,217.917,460.051,217.917,459.38z"/>
	</g>
	<g>
		<path fill="#F7D708" d="M293.262,460.63V348.922c0-0.676,0.545-1.224,1.218-1.224h10.612c0.672,0,1.218,0.548,1.218,1.224v111.706
			c0,0.676-0.545,1.224-1.218,1.224H294.48C293.807,461.854,293.262,461.305,293.262,460.63z"/>
		<path fill="#9CCF31" d="M24.49,459.061V347.353c0-0.676,0.545-1.224,1.218-1.224H36.32c0.673,0,1.218,0.548,1.218,1.224v111.706
			c0,0.676-0.545,1.224-1.218,1.224H25.708C25.036,460.285,24.49,459.736,24.49,459.061z"/>
	</g>
</g>
<text transform="matrix(1 0 0 1 295.965 364.1852)" font-family="'LucidaSansUnicode'" font-size="14">0</text>
<text transform="matrix(1 0 0 1 295.965 403.2737)" font-family="'LucidaSansUnicode'" font-size="14">0</text>
<text transform="matrix(1 0 0 1 295.9649 384.5185)" fill="#FF0000" font-family="'LucidaSansUnicode'" font-size="14">1</text>
<text transform="matrix(1 0 0 1 295.9648 421.506)" font-family="'LucidaSansUnicode'" font-size="14">0</text>
<text transform="matrix(1 0 0 1 295.9645 439.7361)" font-family="'LucidaSansUnicode'" font-size="14">0</text>
<text transform="matrix(1 0 0 1 295.9645 457.3597)" font-family="'LucidaSansUnicode'" font-size="14">0</text>
<text transform="matrix(1 0 0 1 27.194 362.6952)" font-family="'LucidaSansUnicode'" font-size="14">0</text>
<text transform="matrix(1 0 0 1 27.194 401.7837)" font-family="'LucidaSansUnicode'" font-size="14">0</text>
<text transform="matrix(1 0 0 1 27.1938 383.0286)" font-family="'LucidaSansUnicode'" font-size="14">0</text>
<text transform="matrix(1 0 0 1 27.1937 420.016)" font-family="'LucidaSansUnicode'" font-size="14">0</text>
<text transform="matrix(1 0 0 1 27.1935 438.2459)" font-family="'LucidaSansUnicode'" font-size="14">0</text>
<text transform="matrix(1 0 0 1 27.1934 455.8698)" font-family="'LucidaSansUnicode'" font-size="14">0</text>
<text transform="matrix(1 0 0 1 220.621 363.7916)" font-family="'LucidaSansUnicode'" font-size="14">0</text>
<text transform="matrix(1 0 0 1 220.621 402.8802)" font-family="'LucidaSansUnicode'" font-size="14">0</text>
<text transform="matrix(1 0 0 1 220.621 384.1249)" fill="#FF0000" font-family="'LucidaSansUnicode'" font-size="14">1</text>
<text transform="matrix(1 0 0 1 220.6207 421.1124)" font-family="'LucidaSansUnicode'" font-size="14">0</text>
<text transform="matrix(1 0 0 1 220.6205 439.3424)" font-family="'LucidaSansUnicode'" font-size="14">0</text>
<text transform="matrix(1 0 0 1 220.6204 456.9663)" font-family="'LucidaSansUnicode'" font-size="14">0</text>
<path fill="none" stroke="#000000" stroke-width="0.971" d="M210.833,461.132"/>
<path fill="#F7D708" d="M202.241,459.91V348.202c0-0.676,0.545-1.224,1.218-1.224h10.612c0.672,0,1.218,0.548,1.218,1.224v111.706
	c0,0.676-0.545,1.224-1.218,1.224h-10.612C202.786,461.134,202.241,460.585,202.241,459.91z"/>
<text transform="matrix(1 0 0 1 204.944 363.4656)" font-family="'LucidaSansUnicode'" font-size="14">0</text>
<text transform="matrix(1 0 0 1 204.944 402.5541)" font-family="'LucidaSansUnicode'" font-size="14">0</text>
<text transform="matrix(1 0 0 1 204.944 383.799)" fill="#FF0000" font-family="'LucidaSansUnicode'" font-size="14">1</text>
<text transform="matrix(1 0 0 1 204.9438 420.7864)" font-family="'LucidaSansUnicode'" font-size="14">0</text>
<text transform="matrix(1 0 0 1 204.9435 439.0165)" font-family="'LucidaSansUnicode'" font-size="14">0</text>
<text transform="matrix(1 0 0 1 204.9435 456.6402)" font-family="'LucidaSansUnicode'" font-size="14">0</text>
<path fill="none" stroke="#000000" stroke-width="0.971" d="M122.401,460.641"/>
<path fill="#F7D708" d="M113.809,459.419V347.711c0-0.676,0.545-1.224,1.218-1.224h10.612c0.672,0,1.218,0.548,1.218,1.224v111.706
	c0,0.676-0.545,1.224-1.218,1.224h-10.612C114.355,460.643,113.809,460.094,113.809,459.419z"/>
<text transform="matrix(1 0 0 1 116.513 362.9747)" font-family="'LucidaSansUnicode'" font-size="14">0</text>
<text transform="matrix(1 0 0 1 116.513 402.0632)" font-family="'LucidaSansUnicode'" font-size="14">0</text>
<text transform="matrix(1 0 0 1 116.5129 383.308)" fill="#FF0000" font-family="'LucidaSansUnicode'" font-size="14">1</text>
<text transform="matrix(1 0 0 1 116.5127 420.2955)" font-family="'LucidaSansUnicode'" font-size="14">0</text>
<text transform="matrix(1 0 0 1 116.5125 438.5256)" font-family="'LucidaSansUnicode'" font-size="14">0</text>
<text transform="matrix(1 0 0 1 116.5124 456.1492)" font-family="'LucidaSansUnicode'" font-size="14">0</text>
<path fill="none" d="M340.178,421.547"/>
<path fill="#9CCF31" d="M308.346,460.987V349.279c0-0.676,0.545-1.224,1.218-1.224h10.612c0.673,0,1.218,0.548,1.218,1.224v111.706
	c0,0.676-0.545,1.224-1.218,1.224h-10.612C308.892,462.211,308.346,461.662,308.346,460.987z"/>
<text transform="matrix(1 0 0 1 311.05 364.6218)" font-family="'LucidaSansUnicode'" font-size="14">0</text>
<text transform="matrix(1 0 0 1 311.05 403.7103)" font-family="'LucidaSansUnicode'" font-size="14">0</text>
<text transform="matrix(1 0 0 1 311.0497 384.955)" font-family="'LucidaSansUnicode'" font-size="14">0</text>
<text transform="matrix(1 0 0 1 311.0497 421.9426)" font-family="'LucidaSansUnicode'" font-size="14">0</text>
<text transform="matrix(1 0 0 1 311.0495 440.1724)" font-family="'LucidaSansUnicode'" font-size="14">0</text>
<text transform="matrix(1 0 0 1 311.0494 457.7963)" font-family="'LucidaSansUnicode'" font-size="14">0</text>
<g>
	<path fill="#F7D708" d="M128.762,458.942V348.171c0-0.67,0.545-1.214,1.218-1.214h10.612c0.672,0,1.218,0.543,1.218,1.214v110.772
		c0,0.67-0.545,1.214-1.218,1.214H129.98C129.307,460.157,128.762,459.613,128.762,458.942z"/>
</g>
<text transform="matrix(1 0 0 1 131.4651 363.3531)" font-family="'LucidaSansUnicode'" font-size="14">0</text>
<text transform="matrix(1 0 0 1 131.4651 402.4417)" font-family="'LucidaSansUnicode'" font-size="14">0</text>
<text transform="matrix(1 0 0 1 131.465 383.6864)" fill="#FF0000" font-family="'LucidaSansUnicode'" font-size="14">1</text>
<text transform="matrix(1 0 0 1 131.4648 420.6739)" font-family="'LucidaSansUnicode'" font-size="14">0</text>
<text transform="matrix(1 0 0 1 131.4646 438.904)" font-family="'LucidaSansUnicode'" font-size="14">0</text>
<text transform="matrix(1 0 0 1 131.4645 456.5279)" font-family="'LucidaSansUnicode'" font-size="14">0</text>
<g>
	<path fill="#F7D708" d="M40.542,458.833V348.062c0-0.67,0.545-1.214,1.218-1.214h10.612c0.672,0,1.218,0.543,1.218,1.214v110.772
		c0,0.67-0.545,1.214-1.218,1.214H41.76C41.087,460.048,40.542,459.504,40.542,458.833z"/>
</g>
<text transform="matrix(1 0 0 1 43.246 363.2446)" font-family="'LucidaSansUnicode'" font-size="14">0</text>
<text transform="matrix(1 0 0 1 43.246 402.3332)" font-family="'LucidaSansUnicode'" font-size="14">0</text>
<text transform="matrix(1 0 0 1 43.246 383.5779)" fill="#FF0000" font-family="'LucidaSansUnicode'" font-size="14">1</text>
<text transform="matrix(1 0 0 1 43.2457 420.5654)" font-family="'LucidaSansUnicode'" font-size="14">0</text>
<text transform="matrix(1 0 0 1 43.2455 438.7955)" font-family="'LucidaSansUnicode'" font-size="14">0</text>
<text transform="matrix(1 0 0 1 43.2454 456.4194)" font-family="'LucidaSansUnicode'" font-size="14">0</text>
<g>
	<rect x="447.643" y="20.532" fill="none" stroke="#000000" width="41.988" height="39.244"/>
	<path fill="none" stroke="#000000" stroke-width="1.3998" d="M560.006,40.154"/>
	<line fill="none" stroke="#000000" stroke-width="1.3998" x1="469.637" y1="214.476" x2="648.595" y2="214.476"/>
	<path fill="none" stroke="#000000" stroke-width="1.3998" d="M648.595,213.622"/>
	<line fill="none" stroke="#000000" stroke-width="1.3998" x1="469.637" y1="253.204" x2="469.637" y2="214.476"/>
	<ellipse cx="469.637" cy="273.784" rx="23.401" ry="21.872"/>
	<ellipse fill="none" stroke="#000000" cx="469.637" cy="273.784" rx="23.401" ry="21.872"/>
	<rect x="537.145" y="254.162" width="41.988" height="39.244"/>
	<rect x="537.145" y="254.162" fill="none" stroke="#000000" width="41.988" height="39.244"/>
	<ellipse fill="none" stroke="#000000" cx="648.003" cy="40.154" rx="23.401" ry="21.872"/>
	<line fill="none" stroke="#000000" stroke-width="1.3998" x1="489.922" y1="40.154" x2="624.601" y2="40.154"/>
	<path fill="none" d="M441.307,60.026"/>
	<path fill="none" d="M491.967,18.282"/>
	<path fill="none" stroke="#000000" stroke-width="0.971" d="M441.307,60.026"/>
	<path fill="none" stroke="#000000" stroke-width="0.971" d="M491.967,18.282"/>
	<g>
		<path fill="#007FFF" d="M632.761,185.356V74.585c0-0.67,0.545-1.214,1.218-1.214h10.612c0.672,0,1.218,0.543,1.218,1.214v110.772
			c0,0.67-0.545,1.214-1.218,1.214h-10.612C633.307,186.571,632.761,186.027,632.761,185.356z"/>
		<path fill="#9CCF31" d="M649.595,185.356V74.585c0-0.67,0.545-1.214,1.218-1.214h10.612c0.672,0,1.218,0.543,1.218,1.214v110.772
			c0,0.67-0.545,1.214-1.218,1.214h-10.612C650.14,186.571,649.595,186.027,649.595,185.356z"/>
	</g>
	<g>
		<path fill="#007FFF" d="M451.697,186.302V74.595c0-0.676,0.545-1.224,1.218-1.224h10.612c0.673,0,1.218,0.548,1.218,1.224v111.707
			c0,0.676-0.545,1.224-1.218,1.224h-10.612C452.242,187.526,451.697,186.978,451.697,186.302z"/>
		<path fill="#9CCF31" d="M468.53,186.302V74.595c0-0.676,0.545-1.224,1.218-1.224h10.612c0.672,0,1.218,0.548,1.218,1.224v111.707
			c0,0.676-0.545,1.224-1.218,1.224h-10.612C469.075,187.526,468.53,186.978,468.53,186.302z"/>
	</g>
	<g>
		<path fill="#F7D708" d="M455.775,332.946v-23.588c0-0.143,0.534-0.258,1.192-0.258h10.387c0.658,0,1.192,0.116,1.192,0.258v23.588
			c0,0.143-0.534,0.258-1.192,0.258h-10.387C456.309,333.204,455.775,333.089,455.775,332.946z"/>
		<path fill="#F7D708" d="M470.727,332.946v-23.588c0-0.143,0.534-0.258,1.192-0.258h10.387c0.658,0,1.192,0.116,1.192,0.258v23.588
			c0,0.143-0.534,0.258-1.192,0.258h-10.387C471.261,333.204,470.727,333.089,470.727,332.946z"/>
	</g>
	<g>
		<path fill="#F7D708" d="M544.206,332.946v-23.588c0-0.143,0.534-0.258,1.192-0.258h10.387c0.658,0,1.192,0.116,1.192,0.258v23.588
			c0,0.143-0.534,0.258-1.192,0.258h-10.387C544.74,333.204,544.206,333.089,544.206,332.946z"/>
		<path fill="#F7D708" d="M559.159,332.946v-23.588c0-0.143,0.534-0.258,1.192-0.258h10.387c0.658,0,1.192,0.116,1.192,0.258v23.588
			c0,0.143-0.534,0.258-1.192,0.258h-10.387C559.692,333.204,559.159,333.089,559.159,332.946z"/>
	</g>
	<line fill="none" stroke="#000000" stroke-width="1.3998" x1="557.977" y1="253.208" x2="557.977" y2="214.48"/>
</g>
<text transform="matrix(1 0 0 1 454.3995 89.8578)" font-family="'LucidaSansUnicode'" font-size="14">0</text>
<text transform="matrix(1 0 0 1 454.3995 128.9463)" font-family="'LucidaSansUnicode'" font-size="14">0</text>
<text transform="matrix(1 0 0 1 454.3995 110.1909)" font-family="'LucidaSansUnicode'" font-size="14">0</text>
<text transform="matrix(1 0 0 1 454.3993 147.1786)" font-family="'LucidaSansUnicode'" font-size="14">0</text>
<text transform="matrix(1 0 0 1 454.3991 165.4083)" font-family="'LucidaSansUnicode'" font-size="14">0</text>
<text transform="matrix(1 0 0 1 454.399 183.0322)" fill="#FF0000" font-family="'LucidaSansUnicode'" font-size="14">1</text>
<text transform="matrix(1 0 0 1 471.233 89.9368)" font-family="'LucidaSansUnicode'" font-size="14">0</text>
<text transform="matrix(1 0 0 1 471.233 129.0254)" font-family="'LucidaSansUnicode'" font-size="14">0</text>
<text transform="matrix(1 0 0 1 471.233 110.27)" font-family="'LucidaSansUnicode'" font-size="14">0</text>
<text transform="matrix(1 0 0 1 471.2327 147.2576)" font-family="'LucidaSansUnicode'" font-size="14">0</text>
<text transform="matrix(1 0 0 1 471.2326 165.4874)" font-family="'LucidaSansUnicode'" font-size="14">0</text>
<text transform="matrix(1 0 0 1 471.2324 183.1113)" font-family="'LucidaSansUnicode'" font-size="14">0</text>
<text transform="matrix(1 0 0 1 635.4647 89.7666)" font-family="'LucidaSansUnicode'" font-size="14">0</text>
<text transform="matrix(1 0 0 1 635.4647 128.8551)" font-family="'LucidaSansUnicode'" font-size="14">0</text>
<text transform="matrix(1 0 0 1 635.4646 110.1)" font-family="'LucidaSansUnicode'" font-size="14">0</text>
<text transform="matrix(1 0 0 1 635.4644 147.0874)" font-family="'LucidaSansUnicode'" font-size="14">0</text>
<text transform="matrix(1 0 0 1 635.4642 165.3174)" font-family="'LucidaSansUnicode'" font-size="14">0</text>
<text transform="matrix(1 0 0 1 635.4641 182.9413)" fill="#FF0000" font-family="'LucidaSansUnicode'" font-size="14">1</text>
<text transform="matrix(1 0 0 1 652.0028 89.1893)" font-family="'LucidaSansUnicode'" font-size="14">0</text>
<text transform="matrix(1 0 0 1 652.0028 128.2778)" font-family="'LucidaSansUnicode'" font-size="14">0</text>
<text transform="matrix(1 0 0 1 652.0026 109.5227)" font-family="'LucidaSansUnicode'" font-size="14">0</text>
<text transform="matrix(1 0 0 1 652.0025 146.5101)" font-family="'LucidaSansUnicode'" font-size="14">0</text>
<text transform="matrix(1 0 0 1 652.0023 164.7401)" font-family="'LucidaSansUnicode'" font-size="14">0</text>
<text transform="matrix(1 0 0 1 652.0021 182.364)" font-family="'LucidaSansUnicode'" font-size="14">0</text>
<text transform="matrix(1 0 0 1 457.3992 326.1783)" font-family="'LucidaSansUnicode'" font-size="14">2</text>
<text transform="matrix(1 0 0 1 472.2324 326.1783)" font-family="'LucidaSansUnicode'" font-size="14">2</text>
<text transform="matrix(1 0 0 1 546.3992 326.1783)" font-family="'LucidaSansUnicode'" font-size="14">2</text>
<text transform="matrix(1 0 0 1 561.3992 326.1782)" font-family="'LucidaSansUnicode'" font-size="14">2</text>
<g id="g36470-2-4-2_4_" transform="translate(165.3925,438.40886)">
	<g id="g36466-2-7-1_4_">
		<path id="path2178-0-1-5_4_" sodipodi:nodetypes="cc" fill="none" stroke="#664444" stroke-width="0.5" d="M266.578-307.571
			l11.4,0.23"/>
		<path id="path2176-4-2-3_4_" sodipodi:nodetypes="cccc" fill="none" stroke="#664444" stroke-width="0.5" d="M283.658-251.402
			l-5.562-0.059l-0.032-111.673l5.547-0.249"/>
	</g>
</g>
<g id="g36470-2-4-2_3_" transform="translate(165.3925,438.40886)">
	<g id="g36466-2-7-1_3_">
		<path id="path2178-0-1-5_3_" sodipodi:nodetypes="cc" fill="none" stroke="#664444" stroke-width="0.5" d="M335.115-307.277
			l-11.4-0.23"/>
		<path id="path2176-4-2-3_3_" sodipodi:nodetypes="cccc" fill="none" stroke="#664444" stroke-width="0.5" d="M318.035-363.448
			l5.562,0.059l0.032,111.673l-5.547,0.249"/>
	</g>
</g>
<g id="g36470-2-4-2_2_" transform="translate(165.3925,438.40886)">
	<g id="g36466-2-7-1_2_">
		<path id="path2178-0-1-5_2_" sodipodi:nodetypes="cc" fill="none" stroke="#664444" stroke-width="0.5" d="M516.276-308.099
			l-11.4-0.23"/>
		<path id="path2176-4-2-3_2_" sodipodi:nodetypes="cccc" fill="none" stroke="#664444" stroke-width="0.5" d="M499.196-364.268
			l5.562,0.059l0.032,111.672l-5.547,0.249"/>
	</g>
</g>
<g id="g36470-2-4-2_1_" transform="translate(165.3925,438.40886)">
	<g id="g36466-2-7-1_1_">
		<path id="path2178-0-1-5_1_" sodipodi:nodetypes="cc" fill="none" stroke="#664444" stroke-width="0.5" d="M447.176-308.358
			l11.4,0.23"/>
		<path id="path2176-4-2-3_1_" sodipodi:nodetypes="cccc" fill="none" stroke="#664444" stroke-width="0.5" d="M464.256-252.189
			l-5.562-0.059l-0.032-111.673l5.547-0.249"/>
	</g>
</g>
<path fill="#F7D708" d="M417.841,142.447v-23.588c0-0.143,0.534-0.258,1.192-0.258h10.387c0.658,0,1.192,0.116,1.192,0.258v23.588
	c0,0.143-0.534,0.258-1.192,0.258h-10.387C418.375,142.705,417.841,142.589,417.841,142.447z"/>
<text transform="matrix(1 0 0 1 419.6841 135.6792)" font-family="'LucidaSansUnicode'" font-size="14">2</text>
<path fill="#F7D708" d="M598.362,142.447v-23.588c0-0.143,0.534-0.258,1.192-0.258h10.387c0.658,0,1.192,0.116,1.192,0.258v23.588
	c0,0.143-0.534,0.258-1.192,0.258h-10.387C598.896,142.705,598.362,142.589,598.362,142.447z"/>
<text transform="matrix(1 0 0 1 600.2529 135.6791)" font-family="'LucidaSansUnicode'" font-size="14">2</text>
<path fill="#9CCF31" d="M503.275,142.925v-23.588c0-0.143,0.534-0.258,1.192-0.258h10.387c0.658,0,1.192,0.116,1.192,0.258v23.588
	c0,0.143-0.534,0.258-1.192,0.258h-10.387C503.809,143.184,503.275,143.067,503.275,142.925z"/>
<text transform="matrix(1 0 0 1 504.8992 136.1577)" font-family="'LucidaSansUnicode'" font-size="14">1</text>
<path fill="#9CCF31" d="M683.227,142.925v-23.588c0-0.143,0.534-0.258,1.192-0.258h10.387c0.658,0,1.192,0.116,1.192,0.258v23.588
	c0,0.143-0.534,0.258-1.192,0.258h-10.387C683.761,143.184,683.227,143.067,683.227,142.925z"/>
<text transform="matrix(1 0 0 1 684.7324 136.1577)" font-family="'LucidaSansUnicode'" font-size="14">1</text>
<g>
	<g>
		<path fill="#007FFF" d="M559.744,459.845V349.074c0-0.67,0.545-1.214,1.218-1.214h10.612c0.672,0,1.218,0.543,1.218,1.214v110.772
			c0,0.67-0.545,1.214-1.218,1.214h-10.612C560.289,461.06,559.744,460.516,559.744,459.845z"/>
	</g>
</g>
<text transform="matrix(1 0 0 1 562.4476 364.2567)" font-family="'LucidaSansUnicode'" font-size="14">0</text>
<text transform="matrix(1 0 0 1 562.4476 403.3454)" font-family="'LucidaSansUnicode'" font-size="14">0</text>
<text transform="matrix(1 0 0 1 562.4475 384.59)" font-family="'LucidaSansUnicode'" font-size="14">0</text>
<text transform="matrix(1 0 0 1 562.4473 421.5775)" font-family="'LucidaSansUnicode'" font-size="14">0</text>
<text transform="matrix(1 0 0 1 562.4471 439.8076)" font-family="'LucidaSansUnicode'" font-size="14">0</text>
<text transform="matrix(1 0 0 1 562.447 457.4315)" fill="#FF0000" font-family="'LucidaSansUnicode'" font-size="14">1</text>
<path fill="none" stroke="#000000" stroke-width="0.971" d="M552.659,461.537"/>
<path fill="#007FFF" d="M544.067,460.315V348.607c0-0.676,0.545-1.224,1.218-1.224h10.612c0.672,0,1.218,0.548,1.218,1.224v111.706
	c0,0.676-0.545,1.224-1.218,1.224h-10.612C544.612,461.539,544.067,460.99,544.067,460.315z"/>
<text transform="matrix(1 0 0 1 546.7706 363.8708)" font-family="'LucidaSansUnicode'" font-size="14">0</text>
<text transform="matrix(1 0 0 1 546.7706 402.9593)" font-family="'LucidaSansUnicode'" font-size="14">0</text>
<text transform="matrix(1 0 0 1 546.7705 384.2042)" font-family="'LucidaSansUnicode'" font-size="14">0</text>
<text transform="matrix(1 0 0 1 546.7703 421.1916)" font-family="'LucidaSansUnicode'" font-size="14">0</text>
<text transform="matrix(1 0 0 1 546.7701 439.4217)" font-family="'LucidaSansUnicode'" font-size="14">0</text>
<text transform="matrix(1 0 0 1 546.77 457.0454)" fill="#FF0000" font-family="'LucidaSansUnicode'" font-size="14">1</text>
<path fill="none" stroke="#000000" stroke-width="0.971" d="M464.228,461.046"/>
<path fill="#007FFF" d="M455.636,459.824V348.116c0-0.676,0.545-1.224,1.218-1.224h10.612c0.672,0,1.218,0.548,1.218,1.224v111.706
	c0,0.676-0.545,1.224-1.218,1.224h-10.612C456.181,461.048,455.636,460.499,455.636,459.824z"/>
<text transform="matrix(1 0 0 1 458.3396 363.3798)" font-family="'LucidaSansUnicode'" font-size="14">0</text>
<text transform="matrix(1 0 0 1 458.3396 402.4683)" font-family="'LucidaSansUnicode'" font-size="14">0</text>
<text transform="matrix(1 0 0 1 458.3394 383.7132)" font-family="'LucidaSansUnicode'" font-size="14">0</text>
<text transform="matrix(1 0 0 1 458.3393 420.7006)" font-family="'LucidaSansUnicode'" font-size="14">0</text>
<text transform="matrix(1 0 0 1 458.3391 438.9307)" font-family="'LucidaSansUnicode'" font-size="14">0</text>
<text transform="matrix(1 0 0 1 458.3389 456.5543)" fill="#FF0000" font-family="'LucidaSansUnicode'" font-size="14">1</text>
<path fill="none" d="M682.005,421.952"/>
<g>
	<path fill="#007FFF" d="M470.588,459.347V348.576c0-0.67,0.545-1.214,1.218-1.214h10.612c0.672,0,1.218,0.543,1.218,1.214v110.772
		c0,0.67-0.545,1.214-1.218,1.214h-10.612C471.133,460.562,470.588,460.018,470.588,459.347z"/>
</g>
<text transform="matrix(1 0 0 1 473.2916 363.7583)" font-family="'LucidaSansUnicode'" font-size="14">0</text>
<text transform="matrix(1 0 0 1 473.2916 402.8469)" font-family="'LucidaSansUnicode'" font-size="14">0</text>
<text transform="matrix(1 0 0 1 473.2916 384.0916)" font-family="'LucidaSansUnicode'" font-size="14">0</text>
<text transform="matrix(1 0 0 1 473.2913 421.0791)" font-family="'LucidaSansUnicode'" font-size="14">0</text>
<text transform="matrix(1 0 0 1 473.2911 439.3092)" font-family="'LucidaSansUnicode'" font-size="14">0</text>
<text transform="matrix(1 0 0 1 473.291 456.9331)" fill="#FF0000" font-family="'LucidaSansUnicode'" font-size="14">1</text>
<rect x="627.601" y="254.069" width="41.988" height="39.244"/>
<rect x="627.601" y="254.069" fill="none" stroke="#000000" width="41.988" height="39.244"/>
<g>
	<path fill="#F7D708" d="M634.662,332.853v-23.588c0-0.143,0.534-0.258,1.192-0.258h10.387c0.658,0,1.192,0.116,1.192,0.258v23.588
		c0,0.143-0.534,0.258-1.192,0.258h-10.387C635.196,333.111,634.662,332.996,634.662,332.853z"/>
	<path fill="#F7D708" d="M649.615,332.853v-23.588c0-0.143,0.534-0.258,1.192-0.258h10.387c0.658,0,1.192,0.116,1.192,0.258v23.588
		c0,0.143-0.534,0.258-1.192,0.258h-10.387C650.148,333.111,649.615,332.996,649.615,332.853z"/>
</g>
<line fill="none" stroke="#000000" stroke-width="1.3998" x1="648.433" y1="253.115" x2="648.433" y2="214.387"/>
<text transform="matrix(1 0 0 1 636.8551 326.0853)" font-family="'LucidaSansUnicode'" font-size="14">2</text>
<text transform="matrix(1 0 0 1 651.8551 326.0852)" font-family="'LucidaSansUnicode'" font-size="14">2</text>
<g>
	<g>
		<path fill="#007FFF" d="M650.2,459.752V348.981c0-0.67,0.545-1.214,1.218-1.214h10.612c0.672,0,1.218,0.543,1.218,1.214v110.772
			c0,0.67-0.545,1.214-1.218,1.214h-10.612C650.745,460.967,650.2,460.423,650.2,459.752z"/>
	</g>
</g>
<text transform="matrix(1 0 0 1 652.9036 364.1637)" font-family="'LucidaSansUnicode'" font-size="14">0</text>
<text transform="matrix(1 0 0 1 652.9036 403.2524)" font-family="'LucidaSansUnicode'" font-size="14">0</text>
<text transform="matrix(1 0 0 1 652.9034 384.497)" font-family="'LucidaSansUnicode'" font-size="14">0</text>
<text transform="matrix(1 0 0 1 652.9033 421.4845)" font-family="'LucidaSansUnicode'" font-size="14">0</text>
<text transform="matrix(1 0 0 1 652.9031 439.7146)" font-family="'LucidaSansUnicode'" font-size="14">0</text>
<text transform="matrix(1 0 0 1 652.903 457.3385)" fill="#FF0000" font-family="'LucidaSansUnicode'" font-size="14">1</text>
<path fill="none" stroke="#000000" stroke-width="0.971" d="M643.115,461.444"/>
<path fill="#007FFF" d="M634.523,460.222V348.514c0-0.676,0.545-1.224,1.218-1.224h10.612c0.672,0,1.218,0.548,1.218,1.224V460.22
	c0,0.676-0.545,1.224-1.218,1.224h-10.612C635.068,461.446,634.523,460.897,634.523,460.222z"/>
<text transform="matrix(1 0 0 1 637.2266 363.7778)" font-family="'LucidaSansUnicode'" font-size="14">0</text>
<text transform="matrix(1 0 0 1 637.2266 402.8663)" font-family="'LucidaSansUnicode'" font-size="14">0</text>
<text transform="matrix(1 0 0 1 637.2264 384.1112)" font-family="'LucidaSansUnicode'" font-size="14">0</text>
<text transform="matrix(1 0 0 1 637.2263 421.0986)" font-family="'LucidaSansUnicode'" font-size="14">0</text>
<text transform="matrix(1 0 0 1 637.2261 439.3287)" font-family="'LucidaSansUnicode'" font-size="14">0</text>
<text transform="matrix(1 0 0 1 637.226 456.9524)" fill="#FF0000" font-family="'LucidaSansUnicode'" font-size="14">1</text>
<line fill="none" stroke="#000000" stroke-width="1.3998" x1="558.008" y1="213.866" x2="557.947" y2="40.703"/>
</svg>
