<?xml version="1.0" encoding="utf-8"?>
<!-- Generator: Adobe Illustrator 17.0.0, SVG Export Plug-In . SVG Version: 6.00 Build 0)  -->
<!DOCTYPE svg PUBLIC "-//W3C//DTD SVG 1.1//EN" "http://www.w3.org/Graphics/SVG/1.1/DTD/svg11.dtd">
<svg version="1.1"
	 id="svg2" xmlns:sodipodi="http://inkscape.sourceforge.net/DTD/sodipodi-0.dtd" xmlns:rdf="http://www.w3.org/1999/02/22-rdf-syntax-ns#" xmlns:inkscape="http://www.inkscape.org/namespaces/inkscape" xmlns:svg="http://www.w3.org/2000/svg" xmlns:cc="http://web.resource.org/cc/" xmlns:dc="http://purl.org/dc/elements/1.1/" sodipodi:version="0.32" inkscape:version="0.41.1" sodipodi:docbase="/project/rosalyn/Biology/Summer1/LabsLectures/Images" sodipodi:docname="pedigreechart1.svg" inkscape:export-xdpi="90.000000" inkscape:export-filename="/project/rosalyn/Biology/Summer1/LabsLectures/Images/pedigreechartA.png" inkscape:export-ydpi="90.000000"
	 xmlns="http://www.w3.org/2000/svg" xmlns:xlink="http://www.w3.org/1999/xlink" x="0px" y="0px" width="359px" height="334.5px"
	 viewBox="-36 0 359 334.5" enable-background="new -36 0 359 334.5" xml:space="preserve">
<sodipodi:namedview  inkscape:cx="372.04723" bordercolor="#666666" borderopacity="1.0" showgrid="true" inkscape:zoom="0.72503556" id="base" inkscape:cy="526.18109" pagecolor="#ffffff" inkscape:pageopacity="0.0" inkscape:pageshadow="2" inkscape:window-width="1273" inkscape:window-height="943" inkscape:window-x="0" inkscape:document-units="px" inkscape:window-y="0" inkscape:current-layer="layer1">
	</sodipodi:namedview>
<sodipodi:namedview  inkscape:cx="372.04723" bordercolor="#666666" borderopacity="1.0" showgrid="true" inkscape:zoom="0.72503556" id="base" inkscape:cy="526.18109" pagecolor="#ffffff" inkscape:pageopacity="0.0" inkscape:pageshadow="2" inkscape:window-width="1273" inkscape:window-height="943" inkscape:window-x="0" inkscape:document-units="px" inkscape:window-y="0" inkscape:current-layer="layer1">
	</sodipodi:namedview>
<sodipodi:namedview  inkscape:cx="372.04723" bordercolor="#666666" borderopacity="1.0" showgrid="true" inkscape:zoom="0.72503556" id="base" inkscape:cy="526.18109" pagecolor="#ffffff" inkscape:pageopacity="0.0" inkscape:pageshadow="2" inkscape:window-width="1273" inkscape:window-height="943" inkscape:window-x="0" inkscape:document-units="px" inkscape:window-y="0" inkscape:current-layer="layer1">
	</sodipodi:namedview>
<line fill="none" stroke="#000000" stroke-width="1.3998" x1="110.799" y1="9.725" x2="200.236" y2="9.725"/>
<line fill="none" stroke="#000000" stroke-width="1.3998" x1="200.236" y1="50.621" x2="200.236" y2="9.871"/>
<line fill="none" stroke="#000000" stroke-width="1.3998" x1="110.618" y1="48.307" x2="110.618" y2="9.725"/>
<ellipse fill="none" stroke="#000000" cx="110.618" cy="69.961" rx="23.401" ry="21.872"/>
<rect x="179.242" y="50.412" fill="none" stroke="#000000" width="41.988" height="39.244"/>
<g>
	<path fill="#C8C8C8" d="M172.242,150.047V96.225c0-0.326,1.1-0.589,2.456-0.589h21.396c1.355,0,2.456,0.265,2.456,0.589v53.822
		c0,0.326-1.1,0.589-2.456,0.589h-21.396C173.341,150.638,172.242,150.373,172.242,150.047z"/>
</g>
<g>
	<path fill="#9CCF31" d="M91.21,325.223V271.12c0-0.328,0.534-0.592,1.192-0.592h10.387c0.658,0,1.192,0.266,1.192,0.592v54.103
		c0,0.328-0.534,0.592-1.192,0.592H92.402C91.744,325.818,91.21,325.551,91.21,325.223z"/>
</g>
<g id="g36470-2-4-2" transform="translate(165.3925,438.40886)">
	<g id="g36466-2-7-1">
		<path id="path2178-0-1-5" sodipodi:nodetypes="cc" fill="none" stroke="#664444" stroke-width="0.5" d="M-7.448-287.399
			l0.386,8.991"/>
		<path id="path2176-4-2-3" sodipodi:nodetypes="cccc" fill="none" stroke="#664444" stroke-width="0.5" d="M86.986-273.928
			l-0.1-4.387l-187.746-0.025l-0.419,4.375"/>
	</g>
</g>
<text transform="matrix(1 0 0 1 181.4927 129.6464)" font-family="'LucidaSansUnicode'" font-size="14">0</text>
<text transform="matrix(1 0 0 1 175.4926 110.8911)" font-family="'LucidaSansUnicode'" font-size="14">0,1</text>
<text transform="matrix(1 0 0 1 181.4925 147.8787)" font-family="'LucidaSansUnicode'" font-size="14">0</text>
<g>
	<path fill="#C8C8C8" d="M84.333,150.047V96.225c0-0.326,1.06-0.589,2.366-0.589h20.615c1.305,0,2.366,0.265,2.366,0.589v53.822
		c0,0.326-1.06,0.589-2.366,0.589H86.699C85.393,150.638,84.333,150.373,84.333,150.047z"/>
</g>
<text transform="matrix(1 0 0 1 92.6241 129.1236)" font-family="'LucidaSansUnicode'" font-size="14">0</text>
<text transform="matrix(1 0 0 1 86.6239 110.3684)" font-family="'LucidaSansUnicode'" font-size="14">0,1</text>
<text transform="matrix(1 0 0 1 92.6237 147.3559)" font-family="'LucidaSansUnicode'" font-size="14">0</text>
<g>
	<path fill="#C8C8C8" d="M111.799,150.047V96.225c0-0.326,1.095-0.589,2.446-0.589h21.309c1.349,0,2.446,0.265,2.446,0.589v53.822
		c0,0.326-1.095,0.589-2.446,0.589h-21.309C112.895,150.638,111.799,150.373,111.799,150.047z"/>
</g>
<text transform="matrix(1 0 0 1 120.5964 129.385)" font-family="'LucidaSansUnicode'" font-size="14">1</text>
<text transform="matrix(1 0 0 1 113.5962 110.6297)" font-family="'LucidaSansUnicode'" font-size="14">1,0</text>
<text transform="matrix(1 0 0 1 120.5961 147.6173)" font-family="'LucidaSansUnicode'" font-size="14">1</text>
<line fill="none" stroke="#000000" stroke-width="1.3998" x1="15.423" y1="184.725" x2="104.86" y2="184.725"/>
<line fill="none" stroke="#000000" stroke-width="1.3998" x1="104.86" y1="225.621" x2="104.86" y2="184.871"/>
<line fill="none" stroke="#000000" stroke-width="1.3998" x1="15.242" y1="223.307" x2="15.242" y2="184.725"/>
<ellipse fill="none" stroke="#000000" cx="15.242" cy="244.961" rx="23.401" ry="21.872"/>
<rect x="83.865" y="225.412" fill="none" stroke="#000000" width="41.988" height="39.244"/>
<g>
	<path fill="#F7D708" d="M106.354,325.044v-54.103c0-0.328,0.534-0.592,1.192-0.592h10.387c0.658,0,1.192,0.266,1.192,0.592v54.103
		c0,0.328-0.534,0.592-1.192,0.592h-10.387C106.887,325.638,106.354,325.372,106.354,325.044z"/>
</g>
<text transform="matrix(1 0 0 1 108.2682 304.314)" font-family="'LucidaSansUnicode'" font-size="14">1</text>
<text transform="matrix(1 0 0 1 108.268 285.5588)" font-family="'LucidaSansUnicode'" font-size="14">1</text>
<text transform="matrix(1 0 0 1 108.2679 322.5463)" font-family="'LucidaSansUnicode'" font-size="14">1</text>
<line fill="none" stroke="#000000" stroke-width="1.3998" x1="207.57" y1="184.905" x2="297.007" y2="184.905"/>
<line fill="none" stroke="#000000" stroke-width="1.3998" x1="297.007" y1="225.8" x2="297.007" y2="185.051"/>
<line fill="none" stroke="#000000" stroke-width="1.3998" x1="207.389" y1="223.486" x2="207.389" y2="184.905"/>
<ellipse fill="none" stroke="#000000" cx="207.389" cy="245.14" rx="23.401" ry="21.872"/>
<rect x="276.012" y="225.592" fill="none" stroke="#000000" width="41.988" height="39.244"/>
<text transform="matrix(1 0 0 1 20.5425 179.5019)" font-family="'MyriadPro-Regular'" font-size="12">Configuration A</text>
<text transform="matrix(1 0 0 1 212.3825 179.5019)" font-family="'MyriadPro-Regular'" font-size="12">Configuration B</text>
<text transform="matrix(1 0 0 1 93.7682 304.3135)" font-family="'LucidaSansUnicode'" font-size="14">0</text>
<text transform="matrix(1 0 0 1 93.768 285.5583)" font-family="'LucidaSansUnicode'" font-size="14">0</text>
<text transform="matrix(1 0 0 1 93.7679 322.5458)" font-family="'LucidaSansUnicode'" font-size="14">0</text>
<g>
	<path fill="#9CCF31" d="M1.285,325.134v-54.103c0-0.328,0.534-0.592,1.192-0.592h10.387c0.658,0,1.192,0.266,1.192,0.592v54.103
		c0,0.328-0.534,0.592-1.192,0.592H2.477C1.819,325.728,1.285,325.462,1.285,325.134z"/>
</g>
<g>
	<path fill="#F7D708" d="M16.427,324.954v-54.103c0-0.328,0.534-0.592,1.192-0.592h10.387c0.658,0,1.192,0.266,1.192,0.592v54.103
		c0,0.328-0.534,0.592-1.192,0.592H17.619C16.962,325.548,16.427,325.282,16.427,324.954z"/>
</g>
<text transform="matrix(1 0 0 1 18.343 304.2243)" font-family="'LucidaSansUnicode'" font-size="14">1</text>
<text transform="matrix(1 0 0 1 18.3428 285.469)" font-family="'LucidaSansUnicode'" font-size="14">1</text>
<text transform="matrix(1 0 0 1 18.3427 322.4566)" font-family="'LucidaSansUnicode'" font-size="14">1</text>
<text transform="matrix(1 0 0 1 3.843 304.2238)" font-family="'LucidaSansUnicode'" font-size="14">0</text>
<text transform="matrix(1 0 0 1 3.8428 285.4685)" font-family="'LucidaSansUnicode'" font-size="14">0</text>
<text transform="matrix(1 0 0 1 3.8427 322.4561)" font-family="'LucidaSansUnicode'" font-size="14">0</text>
<g>
	<path fill="#8B88FF" d="M193.878,325.376v-54.104c0-0.328,0.534-0.592,1.192-0.592h10.387c0.658,0,1.192,0.266,1.192,0.592v54.103
		c0,0.328-0.534,0.592-1.192,0.592H195.07C194.412,325.97,193.878,325.704,193.878,325.376z"/>
</g>
<g>
	<path fill="#FF9300" d="M209.022,325.196v-54.103c0-0.328,0.534-0.592,1.192-0.592h10.387c0.658,0,1.192,0.266,1.192,0.592v54.103
		c0,0.328-0.534,0.592-1.192,0.592h-10.387C209.555,325.79,209.022,325.524,209.022,325.196z"/>
</g>
<text transform="matrix(1 0 0 1 210.9367 304.4661)" font-family="'LucidaSansUnicode'" font-size="14">1</text>
<text transform="matrix(1 0 0 1 210.9364 285.7109)" font-family="'LucidaSansUnicode'" font-size="14">0</text>
<text transform="matrix(1 0 0 1 210.9364 322.6984)" font-family="'LucidaSansUnicode'" font-size="14">1</text>
<text transform="matrix(1 0 0 1 196.4367 304.4656)" font-family="'LucidaSansUnicode'" font-size="14">0</text>
<text transform="matrix(1 0 0 1 196.4364 285.7104)" font-family="'LucidaSansUnicode'" font-size="14">1</text>
<text transform="matrix(1 0 0 1 196.4364 322.6979)" font-family="'LucidaSansUnicode'" font-size="14">0</text>
<g>
	<path fill="#C8C8C8" d="M201.13,150.047V96.225c0-0.326,1.095-0.589,2.446-0.589h21.309c1.349,0,2.446,0.265,2.446,0.589v53.822
		c0,0.326-1.095,0.589-2.446,0.589h-21.309C202.225,150.638,201.13,150.373,201.13,150.047z"/>
</g>
<text transform="matrix(1 0 0 1 210.4502 129.9078)" font-family="'LucidaSansUnicode'" font-size="14">1</text>
<text transform="matrix(1 0 0 1 203.45 111.1525)" font-family="'LucidaSansUnicode'" font-size="14">1,0</text>
<text transform="matrix(1 0 0 1 210.4499 148.1401)" font-family="'LucidaSansUnicode'" font-size="14">1</text>
<g>
	<path fill="#8B88FF" d="M283.048,325.466v-54.104c0-0.328,0.534-0.592,1.192-0.592h10.387c0.658,0,1.192,0.266,1.192,0.592v54.103
		c0,0.328-0.534,0.592-1.192,0.592H284.24C283.582,326.06,283.048,325.794,283.048,325.466z"/>
</g>
<g>
	<path fill="#FF9300" d="M298.193,325.286v-54.103c0-0.328,0.534-0.592,1.192-0.592h10.387c0.658,0,1.192,0.266,1.192,0.592v54.103
		c0,0.328-0.534,0.592-1.192,0.592h-10.387C298.725,325.88,298.193,325.613,298.193,325.286z"/>
</g>
<text transform="matrix(1 0 0 1 300.1072 304.5556)" font-family="'LucidaSansUnicode'" font-size="14">1</text>
<text transform="matrix(1 0 0 1 300.1069 285.8004)" font-family="'LucidaSansUnicode'" font-size="14">0</text>
<text transform="matrix(1 0 0 1 300.1069 322.7879)" font-family="'LucidaSansUnicode'" font-size="14">1</text>
<text transform="matrix(1 0 0 1 285.6072 304.5551)" font-family="'LucidaSansUnicode'" font-size="14">0</text>
<text transform="matrix(1 0 0 1 285.6069 285.7999)" font-family="'LucidaSansUnicode'" font-size="14">1</text>
<text transform="matrix(1 0 0 1 285.6069 322.7874)" font-family="'LucidaSansUnicode'" font-size="14">0</text>
<g id="g36470-2-4-2_1_" transform="translate(165.3925,438.40886)">
	<g id="g36466-2-7-1_1_">
		<path id="path2178-0-1-5_1_" sodipodi:nodetypes="cc" fill="none" stroke="#664444" stroke-width="0.5" d="M-184.092-138.883
			l11.4,0.103"/>
		<path id="path2176-4-2-3_1_" sodipodi:nodetypes="cccc" fill="none" stroke="#664444" stroke-width="0.5" d="M-167.012-113.824
			l-5.562-0.026l-0.032-49.819l5.547-0.111"/>
	</g>
</g>
<g id="g36470-2-4-2_2_" transform="translate(165.3925,438.40886)">
	<g id="g36466-2-7-1_2_">
		<path id="path2178-0-1-5_2_" sodipodi:nodetypes="cc" fill="none" stroke="#664444" stroke-width="0.5" d="M-116.413-138.7
			l-11.4-0.103"/>
		<path id="path2176-4-2-3_2_" sodipodi:nodetypes="cccc" fill="none" stroke="#664444" stroke-width="0.5" d="M-133.493-163.758
			l5.562,0.026l0.032,49.819l-5.547,0.111"/>
	</g>
</g>
<g id="g36470-2-4-2_3_" transform="translate(165.3925,438.40886)">
	<g id="g36466-2-7-1_3_">
		<path id="path2178-0-1-5_3_" sodipodi:nodetypes="cc" fill="none" stroke="#664444" stroke-width="0.5" d="M6.288-139.586
			l11.4,0.103"/>
		<path id="path2176-4-2-3_3_" sodipodi:nodetypes="cccc" fill="none" stroke="#664444" stroke-width="0.5" d="M23.368-114.528
			l-5.562-0.026l-0.032-49.819l5.547-0.111"/>
	</g>
</g>
<g id="g36470-2-4-2_4_" transform="translate(165.3925,438.40886)">
	<g id="g36466-2-7-1_4_">
		<path id="path2178-0-1-5_4_" sodipodi:nodetypes="cc" fill="none" stroke="#664444" stroke-width="0.5" d="M77.217-139.506
			l-11.4-0.103"/>
		<path id="path2176-4-2-3_4_" sodipodi:nodetypes="cccc" fill="none" stroke="#664444" stroke-width="0.5" d="M60.138-164.565
			l5.562,0.026l0.032,49.819l-5.547,0.111"/>
	</g>
</g>
<g>
	<g>
		<path fill="#9CCF31" d="M-30.771,308.326v-19.052c0-0.116,0.534-0.208,1.192-0.208h10.387c0.658,0,1.192,0.094,1.192,0.208v19.052
			c0,0.116-0.534,0.208-1.192,0.208h-10.387C-30.237,308.535-30.771,308.441-30.771,308.326z"/>
	</g>
	<text transform="matrix(1 0 0 1 -28.7708 303.5847)" font-family="'LucidaSansUnicode'" font-size="14">1</text>
</g>
<g>
	<g>
		<path fill="#F7D708" d="M51.692,308.235v-19.052c0-0.116,0.534-0.208,1.192-0.208h10.387c0.658,0,1.192,0.094,1.192,0.208v19.052
			c0,0.116-0.534,0.208-1.192,0.208H52.884C52.226,308.444,51.692,308.35,51.692,308.235z"/>
	</g>
	<text transform="matrix(1 0 0 1 53.6922 303.4937)" font-family="'LucidaSansUnicode'" font-size="14">2</text>
</g>
<g>
	<g>
		<path fill="#8B88FF" d="M155.615,307.428v-19.052c0-0.116,0.534-0.208,1.192-0.208h10.387c0.658,0,1.192,0.094,1.192,0.208v19.052
			c0,0.116-0.534,0.208-1.192,0.208h-10.387C156.148,307.637,155.615,307.544,155.615,307.428z"/>
	</g>
	<text transform="matrix(1 0 0 1 157.6147 302.6873)" font-family="'LucidaSansUnicode'" font-size="14">1</text>
</g>
<g>
	<g>
		<path fill="#8B88FF" d="M245.993,307.428v-19.052c0-0.116,0.534-0.208,1.192-0.208h10.387c0.658,0,1.192,0.094,1.192,0.208v19.052
			c0,0.116-0.534,0.208-1.192,0.208h-10.387C246.527,307.637,245.993,307.544,245.993,307.428z"/>
	</g>
	<text transform="matrix(1 0 0 1 247.9931 302.6873)" font-family="'LucidaSansUnicode'" font-size="14">1</text>
</g>
</svg>
