<?xml version="1.0" encoding="utf-8"?>
<!-- Generator: Adobe Illustrator 17.0.0, SVG Export Plug-In . SVG Version: 6.00 Build 0)  -->
<!DOCTYPE svg PUBLIC "-//W3C//DTD SVG 1.1//EN" "http://www.w3.org/Graphics/SVG/1.1/DTD/svg11.dtd">
<svg version="1.1"
	 id="svg2" xmlns:sodipodi="http://inkscape.sourceforge.net/DTD/sodipodi-0.dtd" xmlns:inkscape="http://www.inkscape.org/namespaces/inkscape" xmlns:dc="http://purl.org/dc/elements/1.1/" xmlns:rdf="http://www.w3.org/1999/02/22-rdf-syntax-ns#" xmlns:cc="http://web.resource.org/cc/" xmlns:svg="http://www.w3.org/2000/svg" sodipodi:version="0.32" sodipodi:docbase="/project/rosalyn/Biology/Summer1/LabsLectures/Images" inkscape:version="0.41.1" sodipodi:docname="pedigreechart1.svg" inkscape:export-filename="/project/rosalyn/Biology/Summer1/LabsLectures/Images/pedigreechartA.png" inkscape:export-xdpi="90.000000" inkscape:export-ydpi="90.000000"
	 xmlns="http://www.w3.org/2000/svg" xmlns:xlink="http://www.w3.org/1999/xlink" x="0px" y="0px" width="311px" height="334.5px"
	 viewBox="0 0 311 334.5" enable-background="new 0 0 311 334.5" xml:space="preserve">
<sodipodi:namedview  inkscape:cx="372.04723" inkscape:zoom="0.72503556" bordercolor="#666666" id="base" pagecolor="#ffffff" inkscape:cy="526.18109" borderopacity="1.0" showgrid="true" inkscape:pageopacity="0.0" inkscape:pageshadow="2" inkscape:window-width="1273" inkscape:window-height="943" inkscape:window-x="0" inkscape:document-units="px" inkscape:window-y="0" inkscape:current-layer="layer1">
	</sodipodi:namedview>
<sodipodi:namedview  inkscape:cx="372.04723" inkscape:zoom="0.72503556" bordercolor="#666666" id="base" pagecolor="#ffffff" inkscape:cy="526.18109" borderopacity="1.0" showgrid="true" inkscape:pageopacity="0.0" inkscape:pageshadow="2" inkscape:window-width="1273" inkscape:window-height="943" inkscape:window-x="0" inkscape:document-units="px" inkscape:window-y="0" inkscape:current-layer="layer1">
	</sodipodi:namedview>
<sodipodi:namedview  inkscape:cx="372.04723" inkscape:zoom="0.72503556" bordercolor="#666666" id="base" pagecolor="#ffffff" inkscape:cy="526.18109" borderopacity="1.0" showgrid="true" inkscape:pageopacity="0.0" inkscape:pageshadow="2" inkscape:window-width="1273" inkscape:window-height="943" inkscape:window-x="0" inkscape:document-units="px" inkscape:window-y="0" inkscape:current-layer="layer1">
	</sodipodi:namedview>
<line fill="none" stroke="#000000" stroke-width="1.3998" x1="110.799" y1="9.725" x2="200.236" y2="9.725"/>
<line fill="none" stroke="#000000" stroke-width="1.3998" x1="200.236" y1="50.621" x2="200.236" y2="9.871"/>
<line fill="none" stroke="#000000" stroke-width="1.3998" x1="110.618" y1="48.307" x2="110.618" y2="9.725"/>
<ellipse fill="none" stroke="#000000" cx="110.618" cy="69.961" rx="23.401" ry="21.872"/>
<rect x="179.242" y="50.412" fill="none" stroke="#000000" width="41.988" height="39.244"/>
<g>
	<path fill="#C8C8C8" d="M179.242,150.047V96.225c0-0.326,1.1-0.589,2.456-0.589h21.396c1.355,0,2.456,0.265,2.456,0.589v53.822
		c0,0.326-1.1,0.589-2.456,0.589h-21.396C180.341,150.638,179.242,150.373,179.242,150.047z"/>
	<path fill="#F7D708" d="M207.73,150.044V95.941c0-0.328,0.534-0.592,1.192-0.592h10.387c0.658,0,1.192,0.266,1.192,0.592v54.103
		c0,0.328-0.534,0.592-1.192,0.592h-10.387C208.264,150.638,207.73,150.372,207.73,150.044z"/>
</g>
<g>
	<path fill="#9CCF31" d="M108.21,325.223V271.12c0-0.328,0.534-0.592,1.192-0.592h10.387c0.658,0,1.192,0.266,1.192,0.592v54.103
		c0,0.328-0.534,0.592-1.192,0.592h-10.387C108.744,325.818,108.21,325.551,108.21,325.223z"/>
</g>
<g id="g36470-2-4-2" transform="translate(165.3925,438.40886)">
	<g id="g36466-2-7-1">
		<path id="path2178-0-1-5" sodipodi:nodetypes="cc" fill="none" stroke="#664444" stroke-width="0.5" d="M-10.126-287.399
			l0.322,8.991"/>
		<path id="path2176-4-2-3" sodipodi:nodetypes="cccc" fill="none" stroke="#664444" stroke-width="0.5" d="M68.566-273.928
			l-0.083-4.387l-156.449-0.025l-0.349,4.375"/>
	</g>
</g>
<text transform="matrix(1 0 0 1 209.6445 129.9078)" font-family="'LucidaSansUnicode'" font-size="14">1</text>
<text transform="matrix(1 0 0 1 209.6443 111.1526)" font-family="'LucidaSansUnicode'" font-size="14">1</text>
<text transform="matrix(1 0 0 1 209.6443 148.1401)" font-family="'LucidaSansUnicode'" font-size="14">1</text>
<text transform="matrix(1 0 0 1 188.4927 129.6464)" font-family="'LucidaSansUnicode'" font-size="14">0</text>
<text transform="matrix(1 0 0 1 182.4926 110.8911)" font-family="'LucidaSansUnicode'" font-size="14">0,1</text>
<text transform="matrix(1 0 0 1 188.4925 147.8787)" font-family="'LucidaSansUnicode'" font-size="14">0</text>
<g>
	<path fill="#C8C8C8" d="M84.333,150.047V96.225c0-0.326,1.06-0.589,2.366-0.589h20.615c1.305,0,2.366,0.265,2.366,0.589v53.822
		c0,0.326-1.06,0.589-2.366,0.589H86.699C85.393,150.638,84.333,150.373,84.333,150.047z"/>
</g>
<text transform="matrix(1 0 0 1 92.6241 129.1236)" font-family="'LucidaSansUnicode'" font-size="14">0</text>
<text transform="matrix(1 0 0 1 86.6239 110.3684)" font-family="'LucidaSansUnicode'" font-size="14">0,1</text>
<text transform="matrix(1 0 0 1 92.6237 147.3559)" font-family="'LucidaSansUnicode'" font-size="14">0</text>
<g>
	<path fill="#C8C8C8" d="M111.799,150.047V96.225c0-0.326,1.095-0.589,2.446-0.589h21.309c1.349,0,2.446,0.265,2.446,0.589v53.822
		c0,0.326-1.095,0.589-2.446,0.589h-21.309C112.895,150.638,111.799,150.373,111.799,150.047z"/>
</g>
<text transform="matrix(1 0 0 1 120.5964 129.385)" font-family="'LucidaSansUnicode'" font-size="14">1</text>
<text transform="matrix(1 0 0 1 113.5962 110.6297)" font-family="'LucidaSansUnicode'" font-size="14">1,0</text>
<text transform="matrix(1 0 0 1 120.5961 147.6173)" font-family="'LucidaSansUnicode'" font-size="14">1</text>
<line fill="none" stroke="#000000" stroke-width="1.3998" x1="32.423" y1="184.725" x2="121.86" y2="184.725"/>
<line fill="none" stroke="#000000" stroke-width="1.3998" x1="121.86" y1="225.621" x2="121.86" y2="184.871"/>
<line fill="none" stroke="#000000" stroke-width="1.3998" x1="32.242" y1="223.307" x2="32.242" y2="184.725"/>
<ellipse fill="none" stroke="#000000" cx="32.242" cy="244.961" rx="23.401" ry="21.872"/>
<rect x="100.865" y="225.412" fill="none" stroke="#000000" width="41.988" height="39.244"/>
<g>
	<path fill="#F7D708" d="M123.354,325.044v-54.103c0-0.328,0.534-0.592,1.192-0.592h10.387c0.658,0,1.192,0.266,1.192,0.592v54.103
		c0,0.328-0.534,0.592-1.192,0.592h-10.387C123.887,325.638,123.354,325.372,123.354,325.044z"/>
</g>
<text transform="matrix(1 0 0 1 125.2682 304.314)" font-family="'LucidaSansUnicode'" font-size="14">1</text>
<text transform="matrix(1 0 0 1 125.268 285.5588)" font-family="'LucidaSansUnicode'" font-size="14">1</text>
<text transform="matrix(1 0 0 1 125.2679 322.5463)" font-family="'LucidaSansUnicode'" font-size="14">1</text>
<line fill="none" stroke="#000000" stroke-width="1.3998" x1="191.73" y1="184.905" x2="281.167" y2="184.905"/>
<line fill="none" stroke="#000000" stroke-width="1.3998" x1="281.167" y1="225.8" x2="281.167" y2="185.051"/>
<line fill="none" stroke="#000000" stroke-width="1.3998" x1="191.549" y1="223.486" x2="191.549" y2="184.905"/>
<ellipse fill="none" stroke="#000000" cx="191.549" cy="245.14" rx="23.401" ry="21.872"/>
<rect x="260.172" y="225.592" fill="none" stroke="#000000" width="41.988" height="39.244"/>
<text transform="matrix(1 0 0 1 37.5425 179.5019)" font-family="'MyriadPro-Regular'" font-size="12">Configuration A</text>
<text transform="matrix(1 0 0 1 196.5425 179.5019)" font-family="'MyriadPro-Regular'" font-size="12">Configuration B</text>
<text transform="matrix(1 0 0 1 110.7682 304.3135)" font-family="'LucidaSansUnicode'" font-size="14">0</text>
<text transform="matrix(1 0 0 1 110.768 285.5583)" font-family="'LucidaSansUnicode'" font-size="14">0</text>
<text transform="matrix(1 0 0 1 110.7679 322.5458)" font-family="'LucidaSansUnicode'" font-size="14">0</text>
<g>
	<path fill="#9CCF31" d="M18.285,325.134v-54.103c0-0.328,0.534-0.592,1.192-0.592h10.387c0.658,0,1.192,0.266,1.192,0.592v54.103
		c0,0.328-0.534,0.592-1.192,0.592H19.477C18.819,325.728,18.285,325.462,18.285,325.134z"/>
</g>
<g>
	<path fill="#F7D708" d="M33.427,324.954v-54.103c0-0.328,0.534-0.592,1.192-0.592h10.387c0.658,0,1.192,0.266,1.192,0.592v54.103
		c0,0.328-0.534,0.592-1.192,0.592H34.619C33.962,325.548,33.427,325.282,33.427,324.954z"/>
</g>
<text transform="matrix(1 0 0 1 35.343 304.2243)" font-family="'LucidaSansUnicode'" font-size="14">1</text>
<text transform="matrix(1 0 0 1 35.3428 285.469)" font-family="'LucidaSansUnicode'" font-size="14">1</text>
<text transform="matrix(1 0 0 1 35.3427 322.4566)" font-family="'LucidaSansUnicode'" font-size="14">1</text>
<text transform="matrix(1 0 0 1 20.843 304.2238)" font-family="'LucidaSansUnicode'" font-size="14">0</text>
<text transform="matrix(1 0 0 1 20.8428 285.4685)" font-family="'LucidaSansUnicode'" font-size="14">0</text>
<text transform="matrix(1 0 0 1 20.8427 322.4561)" font-family="'LucidaSansUnicode'" font-size="14">0</text>
<g>
	<path fill="#8B88FF" d="M267.964,325.465v-54.103c0-0.328,0.534-0.592,1.192-0.592h10.386c0.658,0,1.192,0.266,1.192,0.592v54.103
		c0,0.328-0.534,0.592-1.192,0.592h-10.387C268.498,326.059,267.964,325.793,267.964,325.465z"/>
</g>
<g>
	<path fill="#F7D708" d="M283.107,325.286v-54.103c0-0.328,0.534-0.592,1.192-0.592h10.387c0.658,0,1.192,0.266,1.192,0.592v54.103
		c0,0.328-0.534,0.592-1.192,0.592h-10.387C283.641,325.88,283.107,325.614,283.107,325.286z"/>
</g>
<text transform="matrix(1 0 0 1 285.0219 304.5559)" font-family="'LucidaSansUnicode'" font-size="14">1</text>
<text transform="matrix(1 0 0 1 285.0217 285.8007)" font-family="'LucidaSansUnicode'" font-size="14">1</text>
<text transform="matrix(1 0 0 1 285.0216 322.7882)" font-family="'LucidaSansUnicode'" font-size="14">1</text>
<text transform="matrix(1 0 0 1 270.5219 304.5554)" font-family="'LucidaSansUnicode'" font-size="14">0</text>
<text transform="matrix(1 0 0 1 270.5217 285.8002)" font-family="'LucidaSansUnicode'" font-size="14">1</text>
<text transform="matrix(1 0 0 1 270.5216 322.7877)" font-family="'LucidaSansUnicode'" font-size="14">0</text>
<g>
	<path fill="#8B88FF" d="M178.038,325.376v-54.104c0-0.328,0.534-0.592,1.192-0.592h10.387c0.658,0,1.192,0.266,1.192,0.592v54.103
		c0,0.328-0.534,0.592-1.192,0.592H179.23C178.572,325.97,178.038,325.704,178.038,325.376z"/>
</g>
<g>
	<path fill="#FF9300" d="M193.182,325.196v-54.103c0-0.328,0.534-0.592,1.192-0.592h10.387c0.658,0,1.192,0.266,1.192,0.592v54.103
		c0,0.328-0.534,0.592-1.192,0.592h-10.387C193.715,325.79,193.182,325.524,193.182,325.196z"/>
</g>
<text transform="matrix(1 0 0 1 195.0967 304.4661)" font-family="'LucidaSansUnicode'" font-size="14">1</text>
<text transform="matrix(1 0 0 1 195.0964 285.7109)" font-family="'LucidaSansUnicode'" font-size="14">0</text>
<text transform="matrix(1 0 0 1 195.0964 322.6984)" font-family="'LucidaSansUnicode'" font-size="14">1</text>
<text transform="matrix(1 0 0 1 180.5967 304.4656)" font-family="'LucidaSansUnicode'" font-size="14">0</text>
<text transform="matrix(1 0 0 1 180.5964 285.7104)" font-family="'LucidaSansUnicode'" font-size="14">1</text>
<text transform="matrix(1 0 0 1 180.5964 322.6979)" font-family="'LucidaSansUnicode'" font-size="14">0</text>
</svg>
